<?xml version="1.0" encoding="UTF-8" standalone="no"?>
<!-- Created with Inkscape (http://www.inkscape.org/) -->

<svg
   xmlns:dc="http://purl.org/dc/elements/1.1/"
   xmlns:cc="http://creativecommons.org/ns#"
   xmlns:rdf="http://www.w3.org/1999/02/22-rdf-syntax-ns#"
   xmlns:svg="http://www.w3.org/2000/svg"
   xmlns="http://www.w3.org/2000/svg"
   xmlns:sodipodi="http://sodipodi.sourceforge.net/DTD/sodipodi-0.dtd"
   xmlns:inkscape="http://www.inkscape.org/namespaces/inkscape"
   width="32"
   height="32"
   id="svg4185"
   version="1.1"
   inkscape:version="0.48.4 r9939"
   sodipodi:docname="calendar-link.svg">
  <defs
     id="defs4187">
    <clipPath
       clipPathUnits="userSpaceOnUse"
       id="clipPath960">
      <path
         inkscape:connector-curvature="0"
         d="m 0,1600.04 595.28,0 L 595.28,0 0,0 0,1600.04 z"
         id="path962" />
    </clipPath>
  </defs>
  <sodipodi:namedview
     id="base"
     pagecolor="#ffffff"
     bordercolor="#666666"
     borderopacity="1.0"
     inkscape:pageopacity="0.0"
     inkscape:pageshadow="2"
     inkscape:zoom="7.919596"
     inkscape:cx="-4.7204401"
     inkscape:cy="10.377946"
     inkscape:document-units="px"
     inkscape:current-layer="g958"
     showgrid="false"
     inkscape:window-width="1364"
     inkscape:window-height="718"
     inkscape:window-x="0"
     inkscape:window-y="0"
     inkscape:window-maximized="1" />
  <metadata
     id="metadata4190">
    <rdf:RDF>
      <cc:Work
         rdf:about="">
        <dc:format>image/svg+xml</dc:format>
        <dc:type
           rdf:resource="http://purl.org/dc/dcmitype/StillImage" />
        <dc:title />
      </cc:Work>
    </rdf:RDF>
  </metadata>
  <g
     inkscape:label="Capa 1"
     inkscape:groupmode="layer"
     id="capa1"
     transform="translate(0,-1020.3622)">
    <g
       transform="matrix(1.25,0,0,-1.25,-254.0069,2238.5375)"
       id="g956">
      <g
         id="g958"
         clip-path="url(#clipPath960)">
        <g
           id="g146"
           transform="matrix(1.6255845,0,0,1.6255845,227.54309,965.12958)"
           style="fill:#212121;fill-opacity:1">
          <path
             inkscape:connector-curvature="0"
             d="m 0,0 c -0.152,0.708 -0.378,1.344 -0.596,1.986 -0.414,0.347 -0.602,0.918 -1.092,1.19 -0.272,0.49 -0.844,0.678 -1.192,1.094 -0.318,0.076 -0.585,0.207 -0.793,0.396 -0.49,0.072 -0.918,0.208 -1.39,0.297 l -1.687,0 C -6.877,4.958 -6.888,4.836 -7.048,4.865 -8.326,4.621 -9.167,3.938 -10.125,3.375 -10.8,2.529 -11.792,1.998 -11.714,0.396 c 0.078,-0.226 0.348,0.172 0.497,0.2 0.113,0.218 0.331,0.33 0.397,0.595 0.324,0.338 0.643,0.682 0.893,1.092 0.419,0.178 0.699,0.494 0.992,0.796 0.503,0.091 0.749,0.442 1.193,0.595 0.322,0.074 0.613,0.18 0.892,0.297 0.41,-0.078 0.51,0.153 0.893,0.099 0.759,-0.004 1.336,-0.187 1.986,-0.297 1.534,-0.914 2.92,-1.978 2.978,-4.369 0.07,-0.431 -0.169,-0.558 -0.099,-0.992 -0.282,-1.119 -0.95,-2.133 -1.489,-2.879 -0.123,-0.168 -0.138,-0.26 -0.199,-0.396 -0.012,-0.028 -0.174,-0.071 -0.199,-0.1 -0.256,-0.316 -0.521,-0.723 -0.793,-0.992 -0.167,-0.166 -0.416,-0.24 -0.596,-0.397 -0.196,-0.171 -0.31,-0.357 -0.497,-0.498 -0.409,-0.305 -0.837,-0.567 -1.289,-0.793 -0.373,-0.09 -0.703,-0.224 -1.093,-0.296 l -1.29,0 c -0.384,0.144 -0.894,0.164 -1.191,0.396 -0.462,0.102 -0.659,0.465 -1.092,0.596 -0.897,0.922 -1.635,2.006 -2.085,3.375 -0.341,1.571 -0.344,3.502 0.099,4.963 0.247,0.214 0.29,0.637 0.596,0.793 0.084,0.412 0.714,0.281 0.695,0.795 -0.37,0.22 -0.809,-0.212 -1.191,-0.297 -0.275,-0.323 -0.541,-0.651 -0.795,-0.994 -0.557,-0.932 -0.577,-2.399 -0.694,-3.772 0.142,-0.32 0.092,-0.833 0.099,-1.291 0.147,-0.018 0.092,-0.238 0.099,-0.396 0.243,-0.454 0.271,-1.118 0.596,-1.491 0.116,-0.578 0.54,-0.847 0.695,-1.388 0.397,-0.297 0.649,-0.741 0.992,-1.092 0.877,-0.612 1.8,-1.178 3.078,-1.391 l 1.588,0 c 0.515,0.115 0.949,0.309 1.489,0.4 1.205,0.813 2.446,1.588 3.275,2.778 1.021,1.031 1.776,2.326 2.184,3.971 -0.072,0.302 0.102,0.361 0.1,0.595 L 0,0 z"
             style="fill:#212121;fill-opacity:1;fill-rule:evenodd;stroke:none"
             id="path148" />
        </g>
      </g>
    </g>
  </g>
</svg>
