<?xml version="1.0" encoding="UTF-8" standalone="no"?>
<!-- Generator: Adobe Illustrator 16.0.0, SVG Export Plug-In . SVG Version: 6.00 Build 0)  -->

<svg
   xmlns:dc="http://purl.org/dc/elements/1.1/"
   xmlns:cc="http://creativecommons.org/ns#"
   xmlns:rdf="http://www.w3.org/1999/02/22-rdf-syntax-ns#"
   xmlns:svg="http://www.w3.org/2000/svg"
   xmlns="http://www.w3.org/2000/svg"
   xmlns:sodipodi="http://sodipodi.sourceforge.net/DTD/sodipodi-0.dtd"
   xmlns:inkscape="http://www.inkscape.org/namespaces/inkscape"
   version="1.1"
   id="Layer_1"
   x="0px"
   y="0px"
   width="60"
   height="72"
   viewBox="4 4 60 72"
   xml:space="preserve"
   inkscape:version="0.48.4 r9939"
   sodipodi:docname="calendar.svg"><metadata
     id="metadata12"><rdf:RDF><cc:Work
         rdf:about=""><dc:format>image/svg+xml</dc:format><dc:type
           rdf:resource="http://purl.org/dc/dcmitype/StillImage" /></cc:Work></rdf:RDF></metadata><defs
     id="defs10" /><sodipodi:namedview
     pagecolor="#ffffff"
     bordercolor="#666666"
     borderopacity="1"
     objecttolerance="10"
     gridtolerance="10"
     guidetolerance="10"
     inkscape:pageopacity="0"
     inkscape:pageshadow="2"
     inkscape:window-width="1918"
     inkscape:window-height="1030"
     id="namedview8"
     showgrid="false"
     inkscape:zoom="3.9333333"
     inkscape:cx="33.069979"
     inkscape:cy="58.809101"
     inkscape:window-x="0"
     inkscape:window-y="0"
     inkscape:window-maximized="1"
     inkscape:current-layer="g4" /><g
     id="calendar"
     transform="translate(0,-48)"><g
       id="g4"><path
         d="m 61.435866,67.163939 c -0.229435,-1.260588 -0.551594,-2.427241 -0.92624,-3.545055 -0.685229,-0.804214 -1.432683,-1.546798 -2.466913,-2.003806 -0.241625,-0.47593 -0.896339,-0.540611 -1.23133,-0.92562 -0.568058,-0.205019 -1.327724,-0.215405 -1.541891,-0.771248 0.403937,-0.212348 -0.07624,-1.306991 0.309965,-1.540697 -0.108608,-0.77492 0.25994,-1.074504 0.153153,-1.850024 0.353903,-0.313609 0.05548,-1.279515 0.153146,-1.849423 -0.278844,-0.388068 -0.278844,-1.055579 -0.925018,-1.079385 -0.280069,-0.368536 -1.202624,-0.08176 -1.386298,0.154993 -0.566836,0.04871 -0.852401,0.380134 -1.386294,0.461271 -0.31728,0.329495 -0.610179,-0.0428 -0.925638,-0.153146 -0.639432,-0.176945 -0.599785,0.324613 -1.080599,0.308751 -0.478981,0.546729 -0.396612,1.656 -0.616265,2.466303 -0.09884,0.978092 -0.07815,2.081879 -0.464346,2.773824 -1.412537,-0.07325 -3.19181,0.215384 -4.160734,-0.307534 0.253823,-1.767659 0.202566,-4.08507 -0.308749,-5.549469 -0.375246,-0.293506 -0.761494,-0.574174 -1.540679,-0.463748 -0.809074,0.03847 -0.854241,-0.687032 -1.849425,-0.461286 -0.182441,0.07395 -0.349007,0.163539 -0.462506,0.307534 -0.732813,0.448476 -0.606502,1.757293 -1.233153,2.311924 0.309979,1.338706 -0.122638,2.713425 -0.309341,4.008204 l -1.693839,0 c -0.519258,-0.09824 -1.433278,0.198906 -1.696877,-0.153772 -0.368532,-1.687092 -0.01095,-4.100314 -0.616263,-5.549459 -1.340533,-0.95981 -4.264481,-0.668769 -5.240742,0.461283 -0.564401,1.508926 -0.338648,3.261933 -0.307521,5.088176 l -2.312538,0 c -0.739531,-0.102561 -1.695059,0.158039 -2.005628,0 0.05795,-0.981138 -0.272731,-1.576049 -0.153761,-2.620051 -0.684616,-1.064147 -0.857282,-2.636538 -2.003794,-3.238164 -1.341148,-0.349025 -3.013618,-0.399061 -4.162572,0.153763 -0.277,0.442361 -0.578427,0.859725 -0.923179,1.233148 -0.342916,1.658445 -0.267253,3.278435 -0.154375,5.086984 -2.95017,0.646149 -5.716052,1.479044 -8.170156,2.622495 -0.471666,0.607108 -1.10074,1.379596 -1.386303,2.002567 -0.08537,0.183673 -0.232477,0.311191 -0.309971,0.463112 -0.36061,0.716968 -0.552818,1.246603 -0.7694152,2.00258 -0.3319349,1.156901 -0.4979018,2.359525 -0.6168835,3.701292 -0.3093563,3.435248 -0.087872,7.461745 -0.1555923,11.252125 0.4283369,7.178001 1.230716,28.622969 1.541891,35.917449 0.335608,-0.0276 0.07143,0.54689 0.154384,0.77066 0.319105,0.39969 0.526568,0.91352 0.616874,1.54141 0.577835,0.44878 1.092799,0.9629 1.541891,1.54045 0.812745,0.11293 1.325289,0.52371 2.003794,0.77155 0.773699,0.20244 1.630987,0.32153 2.466314,0.46353 6.887579,-0.17332 12.461459,0.48274 18.806606,0.15384 5.07842,-0.77903 11.153884,-0.56312 16.186544,-1.38692 l 6.781421,0 c 0.38014,-0.28985 1.05621,-0.28 1.541889,-0.46384 0.452139,-0.36847 0.948823,-0.69662 1.386309,-1.07861 0.223926,-0.29093 0.227597,-0.80122 0.616264,-0.92633 0.776754,-2.67373 0.992744,-5.67813 1.08062,-8.78518 0.08791,-3.1527 0.153764,-21.063596 0.153764,-24.356062 0,-6.790563 0.04756,-12.861736 0,-18.960389 z M 53.41885,56.06621 c 0.08111,0.07994 -0.111045,0.19647 -0.153149,0.15376 -0.07929,-0.07931 0.112268,-0.198312 0.153149,-0.15376 z m -21.27109,0.924999 c -0.0056,-0.364265 0.265428,-0.454568 0.153772,-0.925629 l 0.46191,0 c -0.08661,1.09528 0.183031,2.546246 -0.154386,3.391338 -0.830443,-0.144011 -0.319737,-1.632203 -0.461296,-2.465709 z m -10.020176,6.936405 c -0.536956,0.133627 -0.530843,-0.237974 -0.308744,-0.462503 0.190375,0.0684 0.316679,0.197074 0.308744,0.462503 z M 21.51009,57.915623 c -0.01833,-0.276414 0.189141,-0.325231 0.153162,-0.616263 0.352668,0.212959 0.05853,1.07205 0.154952,1.540671 -0.01336,0.244063 0.07405,0.588805 -0.154952,0.616887 l 0,-0.771875 c 0.12813,-0.433825 -0.216635,-0.398427 -0.153162,-0.76942 z m 35.455685,59.965517 c -2.020289,0.34296 -4.663531,0.0628 -6.935799,0.15363 -2.73783,0.29241 -5.4305,0.63214 -8.326361,0.77144 -2.877546,0.15609 -5.900935,0.16239 -8.478296,0.61603 -3.514557,-0.0828 -7.426966,0.23392 -10.482684,-0.30735 -3.670184,-0.18595 -8.352604,0.64369 -10.327718,-1.23311 -0.376473,-7.94747 -1.469893,-29.823837 -1.541287,-38.07575 -0.01401,-0.219055 -0.02683,-0.436268 0.154383,-0.462501 7.36657,0.914023 14.964995,0.33804 23.429844,0.925625 7.552069,0.40698 15.686835,0.769423 23.894217,0.462508 -0.01893,7.94501 0.16779,30.737848 -1.386299,37.149478 z m 1.386893,-41.467037 c -0.09448,0.781025 -0.342304,-0.448472 -0.92501,-0.154369 -0.403914,0.161692 -0.504004,0.626046 -0.462503,1.233165 -1.588893,-0.05686 -1.970233,0.169015 -3.546305,0.154349 -0.100014,-1.095248 1.285638,-2.229545 0.15559,-2.929414 -1.205685,0.389894 -1.618772,1.567518 -1.851239,2.929414 -1.275258,-0.0079 -2.63472,0.0665 -3.698236,-0.154349 0.150093,-1.333848 1.497967,-2.136217 0.924402,-3.698859 -0.179401,0.02556 -0.274569,-0.0347 -0.307515,-0.154355 -1.238043,-0.0052 -1.549844,0.917059 -2.313156,1.38812 -0.331331,0.89999 -0.974433,1.492459 -1.233147,2.465094 l -1.541292,0 c 0.109219,-1.376562 1.768874,-3.076483 0.461898,-4.007606 -1.320394,0.01473 -1.64014,1.031185 -2.466913,1.542512 -0.191588,0.780411 -0.87925,1.071458 -0.770037,2.15693 l -2.620672,0 c 0.291042,-0.718765 1.097085,-1.632179 0.617504,-2.620662 -1.886658,0.0152 -2.094095,1.709686 -3.238161,2.466903 -0.87012,0.04694 -1.370474,-0.273963 -2.313156,-0.154971 0.271502,-1.115992 1.053149,-1.721288 1.079997,-3.082569 -0.776747,-0.612618 -1.843925,0.299585 -2.312541,0.924398 -0.77369,0.511323 -1.253309,1.316738 -1.849416,2.004401 -1.427188,0.03894 -2.762852,-0.01224 -4.0076,-0.154976 0.194047,-0.897557 1.169084,-1.904939 0.460689,-2.773823 -1.177016,-0.150712 -1.544347,0.510104 -2.001353,1.079385 -0.51132,0.466154 -0.895736,1.056802 -1.233772,1.694438 -1.251452,0.0939 -1.720058,-0.03723 -2.929412,0.154976 -0.218445,-0.585137 0.429557,-1.480276 0.77063,-2.004401 0.100014,-0.74196 0.959805,-1.593149 0.308148,-2.156949 -0.688275,-0.320942 -0.940879,0.592478 -1.38691,0.616267 -0.271528,0.01337 -0.805419,0.773108 -1.080623,1.080009 -0.560117,0.825559 -1.299018,1.474161 -1.693832,2.465695 -1.040319,-0.114732 -1.601677,0.247716 -2.620661,0.153773 0.328868,-1.31309 1.069012,-2.219205 1.386909,-3.545705 0.348421,-0.472882 0.777357,-0.865224 0.92441,-1.541293 -0.465561,-0.743792 -1.636457,-0.298359 -2.157557,0.154377 -0.803599,0.686434 -1.474785,1.507719 -2.004998,2.466907 -0.474124,0.244078 -0.486312,0.952475 -0.925026,1.233157 -0.239798,0.479591 -0.149488,1.289284 -0.616271,1.540663 -0.393568,0.0082 -0.187322,-0.114696 -0.153757,-0.30873 -0.0134,-0.21784 -0.02558,-0.435662 0.153757,-0.461902 -0.123866,-0.535725 0.228805,-0.593082 0.153764,-1.079994 0.441151,-0.432608 0.439929,-1.30698 0.925622,-1.695052 0.398431,-1.29661 1.440006,-1.95071 1.386919,-3.698837 -0.117771,-0.397843 -0.374653,-0.654105 -0.770036,-0.771252 -1.011053,0.120806 -1.393022,0.866427 -1.850026,1.541896 -0.253218,-0.02204 -0.253218,-1.058656 0,-1.080611 -0.117158,-0.580279 0.186718,-0.73709 0.153757,-1.233145 0.254427,-0.618713 0.433219,-1.312491 0.771856,-1.849434 1.0562,-0.586972 2.006856,-1.281353 3.390706,-1.540668 0.347798,-0.165357 0.676687,-0.349631 0.924409,-0.61627 0.817026,0.04394 1.142856,-0.399674 2.005635,-0.310577 -0.06653,0.732801 0.223304,1.11356 0.307521,1.696881 0.735854,1.319176 2.662166,1.449142 4.779452,1.38631 1.34479,-0.553434 2.01415,-1.787208 2.003777,-3.698859 1.264891,-0.01892 2.314373,-0.255037 3.699468,-0.154972 0.291053,1.200192 0.20319,2.778096 1.38691,3.083164 0.992138,0.06769 1.609017,-0.239176 1.849421,-0.924992 0.774301,0.352669 1.73409,-6.19e-4 2.466303,-0.154385 0.681544,-0.294099 0.902436,-1.050701 1.080599,-1.848815 l 2.928201,0 c -0.05492,0.773699 0.09329,1.343592 0.306922,1.848815 0.101875,0.466795 0.700466,0.430768 0.92745,0.771861 0.522923,0.0099 1.075732,0.04762 1.23254,-0.308746 0.622367,0.40576 0.94269,1.112961 1.850633,1.232543 1.793297,0.09887 1.582769,-1.807319 1.540677,-3.544473 0.945165,-0.341078 2.504135,-0.06529 3.700075,-0.154972 -0.136086,0.90488 0.155583,1.385693 0.461281,1.850634 -0.159864,0.40516 -0.184267,0.945767 -0.153758,1.54068 0.214772,0.710841 0.800541,1.048876 1.848183,0.926242 0.50645,-0.215401 0.889023,-0.5516 0.925643,-1.234392 0.503999,0.165368 0.802367,0.535127 1.386302,0.616281 0.622974,-0.147652 1.335644,-0.206223 1.695655,-0.616281 0.172675,-0.8048 0.371592,-1.58277 0.309968,-2.619446 1.081838,0.458855 2.104474,0.978109 2.928198,1.694454 0.16902,0.859098 0.450312,1.605341 0.618104,2.4669 -0.349013,2.530363 -0.05979,5.695938 -0.154994,8.479512 z"
         id="path6"
         inkscape:connector-curvature="0"
         sodipodi:nodetypes="cccccccccccccccccccccccccccccccccccccccccccccccccccccscccccccccccccccccccccccccccccccccccccccccccccccccccccccccccccccccccccccccccccccccccccccccccccccccccccccccc" /></g></g></svg>