<?xml version="1.0" encoding="UTF-8" standalone="no"?>
<!-- Created with Inkscape (http://www.inkscape.org/) -->

<svg
   xmlns:dc="http://purl.org/dc/elements/1.1/"
   xmlns:cc="http://creativecommons.org/ns#"
   xmlns:rdf="http://www.w3.org/1999/02/22-rdf-syntax-ns#"
   xmlns:svg="http://www.w3.org/2000/svg"
   xmlns="http://www.w3.org/2000/svg"
   xmlns:sodipodi="http://sodipodi.sourceforge.net/DTD/sodipodi-0.dtd"
   xmlns:inkscape="http://www.inkscape.org/namespaces/inkscape"
   width="90"
   height="90"
   id="svg4185"
   version="1.1"
   inkscape:version="0.48.4 r9939"
   sodipodi:docname="feature.svg">
  <defs
     id="defs4187">
    <clipPath
       clipPathUnits="userSpaceOnUse"
       id="clipPath960">
      <path
         inkscape:connector-curvature="0"
         d="m 0,1600.04 595.28,0 L 595.28,0 0,0 0,1600.04 z"
         id="path962" />
    </clipPath>
  </defs>
  <sodipodi:namedview
     id="base"
     pagecolor="#ffffff"
     bordercolor="#666666"
     borderopacity="1.0"
     inkscape:pageopacity="0.0"
     inkscape:pageshadow="2"
     inkscape:zoom="3.959798"
     inkscape:cx="43.503138"
     inkscape:cy="43.163489"
     inkscape:document-units="px"
     inkscape:current-layer="g1010"
     showgrid="false"
     inkscape:window-width="1364"
     inkscape:window-height="718"
     inkscape:window-x="0"
     inkscape:window-y="0"
     inkscape:window-maximized="1" />
  <metadata
     id="metadata4190">
    <rdf:RDF>
      <cc:Work
         rdf:about="">
        <dc:format>image/svg+xml</dc:format>
        <dc:type
           rdf:resource="http://purl.org/dc/dcmitype/StillImage" />
        <dc:title />
      </cc:Work>
    </rdf:RDF>
  </metadata>
  <g
     inkscape:label="Capa 1"
     inkscape:groupmode="layer"
     id="capa1"
     transform="translate(0,-962.36218)">
    <g
       transform="matrix(1.25,0,0,-1.25,-254.0069,2238.5375)"
       id="g956">
      <g
         id="g958"
         clip-path="url(#clipPath960)">
        <g
           id="g1010"
           transform="matrix(1.6040473,0,0,1.6040473,272.54266,977.15705)"
           style="fill:#424242;fill-opacity:1">
          <path
             inkscape:connector-curvature="0"
             d="m 0,0 c 0.059,-0.324 -0.068,-0.465 -0.1,-0.699 -0.059,-0.207 0.123,-0.657 -0.099,-0.7 -0.115,-0.986 -0.542,-1.658 -0.7,-2.599 -0.316,-0.218 -0.169,-0.898 -0.5,-1.1 -0.051,-0.481 -0.29,-0.775 -0.201,-1.398 -0.558,-0.208 -0.471,-1.061 -0.999,-1.3 -0.243,-0.522 -0.727,-0.806 -0.999,-1.299 -0.717,-0.816 -1.534,-1.531 -2.199,-2.399 -1.103,-0.396 -1.866,-1.132 -2.898,-1.599 -0.84,-0.66 -1.924,-1.075 -2.799,-1.699 -0.715,-0.118 -1.262,-0.403 -1.799,-0.7 -0.761,-0.039 -1.358,-0.24 -1.999,-0.4 -1.354,-0.245 -2.636,-0.562 -3.998,-0.799 -2.987,-0.122 -5.433,0.297 -8.096,0.5 -0.026,0.207 -0.439,0.027 -0.5,0.2 -0.241,-0.041 -0.218,0.182 -0.499,0.099 -0.233,0.167 -0.539,0.261 -0.9,0.3 -0.509,0.324 -1.266,0.4 -1.899,0.6 -0.029,0.304 -0.529,0.138 -0.599,0.399 -0.137,0.198 -0.201,0.466 -0.5,0.5 -0.457,0.21 -0.671,0.662 -1.199,0.8 -0.358,0.31 -0.762,0.571 -1.1,0.899 -0.481,0.154 -0.734,0.533 -1.199,0.701 -0.402,0.523 -0.89,0.92 -1.401,1.398 -0.146,0.139 -0.225,0.44 -0.499,0.4 -0.112,0.754 -0.7,1.032 -0.999,1.599 -0.288,0.546 -0.626,1.041 -1,1.5 -1.034,3.463 -1.922,7.072 -2.099,11.394 -0.112,4.609 0.976,8.019 1.8,11.694 0.837,1.428 2.097,2.433 2.999,3.798 0.539,0.161 0.738,0.66 1.298,0.8 0.286,0.415 0.816,0.584 1.2,0.899 0.785,0.581 1.76,0.972 2.598,1.499 0.788,0.611 1.865,0.934 2.698,1.499 0.737,-0.036 0.946,0.454 1.6,0.5 0.434,0.233 1.066,0.266 1.399,0.6 1.892,0.175 3.369,0.762 5.498,0.7 0.088,0.044 0.178,0.088 0.199,0.199 l 3.099,0 c 0.405,-0.06 0.588,-0.345 1.1,-0.3 0.332,-0.133 0.521,-0.411 0.999,-0.399 0.558,-0.342 1.282,-0.517 1.799,-0.899 0.56,-0.374 1.319,-0.548 1.899,-0.9 0.554,-0.346 1.137,-0.663 1.799,-0.899 0.951,-0.882 1.967,-1.699 2.899,-2.6 0.91,-0.922 1.906,-1.758 2.798,-2.698 0.598,-1.768 1.386,-3.345 2.2,-4.898 C -1.677,12.25 -1.23,11.53 -1.1,10.495 -1.055,9.94 -0.822,9.572 -0.799,8.996 -0.887,8.609 -0.556,8.64 -0.5,8.396 -0.408,8.221 -0.465,7.897 -0.3,7.796 -0.219,6.712 -0.035,5.729 0.199,4.798 0.147,3.751 0.313,2.485 0.1,1.6 0.16,0.973 0.024,0.542 0,0 m 1.1,7.396 0,0.8 C 0.904,8.501 0.768,8.863 0.8,9.396 0.604,9.7 0.587,10.182 0.4,10.495 0.271,10.867 0.08,11.175 0,11.594 c -0.43,0.57 -0.517,1.483 -1,1.999 -0.431,0.568 -0.451,1.548 -0.699,2.299 -0.178,0.422 -0.463,0.736 -0.5,1.299 -1.041,1.257 -2.061,2.538 -3.298,3.598 -0.489,0.645 -1.194,1.072 -1.8,1.6 -0.319,0.246 -0.579,0.553 -0.898,0.799 -0.408,0.193 -0.511,0.69 -1,0.8 -0.578,0.255 -1.241,0.425 -1.7,0.799 -0.322,0.078 -0.589,0.209 -0.798,0.401 -0.345,0.088 -0.623,0.243 -0.901,0.399 -1.304,0.394 -2.215,1.184 -3.597,1.499 -0.58,0.187 -1.301,0.232 -2.1,0.2 -0.041,-0.126 -0.129,-0.204 -0.299,-0.2 -0.287,-0.136 -0.944,0.086 -1.5,0 -0.602,-0.002 -1.23,-0.03 -1.699,0.101 -0.444,-0.123 -0.737,-0.396 -1.399,-0.3 -0.343,0.043 -0.56,-0.04 -0.8,-0.101 -0.26,-0.038 -0.548,-0.051 -0.7,-0.199 -1.076,-0.091 -1.952,-0.38 -2.798,-0.7 -1.694,-0.672 -3.506,-1.225 -4.997,-2.099 -0.925,-0.242 -1.564,-0.769 -2.299,-1.199 -0.724,-0.477 -1.415,-0.985 -2.099,-1.499 -1.335,-1.031 -2.595,-2.137 -3.698,-3.399 -1.048,-2.451 -1.743,-5.253 -2.099,-8.395 -0.203,-1.453 -0.318,-3.45 -0.1,-4.998 -0.005,-0.871 0.171,-1.562 0.1,-2.499 -0.093,-0.986 0.409,-1.521 0,-2.298 0.022,-0.412 0.587,-0.279 0.4,-0.9 -0.013,-0.712 -0.015,-1.414 0.1,-1.999 0.574,-1.456 1.237,-2.828 1.699,-4.398 0.241,-0.325 0.432,-0.7 0.799,-0.899 0.109,-0.458 0.367,-0.766 0.5,-1.2 1.079,-0.953 2.054,-2.01 2.998,-3.098 0.41,-0.058 0.473,-0.46 0.901,-0.5 0.137,-0.361 0.631,-0.367 0.799,-0.699 0.695,-0.305 1.203,-0.796 1.798,-1.2 0.856,-0.145 1.496,-0.503 2.2,-0.799 0.776,-0.223 1.588,-0.412 2.298,-0.701 1.86,0.127 2.991,-0.473 4.498,-0.699 l 5.397,0 c 1.279,0.32 2.586,0.612 3.898,0.9 0.593,0.207 1.198,0.402 1.899,0.5 0.193,0.206 0.609,0.19 0.9,0.299 0.126,0.034 0.141,0.092 0.299,0.1 0.106,0.006 0.059,0.084 0.101,0.101 0.083,0.032 0.046,0.077 0.2,0.099 0.131,0.019 0.268,-0.014 0.399,0 0.485,0.516 1.253,0.746 1.8,1.199 0.666,0.334 1.256,0.743 1.799,1.2 0.584,0.415 1.226,0.773 1.699,1.299 0.672,0.328 1.039,0.96 1.799,1.2 0.23,1.035 1.359,1.173 1.6,2.199 0.753,0.512 0.931,1.599 1.598,2.198 0.32,1.38 0.915,2.484 1.199,3.899 0.212,1.187 0.23,2.569 0.4,3.797 l 0,5.497 C 1.443,7.274 1.025,7.089 1.1,7.396"
             style="fill:#424242;fill-opacity:1;fill-rule:evenodd;stroke:none"
             id="path1012"
             sodipodi:nodetypes="ccccccccccccccccccccccccccccccccccccccccccccccccccccccccccccccccccccccccccccccccccccccccccccccccccccccccccccccccccccc" />
        </g>
      </g>
    </g>
  </g>
</svg>
