<?xml version="1.0" encoding="UTF-8" standalone="no"?>
<svg
   xmlns:dc="http://purl.org/dc/elements/1.1/"
   xmlns:cc="http://creativecommons.org/ns#"
   xmlns:rdf="http://www.w3.org/1999/02/22-rdf-syntax-ns#"
   xmlns:svg="http://www.w3.org/2000/svg"
   xmlns="http://www.w3.org/2000/svg"
   xmlns:sodipodi="http://sodipodi.sourceforge.net/DTD/sodipodi-0.dtd"
   xmlns:inkscape="http://www.inkscape.org/namespaces/inkscape"
   width="500"
   height="3"
   id="svg-border-bottom"
   version="1.1"
   inkscape:version="0.48.4 r9939"
   sodipodi:docname="border-bottom.svg"
   preserveAspectRatio="none"
   viewBox="0 0 500 3">
  <defs
     id="defs4627" />
  <sodipodi:namedview
     id="base"
     pagecolor="#ffffff"
     bordercolor="#666666"
     borderopacity="1.0"
     inkscape:pageopacity="0.0"
     inkscape:pageshadow="2"
     inkscape:zoom="0.7"
     inkscape:cx="138.29288"
     inkscape:cy="38.497889"
     inkscape:document-units="px"
     inkscape:current-layer="svg-border-bottom"
     showgrid="false"
     inkscape:window-width="1364"
     inkscape:window-height="718"
     inkscape:window-x="0"
     inkscape:window-y="0"
     inkscape:window-maximized="1" />
  <metadata
     id="metadata4630">
    <rdf:RDF>
      <cc:Work
         rdf:about="">
        <dc:format>image/svg+xml</dc:format>
        <dc:type
           rdf:resource="http://purl.org/dc/dcmitype/StillImage" />
        <dc:title />
      </cc:Work>
    </rdf:RDF>
  </metadata>
  <path
     inkscape:connector-curvature="0"
     d="M 1.0410388,1.8853621 C 1.1143748,1.7621189 3.0914498,1.7449546 20.679364,1.5093816 38.267255,1.2738182 44.149686,1.1578474 50.005325,1.1578474 c 11.81488,0 23.641392,-0.1039981 35.476052,-0.1039981 17.762453,0 35.619203,0.1039981 53.385153,0.1039981 11.4153,-0.1476799 22.30446,0.266204 33.03115,0 10.33641,-0.64267619 21.69544,0.5260625 30.93882,-0.052487 9.15241,0.1300049 18.28382,-0.051446 33.68512,-0.068941 11.94813,-0.0590114 24.22342,0.067806 35.28632,0.2254351 8.00619,0.1123204 15.98326,-0.30889274 30.09986,-0.1027026 14.11661,0.2061902 21.2081,0.2971945 27.70617,0.2587141 7.19153,0.2818459 14.7398,-0.025818 24.43264,0.014091 12.45452,-0.081708 26.43188,-0.072157 36.14809,-0.1612223 10.57611,-0.098806 16.15252,0.034329 33.02996,0.064496 16.87744,0.030167 21.35526,-0.064969 35.23227,0.1055681 13.87689,0.1705658 19.06342,-0.1596429 24.45124,0.1326055 1.47092,-0.033761 16.06001,0.2906976 16.05079,0.4680251"
     style="fill:none;stroke:#FAFAFA;stroke-width:2.08208036;stroke-miterlimit:4;stroke-opacity:1;stroke-dasharray:none"
     id="path4519"
     sodipodi:nodetypes="ccssccccccccccccc" />
</svg>
