<?xml version="1.0" encoding="UTF-8" standalone="no"?>
<svg
   xmlns:dc="http://purl.org/dc/elements/1.1/"
   xmlns:cc="http://creativecommons.org/ns#"
   xmlns:rdf="http://www.w3.org/1999/02/22-rdf-syntax-ns#"
   xmlns:svg="http://www.w3.org/2000/svg"
   xmlns="http://www.w3.org/2000/svg"
   xmlns:sodipodi="http://sodipodi.sourceforge.net/DTD/sodipodi-0.dtd"
   xmlns:inkscape="http://www.inkscape.org/namespaces/inkscape"
   width="500"
   height="3"
   id="svg-border-top"
   version="1.1"
   inkscape:version="0.48.4 r9939"
   sodipodi:docname="border-top.svg"
   preserveAspectRatio="none"
   viewBox="0 0 500 3">
  <defs
     id="defs4627" />
  <sodipodi:namedview
     id="base"
     pagecolor="#ffffff"
     bordercolor="#666666"
     borderopacity="1.0"
     inkscape:pageopacity="0.0"
     inkscape:pageshadow="2"
     inkscape:zoom="1.4"
     inkscape:cx="259.97409"
     inkscape:cy="-11.299624"
     inkscape:document-units="px"
     inkscape:current-layer="svg-border-top"
     showgrid="false"
     inkscape:window-width="1364"
     inkscape:window-height="718"
     inkscape:window-x="0"
     inkscape:window-y="0"
     inkscape:window-maximized="1"
     fit-margin-top="0"
     fit-margin-left="0"
     fit-margin-right="0"
     fit-margin-bottom="0" />
  <metadata
     id="metadata4630">
    <rdf:RDF>
      <cc:Work
         rdf:about="">
        <dc:format>image/svg+xml</dc:format>
        <dc:type
           rdf:resource="http://purl.org/dc/dcmitype/StillImage" />
        <dc:title />
      </cc:Work>
    </rdf:RDF>
  </metadata>
  <path
     inkscape:connector-curvature="0"
     d="m 498.95902,1.115924 c -0.0733,0.1228244 -2.05041,0.1399266 -19.63833,0.3746924 -17.58791,0.2347658 -23.47033,0.3503349 -29.32598,0.3503349 -11.81487,0 -23.64139,0.1036494 -35.47605,0.1036494 -17.76247,0 -35.61921,-0.1036494 -53.38518,-0.1036494 -11.41528,0.1471747 -22.30446,-0.2652966 -33.03115,0 -10.33642,0.6404824 -21.69546,-0.5242644 -30.93883,0.052343 -9.15242,-0.1295616 -18.28382,0.051307 -33.68512,0.06867 C 251.53024,2.0208066 239.25494,1.8943507 228.19204,1.7373024 220.18585,1.625361 212.20877,2.0451408 198.09218,1.8396561 183.97556,1.6341712 176.88407,1.543478 170.38601,1.5818282 163.19448,1.3009383 155.6462,1.6075031 145.95335,1.5678136 133.49884,1.6492819 119.52147,1.6397015 109.80526,1.7284917 99.229159,1.8269587 93.652729,1.6942875 76.775279,1.6642296 59.897842,1.6341716 55.420023,1.7290103 41.543013,1.5590255 27.666121,1.3890406 22.479592,1.7181273 17.091785,1.4268724 15.62085,1.4605588 1.0317732,1.1371727 1.0409852,0.96045045"
     style="fill:none;stroke:#FAFAFA;stroke-width:2.08196115;stroke-miterlimit:4;stroke-opacity:1;stroke-dasharray:none"
     id="path4519"
     sodipodi:nodetypes="ccssccccccccccccc" />
</svg>
