<?xml version="1.0"?>
<svg xmlns="http://www.w3.org/2000/svg" xmlns:xlink="http://www.w3.org/1999/xlink" id="Layer_1" data-name="Layer 1" viewBox="0 0 2000 1224">
<style>
  #letters {
    fill: white;
  }
</style>
<defs>
    <linearGradient id="linear-gradient" x1="851.58" y1="396.92" x2="1156.04" y2="396.92" gradientUnits="userSpaceOnUse">
        <stop offset="0" stop-color="#a6a6a6"/>
        <stop offset="0.21" stop-color="#f6f7f7"/>
        <stop offset="0.57" stop-color="#959595"/>
        <stop offset="0.65" stop-color="gray"/>
        <stop offset="0.82" stop-color="#4b4a4b"/>
        <stop offset="0.84" stop-color="#535253"/>
        <stop offset="0.86" stop-color="#696869"/>
        <stop offset="0.89" stop-color="#8c8c8d"/>
        <stop offset="0.92" stop-color="#b4b4b5"/>
        <stop offset="1" stop-color="#fff"/>
    </linearGradient>
    <linearGradient id="linear-gradient-2" x1="851.59" y1="531.18" x2="1156.03" y2="531.18" xlink:href="#linear-gradient"/>
</defs>
<title>Steel Modular, Inc.</title>
<path id="letters" d="M109.48,868.12l-2.85,6.51c-.53,1.37-.11,2.06,1.27,2.06h37.92a2.87,2.87,0,0,0,2.85-2.06l5.4-12.69q.94-2.07-1.11-2.07H107.9q-11,0-15.31-7.53t.4-18.49l7.45-17.76a47.29,47.29,0,0,1,13.8-18.49,31.16,31.16,0,0,1,20.15-7.53h55.37q11,0,15.23,7.53t-.31,18.49l-4.29,10.15H169.3l2.69-6.51c.64-1.37.27-2.06-1.11-2.06H133a3.16,3.16,0,0,0-3,2.06l-5.39,12.7c-.53,1.37-.11,2.06,1.27,2.06h45.05q11,0,15.31,7.53t-.39,18.49l-7.46,17.77a50.81,50.81,0,0,1-13.48,18.48,29.3,29.3,0,0,1-19.68,7.54H89q-11,0-15.31-7.54t.4-18.48l4.28-10.16Z"/>
<path id="letters" d="M210.39,904.3l36.81-86.63H208.8l11.74-27.6H328.43l-11.74,27.6h-38.4L241.48,904.3Z"/>
<path id="letters" d="M395.85,876.69,384.11,904.3H288.92l48.55-114.23h95.19l-11.74,27.6h-64.1l-7.61,17.93h57l-9.84,23.16h-57l-7.61,17.93Z"/>
<path id="letters" d="M505.48,876.69,493.74,904.3H398.55L447.1,790.07h95.19l-11.74,27.6h-64.1l-7.61,17.93h56.95L506,858.76H449l-7.61,17.93Z"/>
<path id="letters" d="M556.73,790.07h31.09L551,876.69h53.47L592.74,904.3H508.18Z"/>
<path id="letters" d="M705.38,790.07h26.34l6.82,66.63,60.61-66.63h29.51L780.11,904.3H749l19.36-45.54-32.53,33.16H711.41l-4.28-33-19.2,45.38h-31.1Z"/>
<path id="letters" d="M824.69,904.3q-11,0-15.31-7.54t.39-18.48l26.34-62.19a47.29,47.29,0,0,1,13.8-18.49,31.14,31.14,0,0,1,20.15-7.53h58.55q10.93,0,15.23,7.53t-.32,18.49l-26.34,62.19a48.87,48.87,0,0,1-13.88,18.48,30.77,30.77,0,0,1-20.07,7.54Zm86.15-84.57c.63-1.37.26-2.06-1.11-2.06h-41.1a3.16,3.16,0,0,0-3,2.06l-23.32,54.9c-.53,1.37-.11,2.06,1.27,2.06h41.09a2.87,2.87,0,0,0,2.85-2.06Z"/>
<path id="letters" d="M924.64,904.3l48.54-114.23h75.21q11,0,15.23,7.53t-.32,18.49L1037,878.28a48.87,48.87,0,0,1-13.88,18.48A30.77,30.77,0,0,1,1003,904.3Zm106-84.57c.63-1.37.26-2.06-1.11-2.06h-37l-25.07,59h37a2.88,2.88,0,0,0,2.86-2.06Z"/>
<path id="letters" d="M1130.41,876.69a2.88,2.88,0,0,0,2.86-2.06l36-84.56h31.1l-37.45,88.21a52.91,52.91,0,0,1-13.09,18.48,27.82,27.82,0,0,1-19.27,7.54H1070q-10.95,0-15.31-7.54t.4-18.48l37.44-88.21h31.1l-36,84.56c-.53,1.37-.1,2.06,1.27,2.06Z"/>
<path id="letters" d="M1219.57,790.07h31.1l-36.81,86.62h53.47l-11.74,27.61H1171Z"/>
<path id="letters" d="M1302.23,816.09q11.1-26,29.19-26h62.67q11,0,15.23,7.53t-.32,18.49l-37.44,88.21h-31.1l11.75-27.61h-44.59l-11.74,27.61h-31.09ZM1362,853.53l13.49-31.89c1.16-2.64.42-4-2.22-4h-36.65c-2.65,0-4.55,1.33-5.71,4l-13.49,31.89Z"/>
<path id="letters" d="M1439.3,790.07h79.33q10.95,0,15.23,7.61t-.32,18.41l-10.47,24.74a48.11,48.11,0,0,1-14,18.33q-9.43,7.7-22.92,7.69h-.64l13.8,37.45h-35.69l-10.79-37.45h-15.07l-15.87,37.45h-31.09Zm50.77,50.45a2.88,2.88,0,0,0,2.86-2.06l7.93-18.73c.64-1.37.26-2.06-1.11-2.06h-41.09L1449,840.52Z"/>
<path id="letters" d="M1494,932.85l24.43-43.15h24.59l-33.47,43.15Z"/>
<path id="letters" d="M1656.65,790.07h31.1L1639.2,904.3h-31.1Z"/>
<path id="letters" d="M1707.42,790.07h31.1l16.66,67.9,28.87-67.9h31.1L1766.6,904.3h-29.51l-18.25-67.91L1690,904.3h-31.1Z"/>
<path id="letters" d="M1871.94,876.69a1.75,1.75,0,0,0,1.75-1.27l5.08-11.9h31.09l-10.79,25.55a25.12,25.12,0,0,1-9,10.78,22,22,0,0,1-12.69,4.45h-66.16q-11,0-15.31-7.54t.4-18.48l26.33-62.19a51,51,0,0,1,13-18.49,28.17,28.17,0,0,1,19.36-7.53h70.91q6.34,0,8.89,4.44t-.16,10.79l-10.79,25.54h-31.09l4.92-11.9c.42-.84.21-1.27-.64-1.27h-41.88a3.16,3.16,0,0,0-3,2.06l-23.32,54.9c-.53,1.37-.11,2.06,1.27,2.06Z"/>
<polygon points="1178.51 387.66 1178.51 486.27 1011.58 320.11 926.94 403.19 1043.41 521.98 994.49 571.67 829.11 406.29 1011.58 222.28 1178.51 387.66" fill="#231f20"/>
<polygon points="840.34 406.26 1009.72 235.45 1167.28 391.54 1167.28 463.85 1009.71 307.01 911.86 403.06 1028.43 521.97 992.53 558.45 840.34 406.26" fill="#f9f9f9"/>
<polygon points="851.58 406.24 1007.86 248.62 1156.04 395.43 1156.04 441.43 1007.84 293.91 896.77 402.94 1013.46 521.96 990.56 545.22 851.58 406.24" fill="url(#linear-gradient)"/>
<polygon points="829.11 445.12 829.11 541.39 995.27 706 1178.51 524.31 1012.35 355.82 964.21 406.29 1081.45 521.98 995.27 608.95 829.11 445.12" fill="#231f20"/>
<polygon points="840.35 537.51 840.35 467.39 997.27 622.1 1096.57 521.91 979.2 406.1 1014.38 369.21 1167.27 524.24 997.19 692.88 840.35 537.51" fill="#f9f9f9"/>
<polygon points="851.59 533.62 851.59 489.66 999.26 635.26 1111.68 521.84 994.18 405.9 1016.42 382.59 1156.04 524.16 999.11 679.76 851.59 533.62" fill="url(#linear-gradient-2)"/>
<circle cx="1149.03" cy="398.29" r="3.06" fill="#fff"/>
<circle cx="1150.25" cy="426.25" r="3.06" fill="#fff"/>
<circle cx="1008.02" cy="259.71" r="3.06" fill="#fff"/>
<circle cx="1008.02" cy="287.67" r="3.06" fill="#fff"/>
<circle cx="999.47" cy="643.38" r="3.06" fill="#fff"/>
<circle cx="999.47" cy="668.91" r="3.06" fill="#fff"/>
<circle cx="858.86" cy="505.21" r="3.06" fill="#fff"/>
<circle cx="858.86" cy="530.74" r="3.06" fill="#fff"/>
<circle cx="863.14" cy="405.63" r="3.06" fill="#fff"/>
<circle cx="887.68" cy="403.15" r="3.06" fill="#fff"/>
<circle cx="1121.43" cy="522.3" r="3.06" fill="#fff"/>
<circle cx="1144.76" cy="524.69" r="3.06" fill="#fff"/>
<circle cx="991.18" cy="535.37" r="3.06" fill="#fff"/>
<circle cx="1003.74" cy="521.65" r="3.06" fill="#fff"/>
<circle cx="1004.8" cy="406.96" r="3.06" fill="#fff"/>
<circle cx="1017.36" cy="393.23" r="3.06" fill="#fff"/>
</svg>
