<?xml version="1.0"?>
<svg xmlns="http://www.w3.org/2000/svg" xmlns:xlink="http://www.w3.org/1999/xlink" id="Favicon" data-name="Favicon" viewBox="0 0 2000 1224">
<defs>
    <linearGradient id="linear-gradient" x1="851.58" y1="396.92" x2="1156.04" y2="396.92" gradientUnits="userSpaceOnUse">
        <stop offset="0" stop-color="#a6a6a6"/>
        <stop offset="0.21" stop-color="#f6f7f7"/>
        <stop offset="0.57" stop-color="#959595"/>
        <stop offset="0.65" stop-color="gray"/>
        <stop offset="0.82" stop-color="#4b4a4b"/>
        <stop offset="0.84" stop-color="#535253"/>
        <stop offset="0.86" stop-color="#696869"/>
        <stop offset="0.89" stop-color="#8c8c8d"/>
        <stop offset="0.92" stop-color="#b4b4b5"/>
        <stop offset="1" stop-color="#fff"/>
    </linearGradient>
    <linearGradient id="linear-gradient-2" x1="851.59" y1="531.18" x2="1156.03" y2="531.18" xlink:href="#linear-gradient"/>
</defs>
<title>Steel Modular, Inc.</title>
<polygon points="1178.51 387.66 1178.51 486.27 1011.58 320.11 926.94 403.19 1043.41 521.98 994.49 571.67 829.11 406.29 1011.58 222.28 1178.51 387.66" fill="#231f20"/>
<polygon points="840.34 406.26 1009.72 235.45 1167.28 391.54 1167.28 463.85 1009.71 307.01 911.86 403.06 1028.43 521.97 992.53 558.45 840.34 406.26" fill="#f9f9f9"/>
<polygon points="851.58 406.24 1007.86 248.62 1156.04 395.43 1156.04 441.43 1007.84 293.91 896.77 402.94 1013.46 521.96 990.56 545.22 851.58 406.24" fill="url(#linear-gradient)"/>
<polygon points="829.11 445.12 829.11 541.39 995.27 706 1178.51 524.31 1012.35 355.82 964.21 406.29 1081.45 521.98 995.27 608.95 829.11 445.12" fill="#231f20"/>
<polygon points="840.35 537.51 840.35 467.39 997.27 622.1 1096.57 521.91 979.2 406.1 1014.38 369.21 1167.27 524.24 997.19 692.88 840.35 537.51" fill="#f9f9f9"/>
<polygon points="851.59 533.62 851.59 489.66 999.26 635.26 1111.68 521.84 994.18 405.9 1016.42 382.59 1156.04 524.16 999.11 679.76 851.59 533.62" fill="url(#linear-gradient-2)"/>
<circle cx="1149.03" cy="398.29" r="3.06" fill="#fff"/>
<circle cx="1150.25" cy="426.25" r="3.06" fill="#fff"/>
<circle cx="1008.02" cy="259.71" r="3.06" fill="#fff"/>
<circle cx="1008.02" cy="287.67" r="3.06" fill="#fff"/>
<circle cx="999.47" cy="643.38" r="3.06" fill="#fff"/>
<circle cx="999.47" cy="668.91" r="3.06" fill="#fff"/>
<circle cx="858.86" cy="505.21" r="3.06" fill="#fff"/>
<circle cx="858.86" cy="530.74" r="3.06" fill="#fff"/>
<circle cx="863.14" cy="405.63" r="3.06" fill="#fff"/>
<circle cx="887.68" cy="403.15" r="3.06" fill="#fff"/>
<circle cx="1121.43" cy="522.3" r="3.06" fill="#fff"/>
<circle cx="1144.76" cy="524.69" r="3.06" fill="#fff"/>
<circle cx="991.18" cy="535.37" r="3.06" fill="#fff"/>
<circle cx="1003.74" cy="521.65" r="3.06" fill="#fff"/>
<circle cx="1004.8" cy="406.96" r="3.06" fill="#fff"/>
<circle cx="1017.36" cy="393.23" r="3.06" fill="#fff"/>
</svg>
