<?xml version="1.0" encoding="utf-8"?>
<!-- Generator: Adobe Illustrator 16.0.0, SVG Export Plug-In . SVG Version: 6.00 Build 0)  -->
<!DOCTYPE svg PUBLIC "-//W3C//DTD SVG 1.1//EN" "http://www.w3.org/Graphics/SVG/1.1/DTD/svg11.dtd">
<svg version="1.1" id="Layer_1" xmlns="http://www.w3.org/2000/svg" xmlns:xlink="http://www.w3.org/1999/xlink" x="0px" y="0px"
	 width="3628.35px" height="2494.49px" viewBox="0 0 3628.35 2494.49" enable-background="new 0 0 3628.35 2494.49"
	 xml:space="preserve">
<g>
	<g>
		<!-- S -->
		<path id="safe-s" class="safe" fill="#010101" d="M880.79,1585.658v40.369h-3.184c-1.033-7.75-2.883-13.914-5.556-18.504
			c-2.668-4.59-6.467-8.238-11.403-10.936c-4.938-2.695-10.043-4.045-15.322-4.045c-5.969,0-10.904,1.826-14.807,5.467
			c-3.9,3.643-5.854,7.793-5.854,12.439c0,3.557,1.234,6.801,3.703,9.725c3.561,4.309,12.021,10.049,25.391,17.217
			c10.904,5.85,18.353,10.346,22.339,13.471c3.989,3.133,7.062,6.816,9.211,11.057c2.151,4.25,3.229,8.701,3.229,13.35
			c0,8.84-3.431,16.455-10.286,22.852c-6.858,6.402-15.683,9.6-26.472,9.6c-3.385,0-6.572-0.256-9.553-0.777
			c-1.78-0.285-5.467-1.332-11.063-3.141c-5.594-1.807-9.137-2.711-10.633-2.711c-1.431,0-2.566,0.434-3.398,1.289
			c-0.831,0.865-1.45,2.643-1.85,5.34h-3.186v-40.027h3.186c1.49,8.379,3.496,14.648,6.025,18.811
			c2.525,4.16,6.384,7.611,11.58,10.369c5.189,2.76,10.887,4.133,17.084,4.133c7.172,0,12.84-1.895,17.002-5.68
			c4.159-3.789,6.24-8.266,6.24-13.43c0-2.871-0.791-5.766-2.367-8.689c-1.58-2.928-4.032-5.654-7.363-8.184
			c-2.234-1.719-8.347-5.379-18.332-10.975c-9.984-5.596-17.088-10.053-21.305-13.387c-4.217-3.322-7.42-7.002-9.598-11.014
			c-2.182-4.021-3.27-8.436-3.27-13.262c0-8.373,3.212-15.59,9.641-21.641c6.424-6.057,14.601-9.086,24.531-9.086
			c6.199,0,12.766,1.52,19.711,4.563c3.216,1.436,5.479,2.15,6.803,2.15c1.49,0,2.71-0.445,3.658-1.334
			c0.947-0.889,1.707-2.684,2.281-5.379H880.79z"/>

		<!-- a -->
		<path id="safe-a" class="safe" fill="#010101" d="M948.19,1693.689c-8.094,6.254-13.172,9.871-15.237,10.846c-3.099,1.428-6.399,2.152-9.899,2.152
			c-5.453,0-9.942-1.867-13.469-5.598c-3.53-3.729-5.295-8.635-5.295-14.719c0-3.846,0.861-7.174,2.582-9.984
			c2.352-3.904,6.439-7.576,12.268-11.021c5.824-3.447,15.508-7.629,29.051-12.563v-3.104c0-7.861-1.25-13.252-3.744-16.184
			c-2.498-2.922-6.128-4.389-10.891-4.389c-3.613,0-6.484,0.977-8.607,2.928c-2.182,1.949-3.271,4.189-3.271,6.711l0.172,4.996
			c0,2.639-0.675,4.674-2.025,6.115c-1.347,1.43-3.109,2.146-5.291,2.146c-2.123,0-3.859-0.744-5.209-2.24
			c-1.348-1.488-2.021-3.525-2.021-6.109c0-4.936,2.525-9.467,7.574-13.6c5.05-4.129,12.138-6.195,21.262-6.195
			c7.002,0,12.74,1.178,17.217,3.527c3.386,1.781,5.882,4.561,7.488,8.35c1.031,2.471,1.548,7.521,1.548,15.154v26.768
			c0,7.518,0.146,12.123,0.433,13.816c0.287,1.695,0.76,2.824,1.42,3.396c0.658,0.576,1.424,0.863,2.281,0.863
			c0.918,0,1.722-0.199,2.411-0.604c1.206-0.744,3.53-2.84,6.97-6.283v4.822c-6.424,8.607-12.564,12.908-18.418,12.908
			c-2.813,0-5.052-0.975-6.715-2.928C949.106,1701.725,948.245,1698.393,948.19,1693.689z M948.19,1688.092v-30.037
			c-8.664,3.443-14.264,5.881-16.788,7.311c-4.532,2.529-7.776,5.166-9.726,7.92c-1.951,2.754-2.926,5.773-2.926,9.041
			c0,4.133,1.232,7.561,3.701,10.285c2.467,2.727,5.307,4.088,8.521,4.088C935.335,1696.699,941.073,1693.832,948.19,1688.092z"/>

			<!-- f -->
		<path id="safe-f" class="safe" fill="#010101" d="M1012.575,1632.4v51.82c0,7.344,0.805,11.996,2.412,13.943c2.123,2.521,4.964,3.785,8.523,3.785h7.145v3.1
			h-47.086v-3.1h3.531c2.293,0,4.389-0.568,6.28-1.721c1.894-1.146,3.198-2.697,3.917-4.65c0.719-1.947,1.076-5.732,1.076-11.357
			v-51.82h-15.322v-6.201h15.322v-5.162c0-7.863,1.264-14.52,3.787-19.977c2.525-5.447,6.383-9.85,11.578-13.209
			c5.193-3.355,11.031-5.039,17.52-5.039c6.022,0,11.561,1.959,16.613,5.857c3.325,2.582,4.99,5.482,4.99,8.697
			c0,1.721-0.746,3.34-2.238,4.855c-1.49,1.523-3.096,2.287-4.818,2.287c-1.324,0-2.713-0.475-4.178-1.418
			c-1.463-0.951-3.256-2.99-5.375-6.113c-2.125-3.129-4.078-5.24-5.856-6.324c-1.778-1.092-3.759-1.641-5.942-1.641
			c-2.637,0-4.875,0.707-6.712,2.109c-1.838,1.404-3.157,3.588-3.958,6.543c-0.803,2.959-1.209,10.574-1.209,22.854v5.68h20.317
			v6.201H1012.575z"/>

			<!-- e -->
		<path id="safe-e" class="safe" fill="#010101" d="M1053.724,1655.9c-0.059,11.707,2.785,20.891,8.523,27.541c5.737,6.66,12.481,9.988,20.229,9.988
			c5.164,0,9.654-1.42,13.471-4.264c3.816-2.84,7.016-7.705,9.598-14.59l2.668,1.725c-1.204,7.861-4.707,15.02-10.502,21.477
			c-5.795,6.451-13.055,9.686-21.777,9.686c-9.467,0-17.574-3.689-24.316-11.068c-6.742-7.373-10.113-17.285-10.113-29.738
			c0-13.48,3.455-23.996,10.369-31.547c6.917-7.545,15.596-11.316,26.039-11.316c8.838,0,16.1,2.912,21.779,8.732
			c5.684,5.828,8.521,13.621,8.521,23.375H1053.724z M1053.724,1650.91h36.498c-0.288-5.053-0.892-8.609-1.807-10.68
			c-1.438-3.211-3.572-5.734-6.414-7.572c-2.84-1.836-5.809-2.758-8.91-2.758c-4.762,0-9.023,1.852-12.783,5.553
			C1056.55,1639.158,1054.356,1644.305,1053.724,1650.91z"/>

			<!-- . -->
		<path fill="#010101" d="M1149.456,1677.58c4.438,0,8.165,1.535,11.186,4.598c3.021,3.07,4.533,6.783,4.533,11.117
			c0,4.344-1.535,8.049-4.601,11.119c-3.069,3.066-6.776,4.604-11.118,4.604s-8.049-1.537-11.115-4.604
			c-3.068-3.07-4.602-6.775-4.602-11.119c0-4.436,1.533-8.164,4.602-11.184C1141.407,1679.088,1145.114,1677.58,1149.456,1677.58z"
			/>

			<!-- S -->
		<path fill="#010101" d="M1266.534,1585.658v40.369h-3.18c-1.035-7.75-2.889-13.914-5.554-18.504
			c-2.669-4.59-6.472-8.238-11.409-10.936c-4.936-2.695-10.041-4.045-15.318-4.045c-5.971,0-10.906,1.826-14.807,5.467
			c-3.904,3.643-5.854,7.793-5.854,12.439c0,3.557,1.234,6.801,3.701,9.725c3.559,4.309,12.022,10.049,25.393,17.217
			c10.905,5.85,18.352,10.346,22.34,13.471c3.987,3.133,7.058,6.816,9.209,11.057c2.154,4.25,3.229,8.701,3.229,13.35
			c0,8.84-3.433,16.455-10.288,22.852c-6.857,6.402-15.68,9.6-26.467,9.6c-3.389,0-6.572-0.256-9.559-0.777
			c-1.775-0.285-5.465-1.332-11.061-3.141c-5.596-1.807-9.139-2.711-10.63-2.711c-1.435,0-2.569,0.434-3.399,1.289
			c-0.834,0.865-1.451,2.643-1.854,5.34h-3.183v-40.027h3.183c1.494,8.379,3.502,14.648,6.026,18.811
			c2.526,4.16,6.386,7.611,11.579,10.369c5.193,2.76,10.889,4.133,17.086,4.133c7.174,0,12.84-1.895,17.002-5.68
			c4.157-3.789,6.242-8.266,6.242-13.43c0-2.871-0.791-5.766-2.367-8.689c-1.582-2.928-4.033-5.654-7.362-8.184
			c-2.237-1.719-8.35-5.379-18.335-10.975c-9.987-5.596-17.086-10.053-21.305-13.387c-4.217-3.322-7.418-7.002-9.598-11.014
			c-2.184-4.021-3.27-8.436-3.27-13.262c0-8.373,3.212-15.59,9.641-21.641c6.428-6.057,14.604-9.086,24.531-9.086
			c6.201,0,12.771,1.52,19.714,4.563c3.214,1.436,5.479,2.15,6.8,2.15c1.492,0,2.714-0.445,3.66-1.334
			c0.943-0.889,1.703-2.684,2.281-5.379H1266.534z"/>

			<!-- u -->
		<path fill="#010101" d="M1358.386,1626.199v47.773c0,9.129,0.213,14.703,0.644,16.746c0.431,2.037,1.12,3.459,2.065,4.258
			c0.947,0.807,2.052,1.211,3.314,1.211c1.779,0,3.787-0.49,6.024-1.467l1.206,3.016l-23.586,9.727h-3.872v-16.703
			c-6.774,7.346-11.937,11.965-15.495,13.861c-3.559,1.893-7.315,2.842-11.275,2.842c-4.42,0-8.252-1.275-11.492-3.832
			c-3.244-2.557-5.498-5.838-6.758-9.857c-1.264-4.018-1.895-9.697-1.895-17.041v-35.213c0-3.727-0.4-6.305-1.205-7.746
			c-0.807-1.434-1.992-2.537-3.57-3.311c-1.58-0.773-4.436-1.137-8.568-1.078v-3.186h27.635v52.768
			c0,7.348,1.275,12.166,3.829,14.463c2.554,2.299,5.64,3.441,9.253,3.441c2.469,0,5.266-0.773,8.395-2.326
			c3.127-1.545,6.842-4.498,11.147-8.863v-44.676c0-4.475-0.817-7.502-2.456-9.078c-1.635-1.58-5.034-2.428-10.201-2.543v-3.186
			H1358.386z"/>

			<!-- s -->
		<path fill="#010101" d="M1428.367,1623.879v26.857h-2.841c-2.183-8.436-4.98-14.174-8.393-17.221
			c-3.416-3.037-7.763-4.561-13.042-4.561c-4.017,0-7.261,1.061-9.726,3.188c-2.47,2.121-3.703,4.473-3.703,7.059
			c0,3.211,0.916,5.963,2.754,8.264c1.781,2.352,5.398,4.846,10.846,7.488l12.57,6.113c11.648,5.68,17.475,13.166,17.475,22.461
			c0,7.178-2.713,12.955-8.137,17.35c-5.422,4.389-11.49,6.586-18.205,6.586c-4.822,0-10.328-0.865-16.529-2.584
			c-1.892-0.572-3.443-0.861-4.646-0.861c-1.32,0-2.353,0.746-3.1,2.238h-2.84v-28.148h2.84c1.604,8.035,4.676,14.09,9.212,18.162
			c4.534,4.076,9.61,6.109,15.236,6.109c3.961,0,7.188-1.16,9.684-3.484c2.497-2.32,3.743-5.121,3.743-8.391
			c0-3.961-1.393-7.289-4.172-9.988c-2.787-2.697-8.34-6.109-16.659-10.238c-8.319-4.137-13.772-7.863-16.354-11.193
			c-2.58-3.27-3.873-7.4-3.873-12.398c0-6.482,2.224-11.9,6.67-16.268c4.447-4.359,10.201-6.539,17.258-6.539
			c3.102,0,6.859,0.658,11.279,1.98c2.926,0.859,4.879,1.291,5.852,1.291c0.916,0,1.635-0.199,2.154-0.604
			c0.516-0.4,1.12-1.297,1.807-2.668H1428.367z"/>

			<!-- t -->
		<path fill="#010101" d="M1468.91,1600.293v25.906h18.422v6.027h-18.422v51.129c0,5.111,0.731,8.555,2.196,10.334
			c1.461,1.777,3.34,2.664,5.637,2.664c1.896,0,3.729-0.582,5.51-1.76c1.776-1.18,3.156-2.914,4.131-5.211h3.358
			c-2.011,5.629-4.851,9.857-8.521,12.697c-3.676,2.842-7.463,4.258-11.363,4.258c-2.643,0-5.222-0.729-7.746-2.191
			c-2.527-1.467-4.392-3.561-5.6-6.285c-1.201-2.727-1.805-6.928-1.805-12.607v-53.027h-12.484v-2.842
			c3.158-1.258,6.389-3.4,9.688-6.41c3.299-3.014,6.238-6.59,8.822-10.719c1.32-2.176,3.154-6.168,5.508-11.963H1468.91z"/>

			<!-- a -->
		<path fill="#010101" d="M1539.667,1693.689c-8.092,6.254-13.17,9.871-15.235,10.846c-3.099,1.428-6.399,2.152-9.899,2.152
			c-5.452,0-9.941-1.867-13.47-5.598c-3.53-3.729-5.296-8.635-5.296-14.719c0-3.846,0.861-7.174,2.583-9.984
			c2.353-3.904,6.442-7.576,12.267-11.021c5.821-3.447,15.508-7.629,29.051-12.563v-3.104c0-7.861-1.244-13.252-3.744-16.184
			c-2.497-2.922-6.129-4.389-10.891-4.389c-3.615,0-6.486,0.977-8.607,2.928c-2.184,1.949-3.271,4.189-3.271,6.711l0.172,4.996
			c0,2.639-0.674,4.674-2.021,6.115c-1.348,1.43-3.113,2.146-5.291,2.146c-2.125,0-3.861-0.744-5.209-2.24
			c-1.352-1.488-2.025-3.525-2.025-6.109c0-4.936,2.527-9.467,7.576-13.6c5.05-4.129,12.139-6.195,21.263-6.195
			c7.002,0,12.737,1.178,17.216,3.527c3.389,1.781,5.882,4.561,7.486,8.35c1.035,2.471,1.551,7.521,1.551,15.154v26.768
			c0,7.518,0.143,12.123,0.434,13.816c0.285,1.695,0.758,2.824,1.419,3.396c0.655,0.576,1.421,0.863,2.279,0.863
			c0.919,0,1.724-0.199,2.411-0.604c1.207-0.744,3.528-2.84,6.972-6.283v4.822c-6.429,8.607-12.565,12.908-18.419,12.908
			c-2.816,0-5.055-0.975-6.715-2.928C1540.585,1701.725,1539.724,1698.393,1539.667,1693.689z M1539.667,1688.092v-30.037
			c-8.668,3.443-14.262,5.881-16.786,7.311c-4.532,2.529-7.776,5.166-9.728,7.92c-1.949,2.754-2.927,5.773-2.927,9.041
			c0,4.133,1.235,7.561,3.702,10.285c2.467,2.727,5.308,4.088,8.523,4.088C1526.812,1696.699,1532.55,1693.832,1539.667,1688.092z"
			/>

			<!-- i -->
		<path fill="#010101" d="M1600.438,1623.879v63.354c0,4.934,0.359,8.219,1.078,9.854c0.717,1.637,1.775,2.857,3.184,3.66
			c1.404,0.807,3.973,1.203,7.703,1.203v3.1H1574.1v-3.1c3.844,0,6.427-0.371,7.745-1.121c1.32-0.738,2.367-1.979,3.145-3.695
			c0.773-1.729,1.159-5.021,1.159-9.9v-30.387c0-8.551-0.257-14.088-0.772-16.615c-0.402-1.838-1.033-3.113-1.898-3.83
			c-0.855-0.717-2.035-1.078-3.525-1.078c-1.607,0-3.557,0.434-5.853,1.293l-1.206-3.1l23.756-9.637H1600.438z M1593.294,1582.643
			c2.412,0,4.46,0.852,6.154,2.541c1.693,1.695,2.541,3.744,2.541,6.154c0,2.414-0.848,4.479-2.541,6.199
			c-1.694,1.721-3.742,2.58-6.154,2.58c-2.408,0-4.475-0.859-6.195-2.58c-1.723-1.721-2.586-3.785-2.586-6.199
			c0-2.41,0.848-4.459,2.542-6.154C1588.749,1583.494,1590.825,1582.643,1593.294,1582.643z"/>

			<!-- n -->
		<path fill="#010101" d="M1645.202,1640.574c9.237-11.129,18.045-16.695,26.426-16.695c4.304,0,8.001,1.074,11.105,3.227
			c3.096,2.15,5.563,5.693,7.401,10.629c1.263,3.449,1.894,8.729,1.894,15.842v33.656c0,4.99,0.401,8.377,1.205,10.156
			c0.631,1.438,1.647,2.555,3.055,3.357c1.404,0.807,4.004,1.203,7.789,1.203v3.1h-38.992v-3.1h1.636
			c3.669,0,6.24-0.561,7.702-1.676c1.467-1.119,2.485-2.77,3.057-4.949c0.23-0.859,0.344-3.555,0.344-8.092v-32.279
			c0-7.174-0.934-12.381-2.797-15.625c-1.865-3.242-5.006-4.863-9.423-4.863c-6.833,0-13.636,3.732-20.401,11.191v41.576
			c0,5.336,0.313,8.637,0.947,9.9c0.801,1.664,1.906,2.883,3.313,3.658c1.404,0.77,4.262,1.158,8.564,1.158v3.1h-38.994v-3.1h1.723
			c4.016,0,6.726-1.016,8.136-3.055c1.404-2.033,2.108-5.922,2.108-11.662v-29.268c0-9.473-0.217-15.236-0.648-17.305
			c-0.432-2.064-1.09-3.469-1.979-4.213c-0.892-0.75-2.08-1.125-3.573-1.125c-1.605,0-3.528,0.434-5.767,1.293l-1.289-3.1
			l23.758-9.637h3.701V1640.574z"/>

			<!-- a -->
		<path fill="#010101" d="M1755.037,1693.689c-8.091,6.254-13.167,9.871-15.234,10.846c-3.097,1.428-6.399,2.152-9.897,2.152
			c-5.457,0-9.943-1.867-13.473-5.598c-3.529-3.729-5.295-8.635-5.295-14.719c0-3.846,0.859-7.174,2.583-9.984
			c2.353-3.904,6.438-7.576,12.266-11.021c5.825-3.447,15.508-7.629,29.051-12.563v-3.104c0-7.861-1.247-13.252-3.744-16.184
			c-2.493-2.922-6.126-4.389-10.888-4.389c-3.615,0-6.484,0.977-8.607,2.928c-2.183,1.949-3.271,4.189-3.271,6.711l0.173,4.996
			c0,2.639-0.677,4.674-2.024,6.115c-1.35,1.43-3.113,2.146-5.294,2.146c-2.123,0-3.856-0.744-5.209-2.24
			c-1.345-1.488-2.022-3.525-2.022-6.109c0-4.936,2.525-9.467,7.576-13.6c5.051-4.129,12.138-6.195,21.264-6.195
			c7.002,0,12.736,1.178,17.213,3.527c3.387,1.781,5.881,4.561,7.488,8.35c1.033,2.471,1.549,7.521,1.549,15.154v26.768
			c0,7.518,0.146,12.123,0.434,13.816c0.287,1.695,0.76,2.824,1.423,3.396c0.655,0.576,1.418,0.863,2.278,0.863
			c0.92,0,1.719-0.199,2.41-0.604c1.207-0.744,3.529-2.84,6.972-6.283v4.822c-6.427,8.607-12.569,12.908-18.419,12.908
			c-2.814,0-5.053-0.975-6.716-2.928C1755.956,1701.725,1755.094,1698.393,1755.037,1693.689z M1755.037,1688.092v-30.037
			c-8.665,3.443-14.258,5.881-16.782,7.311c-4.537,2.529-7.778,5.166-9.729,7.92c-1.953,2.754-2.927,5.773-2.927,9.041
			c0,4.133,1.233,7.561,3.704,10.285c2.466,2.727,5.306,4.088,8.52,4.088C1742.185,1696.699,1747.921,1693.832,1755.037,1688.092z"
			/>

			<!-- b -->
		<path fill="#010101" d="M1810.214,1639.801c7.629-10.613,15.867-15.922,24.707-15.922c8.092,0,15.145,3.457,21.172,10.367
			c6.025,6.916,9.039,16.375,9.039,28.367c0,14.006-4.65,25.279-13.945,33.826c-7.98,7.352-16.871,11.023-26.686,11.023
			c-4.59,0-9.254-0.836-13.984-2.498c-4.736-1.666-9.571-4.164-14.504-7.49v-81.688c0-8.955-0.216-14.461-0.646-16.529
			c-0.43-2.063-1.105-3.471-2.023-4.221c-0.918-0.742-2.066-1.115-3.443-1.115c-1.606,0-3.613,0.463-6.023,1.379l-1.207-3.014
			l23.676-9.645h3.869V1639.801z M1810.214,1645.311v47.176c2.926,2.865,5.953,5.033,9.084,6.494
			c3.125,1.465,6.324,2.195,9.596,2.195c5.221,0,10.084-2.869,14.586-8.607c4.508-5.74,6.762-14.088,6.762-25.049
			c0-10.098-2.254-17.865-6.762-23.287c-4.502-5.42-9.625-8.131-15.357-8.131c-3.049,0-6.088,0.773-9.131,2.324
			C1816.696,1639.574,1813.772,1641.869,1810.214,1645.311z"/>

			<!-- l -->
		<path fill="#010101" d="M1903.868,1582.643v104.59c0,4.934,0.359,8.205,1.076,9.813c0.719,1.607,1.822,2.824,3.314,3.66
			c1.492,0.834,4.273,1.244,8.35,1.244v3.1h-38.648v-3.1c3.611,0,6.08-0.371,7.4-1.121c1.322-0.738,2.352-1.979,3.102-3.695
			c0.742-1.729,1.119-5.021,1.119-9.9v-71.617c0-8.893-0.205-14.361-0.605-16.4c-0.404-2.035-1.047-3.428-1.932-4.178
			c-0.895-0.742-2.031-1.115-3.402-1.115c-1.494,0-3.387,0.463-5.682,1.379l-1.465-3.014l23.502-9.645H1903.868z"/>

			<!-- e -->
		<path fill="#010101" d="M1938.989,1655.9c-0.057,11.707,2.783,20.891,8.523,27.541c5.732,6.66,12.48,9.988,20.229,9.988
			c5.164,0,9.65-1.42,13.471-4.264c3.813-2.84,7.016-7.705,9.598-14.59l2.662,1.725c-1.199,7.861-4.703,15.02-10.494,21.477
			c-5.803,6.451-13.061,9.686-21.781,9.686c-9.471,0-17.574-3.689-24.314-11.068c-6.746-7.373-10.119-17.285-10.119-29.738
			c0-13.48,3.461-23.996,10.375-31.547c6.914-7.545,15.594-11.316,26.037-11.316c8.84,0,16.102,2.912,21.785,8.732
			c5.678,5.828,8.512,13.621,8.512,23.375H1938.989z M1938.989,1650.91h36.496c-0.287-5.053-0.889-8.609-1.807-10.68
			c-1.438-3.211-3.572-5.734-6.414-7.572c-2.838-1.836-5.805-2.758-8.91-2.758c-4.764,0-9.021,1.852-12.783,5.553
			C1941.813,1639.158,1939.62,1644.305,1938.989,1650.91z"/>

			<!-- . -->
		<path fill="#010101" d="M2034.72,1677.58c4.436,0,8.168,1.535,11.186,4.598c3.021,3.07,4.533,6.783,4.533,11.117
			c0,4.344-1.533,8.049-4.6,11.119c-3.074,3.066-6.775,4.604-11.119,4.604s-8.049-1.537-11.117-4.604
			c-3.066-3.07-4.602-6.775-4.602-11.119c0-4.436,1.535-8.164,4.602-11.184C2026.671,1679.088,2030.376,1677.58,2034.72,1677.58z"/>

			<!-- S -->
		<path fill="#010101" d="M2151.8,1585.658v40.369h-3.184c-1.035-7.75-2.883-13.914-5.551-18.504
			c-2.67-4.59-6.473-8.238-11.404-10.936c-4.939-2.695-10.047-4.045-15.326-4.045c-5.965,0-10.904,1.826-14.805,5.467
			c-3.906,3.643-5.854,7.793-5.854,12.439c0,3.557,1.234,6.801,3.703,9.725c3.555,4.309,12.02,10.049,25.396,17.217
			c10.895,5.85,18.344,10.346,22.334,13.471c3.986,3.133,7.059,6.816,9.211,11.057c2.152,4.25,3.225,8.701,3.225,13.35
			c0,8.84-3.428,16.455-10.289,22.852c-6.854,6.402-15.674,9.6-26.463,9.6c-3.391,0-6.576-0.256-9.559-0.777
			c-1.779-0.285-5.463-1.332-11.061-3.141c-5.598-1.807-9.139-2.711-10.629-2.711c-1.438,0-2.57,0.434-3.4,1.289
			c-0.832,0.865-1.447,2.643-1.852,5.34h-3.186v-40.027h3.186c1.494,8.379,3.504,14.648,6.025,18.811
			c2.525,4.16,6.383,7.611,11.578,10.369c5.189,2.76,10.893,4.133,17.086,4.133c7.172,0,12.838-1.895,17.004-5.68
			c4.16-3.789,6.238-8.266,6.238-13.43c0-2.871-0.791-5.766-2.361-8.689c-1.586-2.928-4.039-5.654-7.359-8.184
			c-2.244-1.719-8.355-5.379-18.34-10.975c-9.986-5.596-17.088-10.053-21.307-13.387c-4.217-3.322-7.416-7.002-9.6-11.014
			c-2.184-4.021-3.266-8.436-3.266-13.262c0-8.373,3.209-15.59,9.637-21.641c6.43-6.057,14.605-9.086,24.535-9.086
			c6.197,0,12.77,1.52,19.713,4.563c3.213,1.436,5.48,2.15,6.799,2.15c1.492,0,2.711-0.445,3.656-1.334
			c0.949-0.889,1.709-2.684,2.283-5.379H2151.8z"/>

			<!-- t -->
		<path fill="#010101" d="M2197.425,1600.293v25.906h18.418v6.027h-18.418v51.129c0,5.111,0.732,8.555,2.191,10.334
			c1.469,1.777,3.346,2.664,5.641,2.664c1.895,0,3.729-0.582,5.508-1.76c1.779-1.18,3.16-2.914,4.133-5.211h3.359
			c-2.008,5.629-4.854,9.857-8.525,12.697c-3.668,2.842-7.457,4.258-11.361,4.258c-2.635,0-5.219-0.729-7.744-2.191
			c-2.527-1.467-4.393-3.561-5.6-6.285c-1.201-2.727-1.805-6.928-1.805-12.607v-53.027h-12.48v-2.842
			c3.148-1.258,6.385-3.4,9.68-6.41c3.305-3.014,6.246-6.59,8.824-10.719c1.322-2.176,3.156-6.168,5.508-11.963H2197.425z"/>

			<!-- r -->
		<path fill="#010101" d="M2246.573,1623.879v17.734c6.598-11.826,13.377-17.734,20.314-17.734c3.158,0,5.77,0.961,7.838,2.881
			c2.068,1.926,3.102,4.146,3.102,6.67c0,2.242-0.752,4.137-2.246,5.684c-1.496,1.547-3.271,2.322-5.336,2.322
			c-2.008,0-4.256-0.986-6.758-2.969c-2.498-1.979-4.344-2.967-5.549-2.967c-1.035,0-2.152,0.572-3.361,1.717
			c-2.582,2.357-5.248,6.227-8.004,11.623v37.789c0,4.363,0.553,7.66,1.637,9.9c0.744,1.551,2.066,2.842,3.961,3.869
			c1.893,1.033,4.619,1.551,8.174,1.551v3.1h-40.365v-3.1c4.016,0,6.994-0.627,8.951-1.887c1.432-0.92,2.439-2.385,3.012-4.395
			c0.287-0.977,0.428-3.758,0.428-8.35v-30.559c0-9.182-0.186-14.648-0.559-16.396c-0.373-1.75-1.063-3.025-2.064-3.832
			c-1.006-0.803-2.25-1.209-3.742-1.209c-1.783,0-3.791,0.434-6.025,1.293l-0.861-3.1l23.842-9.637H2246.573z"/>

			<!-- u -->
		<path fill="#010101" d="M2351.335,1626.199v47.773c0,9.129,0.211,14.703,0.645,16.746c0.436,2.037,1.119,3.459,2.066,4.258
			c0.945,0.807,2.053,1.211,3.314,1.211c1.783,0,3.785-0.49,6.025-1.467l1.205,3.016l-23.586,9.727h-3.875v-16.703
			c-6.768,7.346-11.934,11.965-15.492,13.861c-3.561,1.893-7.318,2.842-11.281,2.842c-4.414,0-8.244-1.275-11.484-3.832
			c-3.244-2.557-5.5-5.838-6.762-9.857c-1.264-4.018-1.891-9.697-1.891-17.041v-35.213c0-3.727-0.406-6.305-1.211-7.746
			c-0.801-1.434-1.994-2.537-3.566-3.311c-1.578-0.773-4.436-1.137-8.568-1.078v-3.186h27.635v52.768
			c0,7.348,1.277,12.166,3.824,14.463c2.557,2.299,5.645,3.441,9.258,3.441c2.469,0,5.264-0.773,8.395-2.326
			c3.129-1.545,6.84-4.498,11.145-8.863v-44.676c0-4.475-0.816-7.502-2.451-9.078c-1.639-1.58-5.037-2.428-10.201-2.543v-3.186
			H2351.335z"/>

			<!-- c -->
		<path fill="#010101" d="M2437.327,1675.094c-2.123,10.387-6.285,18.379-12.48,23.977c-6.197,5.59-13.057,8.393-20.576,8.393
			c-8.949,0-16.756-3.76-23.41-11.275c-6.658-7.521-9.986-17.676-9.986-30.477c0-12.395,3.686-22.471,11.061-30.211
			c7.371-7.748,16.225-11.621,26.559-11.621c7.742,0,14.111,2.047,19.105,6.15c4.992,4.105,7.488,8.363,7.488,12.787
			c0,2.182-0.699,3.943-2.107,5.293c-1.404,1.348-3.369,2.021-5.893,2.021c-3.387,0-5.939-1.092-7.666-3.275
			c-0.975-1.199-1.621-3.494-1.934-6.885c-0.314-3.381-1.477-5.967-3.49-7.744c-2.006-1.721-4.793-2.58-8.348-2.58
			c-5.736,0-10.359,2.125-13.859,6.367c-4.646,5.627-6.975,13.057-6.975,22.297c0,9.408,2.314,17.721,6.932,24.918
			c4.619,7.199,10.861,10.805,18.719,10.805c5.627,0,10.682-1.922,15.158-5.766c3.15-2.646,6.225-7.432,9.209-14.379
			L2437.327,1675.094z"/>

			<!-- t -->
		<path fill="#010101" d="M2471.501,1600.293v25.906h18.42v6.027h-18.42v51.129c0,5.111,0.729,8.555,2.195,10.334
			c1.461,1.777,3.338,2.664,5.635,2.664c1.898,0,3.734-0.582,5.506-1.76c1.781-1.18,3.162-2.914,4.135-5.211h3.361
			c-2.01,5.629-4.85,9.857-8.521,12.697c-3.674,2.842-7.461,4.258-11.369,4.258c-2.633,0-5.217-0.729-7.742-2.191
			c-2.527-1.467-4.391-3.561-5.594-6.285c-1.201-2.727-1.811-6.928-1.811-12.607v-53.027h-12.482v-2.842
			c3.158-1.258,6.387-3.4,9.686-6.41c3.301-3.014,6.244-6.59,8.822-10.719c1.32-2.176,3.152-6.168,5.516-11.963H2471.501z"/>

			<!-- u -->
		<path fill="#010101" d="M2566.704,1626.199v47.773c0,9.129,0.217,14.703,0.646,16.746c0.43,2.037,1.117,3.459,2.068,4.258
			c0.947,0.807,2.049,1.211,3.313,1.211c1.777,0,3.785-0.49,6.025-1.467l1.203,3.016l-23.582,9.727h-3.877v-16.703
			c-6.771,7.346-11.936,11.965-15.494,13.861c-3.563,1.893-7.318,2.842-11.275,2.842c-4.424,0-8.25-1.275-11.494-3.832
			c-3.24-2.557-5.492-5.838-6.756-9.857c-1.266-4.018-1.891-9.697-1.891-17.041v-35.213c0-3.727-0.404-6.305-1.207-7.746
			c-0.805-1.434-1.996-2.537-3.572-3.311c-1.578-0.773-4.432-1.137-8.568-1.078v-3.186h27.633v52.768
			c0,7.348,1.277,12.166,3.832,14.463c2.553,2.299,5.639,3.441,9.252,3.441c2.471,0,5.266-0.773,8.395-2.326
			c3.127-1.545,6.842-4.498,11.146-8.863v-44.676c0-4.475-0.811-7.502-2.453-9.078c-1.637-1.58-5.033-2.428-10.199-2.543v-3.186
			H2566.704z"/>

			<!-- r -->
		<path fill="#010101" d="M2608.796,1623.879v17.734c6.6-11.826,13.373-17.734,20.318-17.734c3.154,0,5.766,0.961,7.832,2.881
			c2.064,1.926,3.102,4.146,3.102,6.67c0,2.242-0.746,4.137-2.242,5.684c-1.492,1.547-3.268,2.322-5.336,2.322
			c-2.01,0-4.262-0.986-6.756-2.969c-2.496-1.979-4.346-2.967-5.555-2.967c-1.031,0-2.15,0.572-3.352,1.717
			c-2.586,2.357-5.252,6.227-8.012,11.623v37.789c0,4.363,0.547,7.66,1.635,9.9c0.744,1.551,2.066,2.842,3.961,3.869
			c1.895,1.033,4.623,1.551,8.18,1.551v3.1H2582.2v-3.1c4.016,0,7-0.627,8.955-1.887c1.43-0.92,2.436-2.385,3.008-4.395
			c0.287-0.977,0.43-3.758,0.43-8.35v-30.559c0-9.182-0.186-14.648-0.555-16.396c-0.377-1.75-1.064-3.025-2.068-3.832
			c-1.006-0.803-2.248-1.209-3.742-1.209c-1.783,0-3.791,0.434-6.027,1.293l-0.861-3.1l23.842-9.637H2608.796z"/>

			<!-- e -->
		<path fill="#010101" d="M2657.688,1655.9c-0.053,11.707,2.787,20.891,8.527,27.541c5.734,6.66,12.482,9.988,20.227,9.988
			c5.16,0,9.654-1.42,13.471-4.264c3.816-2.84,7.018-7.705,9.6-14.59l2.668,1.725c-1.207,7.861-4.707,15.02-10.504,21.477
			c-5.797,6.451-13.055,9.686-21.777,9.686c-9.469,0-17.576-3.689-24.318-11.068c-6.742-7.373-10.113-17.285-10.113-29.738
			c0-13.48,3.455-23.996,10.375-31.547c6.91-7.545,15.594-11.316,26.041-11.316c8.834,0,16.092,2.912,21.773,8.732
			c5.68,5.828,8.523,13.621,8.523,23.375H2657.688z M2657.688,1650.91h36.498c-0.283-5.053-0.887-8.609-1.805-10.68
			c-1.432-3.211-3.572-5.734-6.414-7.572c-2.838-1.836-5.811-2.758-8.906-2.758c-4.768,0-9.025,1.852-12.783,5.553
			C2660.517,1639.158,2658.321,1644.305,2657.688,1650.91z"/>

			<!-- s -->
		<path fill="#010101" d="M2773.642,1623.879v26.857h-2.842c-2.182-8.436-4.977-14.174-8.395-17.221
			c-3.414-3.037-7.76-4.561-13.037-4.561c-4.016,0-7.266,1.061-9.727,3.188c-2.469,2.121-3.707,4.473-3.707,7.059
			c0,3.211,0.924,5.963,2.758,8.264c1.777,2.352,5.395,4.846,10.848,7.488l12.566,6.113c11.648,5.68,17.475,13.166,17.475,22.461
			c0,7.178-2.711,12.955-8.135,17.35c-5.422,4.389-11.494,6.586-18.209,6.586c-4.818,0-10.324-0.865-16.525-2.584
			c-1.893-0.572-3.439-0.861-4.645-0.861c-1.32,0-2.355,0.746-3.104,2.238h-2.84v-28.148h2.84c1.607,8.035,4.678,14.09,9.213,18.162
			c4.533,4.076,9.607,6.109,15.234,6.109c3.961,0,7.189-1.16,9.684-3.484c2.5-2.32,3.746-5.121,3.746-8.391
			c0-3.961-1.391-7.289-4.172-9.988c-2.787-2.697-8.338-6.109-16.66-10.238c-8.32-4.137-13.77-7.863-16.354-11.193
			c-2.582-3.27-3.873-7.4-3.873-12.398c0-6.482,2.227-11.9,6.67-16.268c4.449-4.359,10.199-6.539,17.26-6.539
			c3.102,0,6.855,0.658,11.273,1.98c2.932,0.859,4.875,1.291,5.855,1.291c0.92,0,1.637-0.199,2.15-0.604
			c0.516-0.4,1.125-1.297,1.809-2.668H2773.642z"/>

			<!-- . -->
		<path fill="#010101" d="M2807.808,1688.35c2.703,0,4.973,0.938,6.807,2.801c1.838,1.863,2.754,4.117,2.754,6.752
			c0,2.646-0.932,4.896-2.797,6.758c-1.865,1.865-4.119,2.803-6.764,2.803c-2.631,0-4.889-0.938-6.754-2.803
			c-1.865-1.861-2.799-4.111-2.799-6.758c0-2.693,0.934-4.957,2.799-6.799C2802.919,1689.271,2805.177,1688.35,2807.808,1688.35z"/>
	</g>
	<g>
		<g>
			<!-- BIG S -->
			<g>
				<path fill="#010101" d="M1864.956,808.063v245.867h-19.379c-6.313-47.177-17.557-84.742-33.819-112.713
					c-16.269-27.947-39.401-50.139-69.47-66.566c-30.07-16.427-61.149-24.654-93.314-24.654c-36.332,0-66.402,11.104-90.158,33.296
					c-23.78,22.197-35.644,47.45-35.644,75.757c0,21.671,7.512,41.417,22.534,59.237c21.682,26.205,73.197,61.159,154.648,104.836
					c66.38,35.656,111.747,63.005,136.031,82.058c24.283,19.044,42.992,41.506,56.102,67.361
					c13.111,25.848,19.652,52.949,19.652,81.264c0,53.811-20.895,100.193-62.643,139.166
					c-41.772,38.973-95.506,58.441-161.191,58.441c-20.646,0-40.024-1.568-58.201-4.701c-10.83-1.773-33.293-8.119-67.371-19.135
					c-34.053-11.027-55.645-16.52-64.743-16.52c-8.735,0-15.622,2.611-20.692,7.867c-5.066,5.221-8.824,16.07-11.269,32.488h-19.399
					v-243.768h19.399c9.08,51.043,21.315,89.219,36.703,114.551c15.369,25.338,38.872,46.395,70.507,63.184
					c31.611,16.773,66.31,25.158,104.049,25.158c43.688,0,78.203-11.541,103.547-34.607c25.322-23.072,37.994-50.305,37.994-81.783
					c0-17.473-4.813-35.115-14.424-52.922c-9.609-17.846-24.538-34.438-44.814-49.816c-13.615-10.482-50.851-32.773-111.653-66.854
					c-60.826-34.063-104.054-61.241-129.765-81.505c-25.667-20.261-45.16-42.639-58.433-67.093
					c-13.292-24.468-19.932-51.38-19.932-80.732c0-51.025,19.562-94.975,58.709-131.842c39.147-36.886,88.961-55.32,149.42-55.32
					c37.739,0,77.737,9.263,120.042,27.787c19.583,8.742,33.388,13.11,41.426,13.11c9.08,0,16.521-2.707,22.279-8.121
					c5.756-5.414,10.393-16.335,13.893-32.776H1864.956z"/>
			</g>

			<!-- Green container box -->
			<g>
				<polygon fill="#0B6D3A" points="2046.601,785.473 2034.421,788.422 2034.819,787.873 2018.583,792.078 2018.421,792.282
					1962.171,805.886 1962.171,919.731 1962.171,926.918 1962.171,1038.531 2046.601,1045.591 2047.093,1045.565 2047.093,785.686
									"/>
				<polygon fill="#0B6D3A" points="1885.304,1032.396 1955.509,1038.264 1955.509,927.189 1955.509,920.021 1955.509,807.771
					1885.304,824.727 1885.304,1032.396 				"/>
				<rect x="1935.567" y="920.021" fill="#3BB070" width="13.012" height="7.168"/>
				<polygon fill="#0B6D3A" points="2054.696,786.034 2054.696,1045.9 2188.54,1038.691 2188.54,1024.302 2188.54,852.64
					2188.54,837.399 				"/>
				<polygon fill="#3BB070" points="2092.646,1029.48 2067.46,1030.827 2067.46,806.167 2092.646,815.831 				"/>
				<polygon fill="#3BB070" points="2125.06,1027.733 2102.63,1028.953 2102.63,819.668 2125.06,828.269 				"/>
				<polygon fill="#3BB070" points="2153.12,1026.218 2135.021,1027.193 2135.021,832.106 2153.12,839.049 				"/>
				<polygon fill="#3BB070" points="2178.554,1024.842 2163.099,1025.668 2163.099,842.885 2178.554,848.794 				"/>
			</g>
		</g>
		<path fill="#F2F2F2" d="M2101.991,876.471c0,2.45,0.117,6.319,0.289,10.007V873.42
			C2101.991,874.607,2101.991,875.666,2101.991,876.471z"/>

		<!-- White number 3 -->
		<g>
			<g>
				<path fill="#F2F2F2" d="M2154.478,880.087c0-3.973-0.441-8.005-1.33-11.9v24.285
					C2153.978,888.661,2154.478,884.537,2154.478,880.087z"/>
				<path fill="#FFFFFF" d="M2152.073,902.412v-43.731l2.119,9.268c0.9,3.944,1.355,8.029,1.355,12.139
					c0,4.248-0.453,8.491-1.354,12.614L2152.073,902.412z"/>
			</g>
			<g>
				<path fill="#F2F2F2" d="M2153.147,933.195v56.107c3.389-8.155,5.279-18.029,5.279-29.093
					C2158.427,949.465,2156.282,940.487,2153.147,933.195z"/>
				<path fill="#FFFFFF" d="M2152.073,994.676v-66.688l2.059,4.784c3.563,8.284,5.369,17.516,5.369,27.438
					c0,10.86-1.855,21.062-5.361,29.504L2152.073,994.676z M2154.22,939.135v43.941c2.063-6.896,3.137-14.684,3.137-22.866
					C2157.356,952.734,2156.302,945.671,2154.22,939.135z"/>
			</g>
			<g>
				<path fill="#F2F2F2" d="M2091.694,989.83c0,0.334,0.008,0.66,0.021,0.986v-4.661
					C2091.7,987.394,2091.694,988.625,2091.694,989.83z"/>
				<path fill="#FFFFFF" d="M2090.644,990.858c-0.014-0.341-0.023-0.681-0.023-1.028c0-1.21,0.008-2.445,0.023-3.687l2.145,0.012
					v4.661L2090.644,990.858z"/>
			</g>
			<g>
				<path fill="#F2F2F2" d="M2102.124,955.285h-0.865c-1.926,0-8.24,0.741-8.818,10.243c-0.275,3.703-0.637,12.327-0.725,20.627
					v4.661c0.1,3.143,0.742,6.026,3.061,9.416l0.215,0.295c1.641,2.183,4.451,4.579,7.615,6.658v-51.799L2102.124,955.285z"/>
				<path fill="#FFFFFF" d="M2103.677,1009.173l-1.66-1.091c-3.426-2.251-6.225-4.705-7.883-6.911l-0.227-0.311
					c-2.723-3.983-3.178-7.294-3.264-10.008v-4.697c0.084-7.979,0.436-16.79,0.729-20.706c0.502-8.28,5.436-11.237,9.887-11.237
					l1.084,0.023l1.334,0.279V1009.173z M2101.259,956.356c-2.162,0-7.242,0.9-7.748,9.237c-0.291,3.897-0.641,12.648-0.723,20.573
					v4.649c0.078,2.494,0.484,5.314,2.873,8.811l0.199,0.273c1.211,1.613,3.232,3.474,5.674,5.243v-48.787H2101.259z"/>
			</g>
			<g>
				<path fill="#F2F2F2" d="M2122.78,989.284c-0.66,0-1.395-0.107-2.17-0.326c-2.342-0.649-9.451-2.627-10.461-23.135
					c-0.109-2.199-0.445-8.886-7.092-10.343l-0.451-0.094v51.799c3.164,2.075,6.68,3.835,9.744,4.742
					c3.174,0.937,6.352,1.412,9.453,1.412c0,0,0,0,0.006,0c1.102,0,2.182-0.064,3.25-0.18v-24.445
					C2124.054,989.277,2123.222,989.284,2122.78,989.284z"/>
				<path fill="#FFFFFF" d="M2121.81,1014.412h-0.006c-3.201,0-6.484-0.49-9.758-1.456c-3.059-0.906-6.619-2.637-10.029-4.874
					l-0.482-0.318v-53.695l1.744,0.361c4.949,1.085,7.617,4.898,7.943,11.336c0.969,19.746,7.523,21.562,9.676,22.158
					c0.676,0.191,1.311,0.287,1.883,0.287c0.369,0,0.986,0,1.758-0.432l1.594-0.891v27.234l-0.955,0.104
					C2124.007,1014.352,2122.905,1014.412,2121.81,1014.412z M2103.677,1006.602c3.055,1.949,6.301,3.505,8.977,4.3
					c3.078,0.906,6.154,1.366,9.15,1.366h0.006c0.717,0,1.436-0.026,2.18-0.085v-21.936c-0.535,0.108-0.959,0.108-1.209,0.108
					c-0.77,0-1.598-0.123-2.457-0.365c-2.52-0.698-10.197-2.826-11.244-24.114c-0.164-3.268-0.92-7.667-5.402-9.118V1006.602z"/>
			</g>
			<g>
				<path fill="#F2F2F2" d="M2116.112,909.891c-6.715,1.176-9.109,6.099-9.109,10.004c0,6.495,4.998,8.98,7.4,10.174l0.107,0.055
					c1.545,0.737,6.393,3.446,10.549,9.852v-39.51C2122.089,906.947,2117.812,909.469,2116.112,909.891z"/>
				<path fill="#FFFFFF" d="M2126.132,943.596l-1.971-3.037c-4.047-6.233-8.762-8.823-10.111-9.468l-0.127-0.063
					c-2.389-1.188-7.99-3.971-7.99-11.134c0-4.285,2.607-9.746,9.955-11.054c1.346-0.353,5.34-2.588,8.197-8.823l2.047-4.462
					V943.596z M2123.989,904.568c-2.822,4.161-6.041,5.971-7.617,6.362l-0.074,0.016c-6.068,1.064-8.223,5.485-8.223,8.948
					c0,5.835,4.426,8.033,6.807,9.213l0.109,0.058c1.244,0.594,5.17,2.732,8.998,7.498V904.568z"/>
			</g>
			<g>
				<path fill="#F2F2F2" d="M2135.026,843.433c-2.963-1.314-6.283-2.135-9.967-2.339v28.021c2.15,4.338,3.107,10.757,3.107,14.946
					c0,7.172-1.316,12.504-3.107,16.404v39.51c3.582,5.519,6.654,13.781,6.654,25.915c0,11.022-2.049,16.814-3.771,19.731
					c-1.004,1.702-2.008,2.607-2.883,3.094v24.445c3.535-0.381,6.869-1.372,9.967-2.904V843.433z"/>
				<path fill="#FFFFFF" d="M2123.989,1014.354v-26.269l0.549-0.307c0.877-0.49,1.713-1.398,2.482-2.702
					c1.65-2.8,3.621-8.398,3.621-19.188c0-10.185-2.18-18.707-6.48-25.331l-0.172-0.267v-40.061l0.096-0.214
					c1.996-4.351,3.008-9.719,3.008-15.957c0-4.058-0.936-10.317-2.994-14.471l-0.109-0.225v-29.406l1.131,0.063
					c3.689,0.205,7.172,1.022,10.342,2.431l0.637,0.282v168.186l-0.596,0.294c-3.252,1.61-6.727,2.623-10.326,3.012
					L2123.989,1014.354z M2126.132,989.307v22.635c2.711-0.406,5.334-1.197,7.824-2.359v-165.44
					c-2.434-1.001-5.057-1.636-7.824-1.895v26.62c2.145,4.477,3.105,10.824,3.105,15.193c0,6.447-1.045,12.044-3.105,16.637v38.962
					c4.416,6.938,6.656,15.76,6.656,26.23c0,11.273-2.135,17.249-3.924,20.275C2128.05,987.55,2127.132,988.604,2126.132,989.307z"
					/>
			</g>
			<g>
				<path fill="#F2F2F2" d="M2098.858,850.504c-3.695,3.715-3.695,7.478-3.695,9.733c0,4.785,0.34,13.693,0.756,19.802
					c0.414,6.738,4.262,8.815,6.688,9.455v-42.177C2101.241,848.286,2099.978,849.349,2098.858,850.504z"/>
				<path fill="#FFFFFF" d="M2103.677,890.884l-1.342-0.353c-2.602-0.685-7.027-2.95-7.484-10.428
					c-0.42-6.122-0.76-15.038-0.76-19.866c0-2.257,0-6.461,4.01-10.488c1.121-1.16,2.434-2.274,3.885-3.307l1.691-1.198V890.884z
					 M2101.534,849.491c-0.686,0.568-1.32,1.156-1.904,1.76c-3.395,3.411-3.395,6.767-3.395,8.986
					c0,4.788,0.338,13.639,0.754,19.729c0.295,4.808,2.416,7.015,4.545,8.008V849.491z"/>
			</g>
			<g>
				<path fill="#F2F2F2" d="M2123.239,841.038c-0.295,0-0.6,0.005-0.9,0.013c-7.336,0.193-14.385,2.479-19.732,6.267v42.177
					c0.793,0.208,1.438,0.266,1.758,0.279l0.383,0.008c3.049,0,8.816-2.167,8.816-10.372c0-8.758,2.418-14.902,5.955-14.938
					c2.361,0,4.189,1.909,5.541,4.644v-28.021C2124.464,841.059,2123.858,841.038,2123.239,841.038z"/>
				<path fill="#FFFFFF" d="M2104.747,890.854l-0.406-0.009c-0.375-0.016-1.102-0.075-2.006-0.313l-0.801-0.21v-43.558l0.451-0.321
					c5.607-3.971,12.824-6.267,20.324-6.464c0.932-0.022,1.801-0.013,2.811,0.044l1.012,0.057v33.618l-2.033-4.107
					c-1.328-2.687-2.869-4.048-4.58-4.048c-2.361,0.025-4.885,4.895-4.885,13.867
					C2114.634,888.462,2108.169,890.854,2104.747,890.854z M2103.677,888.625c0.348,0.055,0.604,0.071,0.734,0.077l0.348,0.008
					c2.682-0.007,7.73-1.954,7.73-9.301c0-9.681,2.754-15.966,7.018-16.012c1.25,0,2.883,0.442,4.482,2.178V842.12
					c-0.553-0.014-1.078-0.01-1.627,0.002c-6.875,0.182-13.486,2.223-18.686,5.757V888.625z"/>
			</g>
			<g>
				<path fill="#F2F2F2" d="M2153.147,868.187c-2.455-10.75-8.371-20.428-18.121-24.754v166.823
					c7.775-3.851,14.043-11.14,18.121-20.953v-56.107c-3.191-7.426-7.412-13.105-11.453-17.107
					c4.414-5.302,9.193-13.262,11.453-23.616V868.187z"/>
				<path fill="#FFFFFF" d="M2133.956,1011.982V841.785l1.506,0.668c9.262,4.109,15.914,13.164,18.73,25.495l0.027,0.238v24.401
					l-0.025,0.113c-2.33,10.685-7.178,18.477-11.061,23.318c3.266,3.373,7.605,8.862,10.998,16.752l0.088,0.202v56.543l-0.08,0.197
					c-4.207,10.111-10.65,17.546-18.637,21.501L2133.956,1011.982z M2136.099,845.143v163.327
					c6.758-3.862,12.254-10.524,15.975-19.383v-55.671c-3.482-8.025-7.973-13.435-11.135-16.566l-0.699-0.692l0.631-0.755
					c3.805-4.569,8.83-12.271,11.203-23.047V868.31C2149.556,857.401,2143.917,849.247,2136.099,845.143z"/>
			</g>
		</g>
	</g>
</g>
</svg>
