<?xml version="1.0" encoding="UTF-8" standalone="no"?>
<!-- Created with Inkscape (http://www.inkscape.org/) -->

<svg
   xmlns:dc="http://purl.org/dc/elements/1.1/"
   xmlns:cc="http://creativecommons.org/ns#"
   xmlns:rdf="http://www.w3.org/1999/02/22-rdf-syntax-ns#"
   xmlns:svg="http://www.w3.org/2000/svg"
   xmlns="http://www.w3.org/2000/svg"
   xmlns:sodipodi="http://sodipodi.sourceforge.net/DTD/sodipodi-0.dtd"
   xmlns:inkscape="http://www.inkscape.org/namespaces/inkscape"
   width="190"
   height="60"
   id="svg4226"
   version="1.1"
   inkscape:version="0.48.4 r9939"
   sodipodi:docname="button_lg.svg">
  <defs
     id="defs4228" />
  <sodipodi:namedview
     id="base"
     pagecolor="#ffffff"
     bordercolor="#666666"
     borderopacity="1.0"
     inkscape:pageopacity="0.0"
     inkscape:pageshadow="2"
     inkscape:zoom="3.959798"
     inkscape:cx="122.10641"
     inkscape:cy="8.2196956"
     inkscape:document-units="px"
     inkscape:current-layer="g7671"
     showgrid="false"
     inkscape:window-width="1918"
     inkscape:window-height="1030"
     inkscape:window-x="0"
     inkscape:window-y="0"
     inkscape:window-maximized="1" />
  <metadata
     id="metadata4231">
    <rdf:RDF>
      <cc:Work
         rdf:about="">
        <dc:format>image/svg+xml</dc:format>
        <dc:type
           rdf:resource="http://purl.org/dc/dcmitype/StillImage" />
        <dc:title />
      </cc:Work>
    </rdf:RDF>
  </metadata>
  <g
     inkscape:label="Capa 1"
     inkscape:groupmode="layer"
     id="capa1"
     transform="translate(0,-992.3622)">
    <g
       transform="translate(-873.57143,196.6479)"
       style="display:inline"
       id="g7671">
      <g
         style="fill:#000000;fill-opacity:1"
         transform="matrix(1.2976625,0,0,-1.4301451,1021.2624,847.82989)"
         id="g440" />
      <path
         style="fill:none;stroke:#424242;stroke-width:2;stroke-miterlimit:4;stroke-opacity:1;stroke-dasharray:none;display:inline"
         d="m 1060.5027,797.79498 c -2.6379,-2.0689 -18.8876,-0.94006 -29.197,-1.11834 -5.1993,-0.0431 -9.7931,-0.14235 -14.7603,0.0647 -45.11963,-0.87628 -93.93687,0.1511 -135.52494,-0.0919 -1.33654,0.0417 -3.73308,0.5873 -4.39916,1.34451 -0.9771,0.42434 -1.37475,1.73936 -2.0231,2.51543 -0.75381,3.74948 -0.0845,8.45509 -0.12691,13.06681 -0.042,4.5913 -0.40139,10.93923 -0.0302,14.82912 0.0745,4.12747 -0.20322,7.01225 -0.0359,11.46908 0.17798,4.27412 -0.41573,8.71674 1.01232,12.70527 0.27094,3.06622 19.51717,2.11471 27.2713,2.15019 26.95666,-0.0508 50.55389,-0.33165 74.84684,-0.33563 30.50225,0.14169 81.54275,1.95039 83.34585,-1.14323 2.9885,-1.49309 1.7637,-18.43106 1.8311,-37.4284 0.09,-13.53036 0.3633,-15.86314 -2.2098,-18.02768 z"
         inkscape:connector-curvature="0"
         sodipodi:nodetypes="ccccccccccccccc"
         id="path442-6" />
    </g>
  </g>
</svg>
