<?xml version="1.0" encoding="UTF-8" standalone="no"?>
<!-- Created with Inkscape (http://www.inkscape.org/) -->

<svg
   xmlns:dc="http://purl.org/dc/elements/1.1/"
   xmlns:cc="http://creativecommons.org/ns#"
   xmlns:rdf="http://www.w3.org/1999/02/22-rdf-syntax-ns#"
   xmlns:svg="http://www.w3.org/2000/svg"
   xmlns="http://www.w3.org/2000/svg"
   xmlns:sodipodi="http://sodipodi.sourceforge.net/DTD/sodipodi-0.dtd"
   xmlns:inkscape="http://www.inkscape.org/namespaces/inkscape"
   width="150"
   height="50"
   id="svg4226"
   version="1.1"
   inkscape:version="0.48.4 r9939"
   sodipodi:docname="button_md.svg">
  <defs
     id="defs4228" />
  <sodipodi:namedview
     id="base"
     pagecolor="#ffffff"
     bordercolor="#666666"
     borderopacity="1.0"
     inkscape:pageopacity="0.0"
     inkscape:pageshadow="2"
     inkscape:zoom="2.8"
     inkscape:cx="-55.576449"
     inkscape:cy="-29.990893"
     inkscape:document-units="px"
     inkscape:current-layer="g440"
     showgrid="false"
     inkscape:window-width="1918"
     inkscape:window-height="1030"
     inkscape:window-x="0"
     inkscape:window-y="0"
     inkscape:window-maximized="1" />
  <metadata
     id="metadata4231">
    <rdf:RDF>
      <cc:Work
         rdf:about="">
        <dc:format>image/svg+xml</dc:format>
        <dc:type
           rdf:resource="http://purl.org/dc/dcmitype/StillImage" />
        <dc:title />
      </cc:Work>
    </rdf:RDF>
  </metadata>
  <g
     inkscape:label="Capa 1"
     inkscape:groupmode="layer"
     id="capa1"
     transform="translate(0,-1002.3622)">
    <g
       transform="translate(-873.57143,196.6479)"
       style="display:inline"
       id="g7671">
      <g
         style="fill:#000000;fill-opacity:1"
         transform="matrix(1.2976625,0,0,-1.4301451,1021.2624,847.82989)"
         id="g440">
        <path
           style="fill:none;stroke:#424242;stroke-width:1.46811159;stroke-miterlimit:4;stroke-opacity:1;stroke-dasharray:none;display:inline"
           d="m -0.29742879,28.06961 c -1.59882851,1.193196 -11.44775521,0.542161 -17.69627221,0.64498 -3.151291,0.02486 -5.935588,0.0821 -8.946203,-0.03731 -27.346963,0.505376 -56.935042,-0.08715 -82.141526,0.053 -0.81008,-0.02405 -2.26261,-0.338714 -2.66632,-0.77542 -0.59222,-0.244729 -0.83324,-1.003139 -1.22621,-1.450722 -0.45688,-2.162436 -0.0511,-4.876298 -0.0769,-7.536014 -0.0255,-2.647938 -0.24329,-6.308976 -0.0183,-8.55239 0.0451,-2.3804329 -0.12318,-4.0441702 -0.0218,-6.6145552 0.10788,-2.4650108 -0.25196,-5.0272005 0.61357,-7.3275033 0.16422,-1.768379 11.82934,-1.2196153 16.529105,-1.2400779 16.338404,0.029298 30.640661,0.1912726 45.364596,0.193568 18.487382,-0.081713 49.4229776,-1.1248475 50.51583431,0.6593341 C 1.743472,-3.0523911 1.0011228,6.7162346 1.0419734,17.67256 c 0.054552,7.803356 0.2201958,9.14874 -1.33935744,10.397092 z"
           inkscape:connector-curvature="0"
           sodipodi:nodetypes="ccccccccccccccc"
           id="path442-6" />
      </g>
    </g>
  </g>
</svg>
