<?xml version="1.0" encoding="UTF-8" standalone="no"?>
<!-- Created with Inkscape (http://www.inkscape.org/) -->

<svg
   xmlns:dc="http://purl.org/dc/elements/1.1/"
   xmlns:cc="http://creativecommons.org/ns#"
   xmlns:rdf="http://www.w3.org/1999/02/22-rdf-syntax-ns#"
   xmlns:svg="http://www.w3.org/2000/svg"
   xmlns="http://www.w3.org/2000/svg"
   xmlns:sodipodi="http://sodipodi.sourceforge.net/DTD/sodipodi-0.dtd"
   xmlns:inkscape="http://www.inkscape.org/namespaces/inkscape"
   width="112"
   height="33"
   id="svg4226"
   version="1.1"
   inkscape:version="0.48.4 r9939"
   sodipodi:docname="button_sm.svg">
  <defs
     id="defs4228" />
  <sodipodi:namedview
     id="base"
     pagecolor="#ffffff"
     bordercolor="#666666"
     borderopacity="1.0"
     inkscape:pageopacity="0.0"
     inkscape:pageshadow="2"
     inkscape:zoom="5.6"
     inkscape:cx="48.831697"
     inkscape:cy="26.292021"
     inkscape:document-units="px"
     inkscape:current-layer="g7671"
     showgrid="false"
     inkscape:window-width="1918"
     inkscape:window-height="1030"
     inkscape:window-x="0"
     inkscape:window-y="0"
     inkscape:window-maximized="1" />
  <metadata
     id="metadata4231">
    <rdf:RDF>
      <cc:Work
         rdf:about="">
        <dc:format>image/svg+xml</dc:format>
        <dc:type
           rdf:resource="http://purl.org/dc/dcmitype/StillImage" />
        <dc:title />
      </cc:Work>
    </rdf:RDF>
  </metadata>
  <g
     inkscape:label="Capa 1"
     inkscape:groupmode="layer"
     id="capa1"
     transform="translate(0,-1019.3622)">
    <g
       transform="translate(-873.57143,196.6479)"
       style="display:inline"
       id="g7671">
      <g
         style="fill:#000000;fill-opacity:1"
         transform="matrix(1.2976625,0,0,-1.4301451,1021.2624,847.82989)"
         id="g440" />
      <path
         style="fill:none;stroke:#424242;stroke-width:2;stroke-miterlimit:4;stroke-opacity:1;stroke-dasharray:none;display:inline"
         d="m 983.59446,824.04753 c -1.55012,-1.12389 -11.09926,-0.51067 -17.15752,-0.60751 -3.05535,-0.0234 -5.75488,-0.0774 -8.67384,0.0352 -26.51444,-0.47602 -55.20174,0.0821 -79.64084,-0.0499 -0.7854,0.0227 -2.19375,0.31904 -2.58516,0.73038 -0.57419,0.23051 -0.80786,0.94487 -1.18886,1.36646 -0.44297,2.03684 -0.0496,4.59309 -0.0745,7.09833 -0.0247,2.49414 -0.23588,5.94255 -0.0178,8.05566 0.0437,2.24218 -0.11939,3.80928 -0.021,6.23038 0.10459,2.32184 -0.24431,4.73522 0.59488,6.90192 0.1592,1.66567 11.4692,1.14878 16.02589,1.16806 15.84099,-0.0276 29.70783,-0.18017 43.98351,-0.18233 17.92457,0.077 47.91833,1.05951 48.97794,-0.62104 1.7562,-0.8111 1.03647,-10.01236 1.07609,-20.33234 0.0531,-7.35013 0.21348,-8.61738 -1.2986,-9.79323 z"
         inkscape:connector-curvature="0"
         sodipodi:nodetypes="ccccccccccccccc"
         id="path442-6" />
    </g>
  </g>
</svg>
