<?xml version="1.0" encoding="UTF-8" standalone="no"?>
<svg
   xmlns:dc="http://purl.org/dc/elements/1.1/"
   xmlns:cc="http://creativecommons.org/ns#"
   xmlns:rdf="http://www.w3.org/1999/02/22-rdf-syntax-ns#"
   xmlns:svg="http://www.w3.org/2000/svg"
   xmlns="http://www.w3.org/2000/svg"
   xmlns:sodipodi="http://sodipodi.sourceforge.net/DTD/sodipodi-0.dtd"
   xmlns:inkscape="http://www.inkscape.org/namespaces/inkscape"
   width="30"
   height="30"
   x="0px"
   y="0px"
   preserveAspectRatio="none"
   viewBox="0 0 30 30.000004"
   id="svg2"
   version="1.1"
   inkscape:version="0.48.4 r9939"
   sodipodi:docname="arrow-left-sm.svg">
  <metadata
     id="metadata12">
    <rdf:RDF>
      <cc:Work
         rdf:about="">
        <dc:format>image/svg+xml</dc:format>
        <dc:type
           rdf:resource="http://purl.org/dc/dcmitype/StillImage" />
      </cc:Work>
    </rdf:RDF>
  </metadata>
  <defs
     id="defs10" />
  <sodipodi:namedview
     pagecolor="#ffffff"
     bordercolor="#666666"
     borderopacity="1"
     objecttolerance="10"
     gridtolerance="10"
     guidetolerance="10"
     inkscape:pageopacity="0"
     inkscape:pageshadow="2"
     inkscape:window-width="1364"
     inkscape:window-height="718"
     id="namedview8"
     showgrid="false"
     inkscape:zoom="8.34386"
     inkscape:cx="-6.2360712"
     inkscape:cy="18.34545"
     inkscape:window-x="0"
     inkscape:window-y="0"
     inkscape:window-maximized="1"
     inkscape:current-layer="svg2" />
  <path
     style="fill:none;stroke:#212121;stroke-width:2.00000013;stroke-dasharray:none;stroke-miterlimit:4"
     d="m 27.12957,22.040794 c -0.947458,1.587319 -2.080246,3.073659 -3.396678,4.296794 -3.100865,2.213036 -5.460518,2.711659 -9.091972,2.940734 C 9.1863082,28.852565 4.6006667,25.739281 2.2874836,21.255863 0.56668509,17.089514 0.61176197,14.114722 1.3533664,10.949111 2.4282317,7.8192638 4.602176,5.2060918 6.9455639,3.2527258 c 1.4232664,-0.921014 2.8204562,-1.317008 4.2561321,-1.820753 2.603017,-0.80040805 5.401573,-0.45186605 7.833921,-0.292396 3.405457,0.633061 4.862505,2.145025 6.842403,4.576164 2.000013,2.8727 3.895609,6.7123882 3.172979,10.8830332 -0.303442,2.132638 -0.985044,3.873256 -1.921429,5.44202 z"
     id="path4"
     inkscape:connector-curvature="0"
     sodipodi:nodetypes="scccccccccs" />
  <path
     style="fill:none;stroke:#212121;stroke-width:2.00000013;stroke-dasharray:none;stroke-miterlimit:4"
     d="m 18.125344,22.123863 c -1.123347,-1.018628 -2.163569,-2.31471 -3.125613,-3.263592 -1.392599,-1.189786 -2.079573,-2.338589 -3.106887,-3.671796 0.537436,-0.864129 1.19678,-1.75516 1.752591,-2.6523 1.073385,-1.750387 2.525099,-3.4197042 3.947185,-4.6063472"
     id="path6"
     inkscape:connector-curvature="0" />
</svg>
