<?xml version="1.0" encoding="UTF-8" standalone="no"?>
<svg
   xmlns:dc="http://purl.org/dc/elements/1.1/"
   xmlns:cc="http://creativecommons.org/ns#"
   xmlns:rdf="http://www.w3.org/1999/02/22-rdf-syntax-ns#"
   xmlns:svg="http://www.w3.org/2000/svg"
   xmlns="http://www.w3.org/2000/svg"
   xmlns:sodipodi="http://sodipodi.sourceforge.net/DTD/sodipodi-0.dtd"
   xmlns:inkscape="http://www.inkscape.org/namespaces/inkscape"
   width="30"
   height="30"
   x="0px"
   y="0px"
   preserveAspectRatio="none"
   viewBox="0 0 30 30.000004"
   id="svg2"
   version="1.1"
   inkscape:version="0.48.4 r9939"
   sodipodi:docname="arrow-right-simple.svg">
  <metadata
     id="metadata12">
    <rdf:RDF>
      <cc:Work
         rdf:about="">
        <dc:format>image/svg+xml</dc:format>
        <dc:type
           rdf:resource="http://purl.org/dc/dcmitype/StillImage" />
        <dc:title />
      </cc:Work>
    </rdf:RDF>
  </metadata>
  <defs
     id="defs10" />
  <sodipodi:namedview
     pagecolor="#ffffff"
     bordercolor="#666666"
     borderopacity="1"
     objecttolerance="10"
     gridtolerance="10"
     guidetolerance="10"
     inkscape:pageopacity="0"
     inkscape:pageshadow="2"
     inkscape:window-width="1364"
     inkscape:window-height="718"
     id="namedview8"
     showgrid="false"
     inkscape:zoom="8.34386"
     inkscape:cx="-14.537552"
     inkscape:cy="18.645072"
     inkscape:window-x="0"
     inkscape:window-y="0"
     inkscape:window-maximized="1"
     inkscape:current-layer="svg2" />
  <g
     id="g302"
     transform="matrix(1.097469,0,0,-1.0974692,18.015918,15.064148)"
     style="fill:#212121;fill-opacity:1">
    <path
       inkscape:connector-curvature="0"
       d="m 0,0 c -0.234,-0.367 -0.539,-0.662 -0.801,-1 -0.203,0.029 -0.195,0.27 -0.4,0.299 0.174,0.226 0.535,0.265 0.599,0.599 C -0.295,-0.174 -0.307,0.07 0,0 -0.012,0.119 0.145,0.061 0,0 m -0.9,1.1 c 0.177,-0.075 0.013,-0.182 0,-0.301 -0.178,0.072 -0.014,0.181 0,0.301 m -1.2,0.498 c 0.053,0.148 0.149,0.252 0.2,0.4 0.289,-0.043 0.455,-0.211 0.5,-0.5 -0.225,-0.225 -0.5,0.006 -0.7,0.1 m 0.5,-1.7 c 0.051,-0.05 -0.072,-0.127 -0.099,-0.099 -0.053,0.051 0.072,0.127 0.099,0.099 m -0.099,-1.597 c 0.023,0.125 0.197,0.099 0.199,0 -0.045,-0.147 -0.088,0.01 -0.199,0 M -3.1,-1.9 l 0,0.4 c 0.315,0.047 0.282,-0.252 0.401,-0.4 0.168,-0.198 0.576,-0.157 0.5,-0.6 -0.42,-0.268 -0.567,0.463 -0.901,0.6 m 0,-1.2 c -0.06,0.006 -0.117,0.016 -0.099,0.1 -0.061,0.006 -0.119,0.016 -0.1,0.1 -0.146,0.087 -0.318,0.15 -0.301,0.4 -0.121,-0.01 -0.06,0.146 0,0 0.147,-0.086 0.317,-0.15 0.301,-0.4 0.061,-0.004 0.117,-0.014 0.1,-0.1 0.06,-0.004 0.119,-0.014 0.099,-0.1 0.121,0.01 0.063,-0.144 0,0 m -0.599,-1 c -0.223,0.28 -0.871,0.551 -0.6,1 0.221,-0.078 0.25,-0.349 0.401,-0.5 0.203,-0.072 0.406,-0.3 0.199,-0.5 m -0.699,-0.898 c -0.186,0.348 -0.516,0.549 -0.6,1 0.336,-0.164 0.426,-0.574 0.898,-0.602 -0.029,-0.203 -0.269,-0.195 -0.298,-0.398 m 0.199,8.894 c -0.553,0.186 -0.123,0.665 0,1 0.32,0.088 0.207,-0.259 0.4,-0.3 -0.019,-0.346 -0.353,-0.379 -0.4,-0.7 M 1.199,0.398 C 0.838,1.037 0.256,1.455 -0.201,1.998 -0.67,2.527 -1.146,3.053 -1.6,3.598 -1.848,3.85 -1.994,4.203 -2.301,4.396 -2.332,4.863 -2.867,4.83 -2.9,5.297 c -0.211,0.021 -0.19,0.273 -0.299,0.4 -0.03,0.033 -0.168,-0.033 -0.201,0 -0.034,0.033 0.033,0.162 0,0.199 -0.18,0.206 -0.664,0.663 -0.799,0.7 -0.223,0.062 -0.498,-0.053 -0.6,0 0,-0.133 -0.176,-0.092 -0.199,-0.2 C -5.223,6.154 -5.4,5.863 -5.697,5.697 -6.039,5.537 -6.01,5.01 -6.297,4.797 -5.949,3.879 -5.223,3.34 -4.6,2.697 c 0.305,-0.328 0.557,-0.709 0.901,-1 0.129,-0.17 0.207,-0.392 0.5,-0.398 -0.018,-0.352 0.338,-0.328 0.4,-0.6 -0.574,-0.961 -1.338,-1.728 -1.9,-2.699 -0.276,-0.49 -0.662,-0.869 -0.899,-1.4 -0.242,-0.157 -0.443,-0.358 -0.599,-0.598 -0.092,-0.311 -0.532,-0.27 -0.5,-0.701 0.109,-0.524 0.574,-0.692 0.898,-1 0.404,-0.262 0.611,-0.721 1.199,-0.799 0.623,0.31 0.85,1.018 1.401,1.4 0.365,0.567 0.789,1.077 1.299,1.498 0.402,0.532 0.923,0.944 1.4,1.401 0.508,0.455 0.836,1.095 1.398,1.498 -0.13,0.597 0.35,0.584 0.301,1.099"
       style="fill:#212121;fill-opacity:1;fill-rule:evenodd;stroke:none"
       id="path304" />
  </g>
</svg>
