<?xml version="1.0" encoding="UTF-8" standalone="no"?>
<svg
   xmlns:dc="http://purl.org/dc/elements/1.1/"
   xmlns:cc="http://creativecommons.org/ns#"
   xmlns:rdf="http://www.w3.org/1999/02/22-rdf-syntax-ns#"
   xmlns:svg="http://www.w3.org/2000/svg"
   xmlns="http://www.w3.org/2000/svg"
   xmlns:sodipodi="http://sodipodi.sourceforge.net/DTD/sodipodi-0.dtd"
   xmlns:inkscape="http://www.inkscape.org/namespaces/inkscape"
   width="30"
   height="30"
   x="0px"
   y="0px"
   preserveAspectRatio="none"
   viewBox="0 0 30 30.000004"
   id="svg2"
   version="1.1"
   inkscape:version="0.48.4 r9939"
   sodipodi:docname="arrow-right-sm.svg">
  <metadata
     id="metadata12">
    <rdf:RDF>
      <cc:Work
         rdf:about="">
        <dc:format>image/svg+xml</dc:format>
        <dc:type
           rdf:resource="http://purl.org/dc/dcmitype/StillImage" />
        <dc:title />
      </cc:Work>
    </rdf:RDF>
  </metadata>
  <defs
     id="defs10" />
  <sodipodi:namedview
     pagecolor="#ffffff"
     bordercolor="#666666"
     borderopacity="1"
     objecttolerance="10"
     gridtolerance="10"
     guidetolerance="10"
     inkscape:pageopacity="0"
     inkscape:pageshadow="2"
     inkscape:window-width="1364"
     inkscape:window-height="718"
     id="namedview8"
     showgrid="false"
     inkscape:zoom="8.34386"
     inkscape:cx="-6.2360712"
     inkscape:cy="18.34545"
     inkscape:window-x="0"
     inkscape:window-y="0"
     inkscape:window-maximized="1"
     inkscape:current-layer="svg2" />
  <path
     style="fill:none;stroke:#212121;stroke-width:2.00000013;stroke-dasharray:none;stroke-miterlimit:4"
     d="M 2.9444747,8.1630448 C 3.8919329,6.5757258 5.0247202,5.0893858 6.341152,3.8662508 9.4420181,1.6532148 11.80167,1.1545918 15.433125,0.92551675 20.887737,1.3512738 25.473378,4.4645578 27.786561,8.9479758 c 1.720798,4.1663492 1.675721,7.1411412 0.934117,10.3067522 -1.074865,3.129847 -3.248809,5.743019 -5.592198,7.696385 -1.423266,0.921014 -2.820455,1.317008 -4.256132,1.820753 -2.603016,0.800408 -5.401573,0.451866 -7.833921,0.292396 C 7.6329703,28.431202 6.1759227,26.919237 4.1960241,24.488098 2.1960121,21.615398 0.30041537,17.77571 1.0230453,13.605065 1.3264876,11.472427 2.00809,9.7318088 2.9444747,8.1630448 z"
     id="path4"
     inkscape:connector-curvature="0"
     sodipodi:nodetypes="scccccccccs" />
  <path
     style="fill:none;stroke:#212121;stroke-width:2.00000013;stroke-dasharray:none;stroke-miterlimit:4"
     d="m 11.892844,7.9298288 c 1.123347,1.018628 2.163569,2.3147102 3.125613,3.2635922 1.392599,1.189786 2.079574,2.338589 3.106887,3.671796 -0.537436,0.864129 -1.19678,1.755159 -1.752591,2.6523 -1.073385,1.750387 -2.525099,3.419704 -3.947185,4.606346"
     id="path6"
     inkscape:connector-curvature="0" />
</svg>
