<?xml version="1.0" encoding="UTF-8" standalone="no"?>
<svg
   xmlns:dc="http://purl.org/dc/elements/1.1/"
   xmlns:cc="http://creativecommons.org/ns#"
   xmlns:rdf="http://www.w3.org/1999/02/22-rdf-syntax-ns#"
   xmlns:svg="http://www.w3.org/2000/svg"
   xmlns="http://www.w3.org/2000/svg"
   xmlns:sodipodi="http://sodipodi.sourceforge.net/DTD/sodipodi-0.dtd"
   xmlns:inkscape="http://www.inkscape.org/namespaces/inkscape"
   width="40"
   height="40"
   x="0px"
   y="0px"
   preserveAspectRatio="none"
   viewBox="0 0 40 40.000005"
   id="svg2"
   version="1.1"
   inkscape:version="0.48.4 r9939"
   sodipodi:docname="arrow-left.svg">
  <metadata
     id="metadata12">
    <rdf:RDF>
      <cc:Work
         rdf:about="">
        <dc:format>image/svg+xml</dc:format>
        <dc:type
           rdf:resource="http://purl.org/dc/dcmitype/StillImage" />
        <dc:title></dc:title>
      </cc:Work>
    </rdf:RDF>
  </metadata>
  <defs
     id="defs10" />
  <sodipodi:namedview
     pagecolor="#ffffff"
     bordercolor="#666666"
     borderopacity="1"
     objecttolerance="10"
     gridtolerance="10"
     guidetolerance="10"
     inkscape:pageopacity="0"
     inkscape:pageshadow="2"
     inkscape:window-width="1364"
     inkscape:window-height="718"
     id="namedview8"
     showgrid="false"
     inkscape:zoom="8.34386"
     inkscape:cx="16.295467"
     inkscape:cy="18.045828"
     inkscape:window-x="0"
     inkscape:window-y="0"
     inkscape:window-maximized="1"
     inkscape:current-layer="svg2" />
  <path
     style="fill:none;stroke:#424242;stroke-width:2.4537816;stroke-dasharray:none"
     d="M 3.9383617,10.862218 C 5.1997136,8.749019 6.7077944,6.7702531 8.4603612,5.1418921 12.588547,2.195676 15.729953,1.531859 20.564513,1.2268911 c 7.261729,0.56681 13.366597,4.711528 16.44614,10.6803069 2.2909,5.546664 2.230889,9.507007 1.243591,13.721387 -1.430969,4.166768 -4.325143,7.645687 -7.444898,10.246204 -1.894795,1.226148 -3.754875,1.753335 -5.666193,2.423971 -3.465397,1.065584 -7.191119,0.601569 -10.429306,0.389267 C 10.18016,37.845233 8.2403912,35.832353 5.6045505,32.595776 2.9419328,28.771348 0.41832316,23.659567 1.380361,18.107184 1.784334,15.268001 2.6917519,12.950715 3.9383617,10.862218 z"
     id="path4"
     inkscape:connector-curvature="0"
     sodipodi:nodetypes="scccccccccs" />
  <path
     style="fill:none;stroke:#424242;stroke-width:2.4537816;stroke-dasharray:none"
     d="m 15.851334,10.551737 c 1.495512,1.356101 2.880361,3.081576 4.161131,4.344823 1.853968,1.583964 2.768538,3.113366 4.136201,4.888266 -0.715488,1.150415 -1.593274,2.336645 -2.333226,3.531009 -1.428998,2.330292 -3.361666,4.552655 -5.25489,6.132433"
     id="path6"
     inkscape:connector-curvature="0" />
</svg>
