<?xml version="1.0" encoding="UTF-8" standalone="no"?>
<svg
   xmlns:dc="http://purl.org/dc/elements/1.1/"
   xmlns:cc="http://creativecommons.org/ns#"
   xmlns:rdf="http://www.w3.org/1999/02/22-rdf-syntax-ns#"
   xmlns:svg="http://www.w3.org/2000/svg"
   xmlns="http://www.w3.org/2000/svg"
   xmlns:sodipodi="http://sodipodi.sourceforge.net/DTD/sodipodi-0.dtd"
   xmlns:inkscape="http://www.inkscape.org/namespaces/inkscape"
   width="30"
   height="30"
   x="0px"
   y="0px"
   preserveAspectRatio="none"
   viewBox="0 0 30 30.000004"
   id="svg2"
   version="1.1"
   inkscape:version="0.48.4 r9939"
   sodipodi:docname="arrow-left-simple.svg">
  <metadata
     id="metadata12">
    <rdf:RDF>
      <cc:Work
         rdf:about="">
        <dc:format>image/svg+xml</dc:format>
        <dc:type
           rdf:resource="http://purl.org/dc/dcmitype/StillImage" />
        <dc:title />
      </cc:Work>
    </rdf:RDF>
  </metadata>
  <defs
     id="defs10" />
  <sodipodi:namedview
     pagecolor="#ffffff"
     bordercolor="#666666"
     borderopacity="1"
     objecttolerance="10"
     gridtolerance="10"
     guidetolerance="10"
     inkscape:pageopacity="0"
     inkscape:pageshadow="2"
     inkscape:window-width="1364"
     inkscape:window-height="718"
     id="namedview8"
     showgrid="false"
     inkscape:zoom="8.34386"
     inkscape:cx="-16.625336"
     inkscape:cy="18.645072"
     inkscape:window-x="0"
     inkscape:window-y="0"
     inkscape:window-maximized="1"
     inkscape:current-layer="svg2" />
  <g
     id="g298"
     transform="matrix(1.0973,0,0,-1.0973002,16.479709,9.9007273)"
     style="fill:#212121;fill-opacity:1">
    <path
       inkscape:connector-curvature="0"
       d="M 0,0 C 0.059,0.207 0.209,0.322 0.301,0.5 0.385,0.518 0.395,0.461 0.4,0.398 0.418,-0.084 0.883,-0.117 0.9,-0.6 0.553,-0.447 0.537,0.037 0,0 m 0.199,-1.5 c -0.181,0.385 -0.683,0.449 -0.699,1 0.412,-0.164 0.883,-0.545 0.699,-1 M -0.5,-2.1 c -0.146,0.086 -0.316,0.151 -0.299,0.401 -0.062,0.006 -0.119,0.015 -0.101,0.099 -0.061,0.006 -0.118,0.014 -0.1,0.1 -0.414,-0.096 -0.02,0.299 0,0 0.062,-0.006 0.119,-0.014 0.1,-0.1 0.062,-0.005 0.119,-0.015 0.101,-0.099 0.147,-0.088 0.317,-0.151 0.299,-0.401 0.121,0.01 0.062,-0.144 0,0 m -1.1,-0.4 c -0.32,0.109 -0.49,0.254 -0.199,0.5 0.44,-0.16 0.686,-0.514 0.799,-1 -0.406,-0.039 -0.395,0.34 -0.6,0.5 m -1.099,-3.498 c 0.17,0.17 0.449,-0.057 0.599,-0.199 0.02,-0.537 -0.746,-0.266 -0.599,0.199 m 0.201,3.098 c -0.045,-0.145 -0.088,0.011 -0.201,0 0.025,0.127 0.199,0.101 0.201,0 m 0.1,-1.498 c 0.05,-0.053 -0.073,-0.127 -0.1,-0.1 -0.053,0.051 0.072,0.127 0.1,0.1 M 0,-8.496 c 0.271,0.072 0.201,-0.199 0.4,-0.199 -0.013,-0.354 -0.287,-0.448 -0.3,-0.801 -0.207,0.058 -0.34,0.193 -0.399,0.4 -0.055,0.354 0.354,0.246 0.299,0.6 m -3.498,3.998 c -0.266,-0.002 -0.588,0.055 -0.6,-0.199 -0.236,0.242 0.328,0.531 0.5,0.699 -0.047,0.314 0.268,0.264 0.299,0.498 0.197,-0.068 0.268,-0.266 0.301,-0.498 -0.207,-0.129 -0.508,-0.16 -0.5,-0.5 m 0.299,-1 c 0.011,-0.121 -0.145,-0.061 0,0 -0.01,0.121 0.146,0.062 0,0 M 1.6,-1.201 c 0.207,0.594 0.888,0.709 1,1.4 C 2.426,0.66 1.92,0.787 1.699,1.199 1.184,1.383 1.045,1.945 0.301,1.898 0.275,1.756 0.135,1.73 0.1,1.6 -0.824,0.557 -1.76,-0.473 -2.6,-1.6 c -0.459,-0.539 -0.921,-1.076 -1.398,-1.599 -0.168,-0.332 -0.459,-0.541 -0.6,-0.899 -0.244,-0.257 -0.652,-0.347 -0.699,-0.8 0.24,-0.76 0.981,-1.018 1.299,-1.7 0.607,-0.392 0.932,-1.066 1.5,-1.5 0.094,-0.404 0.463,-0.533 0.6,-0.898 0.277,-0.221 0.441,-0.557 0.699,-0.799 0.527,-0.473 0.72,-1.279 1.599,-1.4 0.551,0.049 0.692,0.507 0.998,0.799 0.405,0.232 0.623,0.644 0.702,1.201 -0.075,0.527 -0.588,0.611 -0.702,1.097 -0.392,0.243 -0.605,0.66 -0.998,0.901 -0.261,0.338 -0.566,0.634 -0.8,1 -0.329,0.304 -0.737,0.527 -0.899,1 0.613,0.918 1.328,1.734 1.899,2.697 0.318,0.449 0.609,0.924 1,1.299"
       style="fill:#212121;fill-opacity:1;fill-rule:evenodd;stroke:none"
       id="path300" />
  </g>
</svg>
