<?xml version="1.0" standalone="no"?>
<!DOCTYPE svg PUBLIC "-//W3C//DTD SVG 20010904//EN"
 "http://www.w3.org/TR/2001/REC-SVG-20010904/DTD/svg10.dtd">
<svg version="1.0" xmlns="http://www.w3.org/2000/svg"
 width="260.000000pt" height="260.000000pt" viewBox="0 0 260.000000 260.000000"
 preserveAspectRatio="xMidYMid meet">
<metadata>
Created by potrace 1.11, written by Peter Selinger 2001-2013
</metadata>
<g transform="translate(0.000000,260.000000) scale(0.100000,-0.100000)"
fill="#000000" stroke="none">
<path d="M150 2560 c-18 -23 -30 -43 -28 -46 3 -2 17 11 32 31 15 19 32 35 38
35 6 0 5 -7 -3 -17 -7 -10 -1 -7 14 6 33 30 33 31 3 31 -16 0 -35 -13 -56 -40z"/>
<path d="M240 2588 c0 -6 -10 -22 -22 -35 -19 -21 -20 -23 -4 -17 10 4 17 3
15 -2 -20 -42 -33 -64 -40 -64 -4 0 -1 -12 7 -27 17 -33 18 -43 4 -43 -5 0
-10 7 -10 15 0 8 -3 15 -7 16 -5 0 -16 2 -25 4 -17 3 -17 1 -1 -28 9 -18 16
-38 15 -45 -2 -7 2 -11 9 -10 6 2 20 -17 31 -42 l19 -45 -20 22 c-12 12 -21
27 -21 33 0 6 -5 8 -10 5 -10 -6 15 -63 35 -77 6 -4 7 -8 2 -8 -4 0 -1 -13 8
-30 23 -44 18 -49 -8 -10 -26 39 -58 115 -51 122 2 3 -5 13 -15 22 -17 15 -15
7 10 -57 16 -42 38 -93 50 -114 l21 -38 -41 45 c-40 42 -49 29 -11 -15 27 -31
42 -64 34 -76 -3 -6 -19 8 -35 33 -33 49 -39 32 -9 -30 11 -22 20 -45 20 -51
0 -5 5 -13 12 -17 7 -4 8 -3 4 4 -4 7 -2 12 3 12 6 0 11 -2 11 -4 0 -2 7 -20
16 -41 8 -20 10 -34 5 -30 -6 3 -11 2 -11 -4 0 -5 8 -11 18 -13 13 -3 9 -9
-18 -27 -31 -20 -32 -22 -10 -18 14 2 32 7 41 11 19 8 43 -37 34 -65 -6 -19
-39 -34 -54 -24 -6 3 -8 -4 -5 -17 3 -13 8 -36 11 -53 2 -16 10 -36 15 -42 7
-9 7 -13 -1 -13 -6 0 -10 -11 -9 -25 1 -14 6 -25 10 -25 4 0 6 -18 6 -40 0
-25 -4 -37 -11 -33 -6 4 -8 -2 -5 -15 4 -15 2 -19 -8 -15 -8 3 -13 19 -13 41
0 21 -3 50 -7 66 -5 21 -4 27 5 22 6 -4 11 -3 11 2 0 18 -29 21 -34 4 -4 -13
-5 -13 -4 3 1 37 -2 45 -14 42 -7 -1 -14 5 -14 13 -1 8 -3 17 -4 20 -1 3 -3
13 -5 23 -5 25 -11 31 -20 18 -3 -6 -3 -11 2 -11 4 0 8 -24 7 -53 0 -28 3 -60
8 -69 5 -10 5 -18 0 -18 -4 0 -8 -9 -8 -19 0 -11 4 -18 7 -15 4 2 10 0 14 -6
3 -6 -1 -13 -10 -16 -9 -4 -12 -10 -7 -13 5 -3 19 -25 30 -49 11 -23 16 -40
11 -36 -14 8 -11 -2 10 -40 18 -31 18 -36 4 -47 -13 -12 -13 -15 7 -31 12 -10
17 -18 11 -18 -6 0 -8 -7 -5 -15 3 -8 11 -13 17 -12 14 3 16 -35 2 -45 -6 -5
-3 -8 7 -8 11 0 15 -5 12 -15 -4 -8 -2 -15 4 -15 13 0 23 -38 11 -46 -5 -3 -9
-13 -8 -22 0 -12 2 -13 6 -4 7 18 35 -22 40 -57 9 -64 10 -90 2 -86 -4 3 -9 0
-12 -7 -2 -7 -2 0 1 16 2 18 0 26 -6 22 -6 -4 -8 2 -5 15 5 19 4 20 -17 9 -18
-10 -24 -9 -31 1 -5 8 -9 18 -9 23 0 5 -3 6 -7 3 -9 -9 -37 33 -41 61 -1 12 2
22 8 22 5 0 10 -7 10 -15 0 -9 7 -18 15 -21 8 -4 15 -12 15 -20 0 -8 4 -14 9
-14 5 0 11 -8 13 -17 2 -10 6 -13 10 -8 3 6 -2 26 -11 46 -10 19 -16 40 -14
46 2 6 -1 15 -8 19 -9 5 -10 2 -6 -9 8 -21 0 -22 -19 -3 -16 17 -19 30 -4 21
5 -3 10 -1 10 5 0 6 5 8 12 4 8 -5 9 -2 5 10 -4 10 -7 20 -7 22 0 2 -4 4 -10
4 -5 0 -7 -7 -4 -15 4 -9 0 -15 -10 -15 -9 0 -16 7 -16 15 0 8 -4 15 -9 15
-16 0 -24 -21 -12 -33 6 -6 11 -22 11 -37 l-1 -25 -29 33 c-16 17 -33 32 -36
32 -4 0 -13 8 -20 17 -7 10 -15 15 -19 11 -10 -9 32 -87 76 -140 21 -26 39
-51 39 -56 0 -4 11 -19 25 -32 26 -24 36 -51 11 -31 -11 9 -10 0 3 -44 9 -30
19 -55 23 -55 3 0 4 9 1 19 -3 12 2 23 14 29 16 9 19 7 20 -11 1 -12 8 -26 15
-32 8 -5 14 -21 13 -35 0 -16 5 -25 15 -24 9 1 17 -8 17 -18 2 -15 -1 -17 -11
-9 -9 8 -13 7 -13 -4 0 -8 5 -15 10 -15 5 0 7 -16 5 -35 -4 -33 12 -49 26 -26
9 14 45 20 53 9 3 -7 1 -8 -5 -4 -7 4 -12 3 -12 -2 0 -6 -8 -9 -17 -8 -10 0
-18 -3 -18 -9 -2 -22 -17 -55 -25 -55 -13 0 -33 68 -28 95 3 14 1 23 -6 22 -6
-1 -10 9 -9 23 l3 25 -10 -23 c-7 -17 -5 -38 10 -80 24 -69 25 -81 3 -98 -10
-7 -14 -16 -10 -20 4 -5 11 -4 15 1 17 24 38 13 33 -18 0 -4 4 -7 10 -7 8 0 8
-4 0 -14 -10 -11 -9 -15 5 -18 16 -3 16 -4 -1 -18 -11 -9 -16 -10 -11 -3 4 8
1 13 -8 13 -9 0 -16 -5 -16 -11 0 -5 -5 -7 -11 -3 -7 4 -10 1 -7 -7 3 -8 18
-15 34 -15 56 -2 57 -3 40 -20 -9 -8 -19 -13 -23 -11 -5 2 -19 -10 -32 -27
l-25 -31 25 21 c29 26 59 37 59 23 0 -6 5 -7 11 -3 8 4 7 9 -2 15 -10 6 -7 8
8 6 18 -1 20 -4 10 -20 -7 -11 -18 -29 -24 -41 -7 -11 -13 -17 -13 -12 0 5 -9
-3 -20 -17 -22 -27 -26 -42 -10 -32 5 3 10 1 10 -5 0 -6 6 -8 12 -4 7 4 -3
-10 -22 -31 -34 -37 -25 -40 15 -4 20 18 21 18 22 -1 1 -11 -2 -20 -7 -20 -13
0 -64 -49 -58 -55 3 -3 15 4 28 15 23 20 50 27 50 13 0 -4 -10 -18 -22 -32
-13 -14 -16 -20 -8 -14 8 7 18 13 22 13 14 0 -18 -54 -41 -70 -12 -8 -21 -18
-21 -23 0 -5 12 1 27 12 14 12 29 19 32 16 3 -4 0 -9 -6 -13 -7 -5 -9 -13 -4
-21 7 -10 13 -9 29 5 12 10 30 18 42 19 19 2 19 1 3 -17 -14 -15 -14 -18 -1
-18 11 0 14 -7 10 -26 -3 -19 -1 -25 7 -20 6 4 11 2 11 -3 0 -6 -8 -11 -17
-11 -9 0 -13 -3 -9 -7 3 -4 -8 -22 -26 -40 -17 -18 -27 -33 -22 -33 6 0 23 13
39 30 16 17 32 30 37 30 13 0 9 -22 -8 -41 -16 -18 -3 -19 351 -19 280 0 372
3 383 13 11 8 14 9 9 0 -15 -24 93 -13 134 13 23 14 41 20 44 14 4 -6 -1 -13
-9 -16 -34 -13 -13 -24 44 -24 41 0 60 4 60 13 0 9 2 9 8 -1 10 -15 72 -13 72
3 0 7 3 7 8 0 10 -14 122 -17 122 -3 0 7 5 6 15 -2 15 -12 194 -9 245 5 18 5
21 4 11 -3 -9 -7 6 -10 51 -10 52 0 67 4 76 19 7 10 8 19 3 19 -5 0 -11 9 -14
20 -3 11 -1 18 3 15 5 -3 11 4 15 15 6 19 17 25 39 21 5 -1 6 5 3 13 -4 10 -1
13 9 9 17 -6 66 16 59 26 -2 4 6 8 17 8 12 1 28 10 37 19 15 15 14 15 -7 4
-13 -6 -26 -10 -28 -7 -2 2 14 12 36 22 41 18 50 30 28 37 -6 2 -20 -4 -30
-14 -22 -22 -40 -23 -36 -2 4 23 -16 28 -36 9 -14 -15 -16 -15 -16 -1 0 9 6
16 13 16 25 1 67 49 67 77 -1 26 -2 27 -15 10 -7 -11 -11 -25 -9 -32 3 -7 -5
-19 -18 -26 -21 -11 -22 -11 -9 4 11 14 11 20 1 32 -10 12 -10 15 1 15 10 1 9
4 -3 14 -24 17 -23 33 2 46 19 10 21 9 18 -12 -2 -13 2 -24 7 -25 6 -1 9 14 7
37 -2 25 0 40 8 40 6 0 9 -4 5 -9 -3 -5 -1 -13 5 -16 6 -4 9 -1 8 7 -2 7 4 13
12 13 9 0 14 -7 12 -20 -5 -30 -21 -43 -32 -25 -5 8 -10 10 -10 4 0 -6 7 -17
15 -24 8 -7 12 -16 9 -21 -3 -5 0 -9 5 -9 6 0 11 10 12 23 0 17 3 15 14 -13
13 -34 14 -32 9 38 -2 40 -5 76 -5 80 -3 20 3 32 16 32 8 0 15 4 15 9 0 5 13
14 30 20 16 5 30 13 30 16 0 6 -22 1 -57 -12 -9 -4 -13 5 -13 25 0 24 6 32 30
41 38 13 40 35 3 28 -18 -3 -32 0 -40 11 -7 10 -13 13 -12 7 3 -21 -1 -35 -11
-35 -15 0 -12 36 3 49 8 6 17 8 20 4 7 -6 11 11 8 33 -1 6 12 17 29 24 17 7
29 18 27 24 -5 14 -42 9 -82 -11 -27 -13 -28 -12 -10 1 11 9 26 20 32 26 7 6
26 13 43 16 23 5 28 10 20 19 -10 12 -54 3 -87 -18 -7 -5 -9 -1 -6 13 3 11 9
17 14 14 5 -3 9 1 9 8 0 17 55 42 79 35 14 -3 17 1 13 19 -4 20 -7 22 -31 11
-14 -6 -29 -16 -33 -22 -5 -6 -11 -6 -19 2 -9 9 -9 16 -1 25 13 16 -1 44 -16
34 -6 -3 -13 -2 -17 4 -3 5 5 14 18 19 30 12 41 27 30 43 -10 16 -12 178 -2
172 4 -2 9 8 12 21 2 14 1 28 -3 30 -4 2 -6 16 -5 30 2 14 -1 25 -6 25 -5 0
-7 10 -4 23 4 12 1 36 -5 52 -9 25 -8 31 6 42 9 7 21 10 27 6 6 -4 7 8 3 32
-5 27 -4 40 6 46 10 7 10 9 1 9 -7 0 -13 7 -13 16 0 22 -17 8 -22 -19 -2 -13
1 -29 9 -35 15 -15 18 -36 3 -27 -5 3 -10 1 -10 -4 0 -16 -27 -13 -33 3 -3 7
0 19 6 25 8 8 8 11 0 11 -13 0 -7 50 8 65 13 13 11 28 -2 19 -7 -4 -10 1 -7
11 5 27 28 31 28 5 0 -12 4 -19 9 -16 5 3 7 16 4 28 -4 14 0 26 13 36 16 13
16 14 2 9 -22 -8 -22 -1 -3 36 l15 29 -35 -21 -34 -20 -7 35 c-4 20 -2 40 3
45 13 13 93 58 116 66 9 3 17 9 17 14 0 10 -95 -33 -119 -55 -10 -9 -22 -16
-28 -16 -6 0 -10 -12 -10 -26 0 -14 -6 -31 -13 -37 -9 -9 -11 -7 -8 8 1 11 8
24 13 28 6 5 -2 7 -17 4 -20 -3 -28 0 -28 10 0 8 -5 11 -12 7 -10 -6 -10 -4 0
7 6 7 12 17 12 21 0 11 -28 10 -32 -1 -5 -15 -32 -17 -34 -3 -1 6 -2 17 -3 22
0 6 -8 10 -17 10 -8 0 -12 5 -9 10 7 11 -35 31 -49 22 -5 -3 -6 0 -3 5 4 6 -2
13 -13 16 -11 3 -20 1 -20 -4 0 -5 -4 -9 -10 -9 -5 0 -7 6 -4 14 5 14 -42 33
-54 21 -3 -3 2 -5 12 -5 9 0 14 -4 11 -10 -8 -14 -44 10 -38 26 5 13 -14 14
-34 1 -13 -8 -27 8 -19 22 3 5 -1 12 -10 15 -8 3 -12 2 -9 -4 3 -5 1 -18 -5
-27 -11 -17 -11 -17 -6 -1 4 13 -2 20 -19 24 -15 4 -22 11 -18 18 4 6 -1 5
-10 -3 -9 -7 -17 -10 -17 -5 0 5 -5 2 -10 -6 -8 -13 -10 -12 -10 4 0 11 -3 16
-7 13 -3 -4 -12 1 -20 11 -8 9 -12 11 -8 5 3 -7 1 -13 -4 -13 -17 0 -51 33
-44 43 3 5 -6 1 -21 -8 -20 -14 -29 -15 -40 -5 -8 6 -12 19 -9 27 4 11 3 14
-6 9 -7 -5 -10 -14 -7 -21 2 -7 -2 -16 -10 -19 -8 -3 -12 -2 -9 3 6 11 -30 25
-44 17 -17 -11 0 -52 22 -53 12 -1 32 -5 44 -8 15 -3 23 0 26 12 4 15 5 15 6
2 1 -18 37 -35 90 -44 19 -3 39 -9 44 -12 6 -3 20 -7 33 -9 13 -1 48 -14 79
-28 30 -14 58 -25 60 -25 3 0 15 -10 27 -20 11 -11 25 -18 30 -15 7 4 12 -11
6 -18 -3 -4 33 -47 55 -67 21 -19 22 -35 1 -27 -10 4 -13 2 -8 -6 5 -7 0 -9
-14 -6 -12 4 -22 2 -22 -3 0 -5 -13 -3 -30 6 -26 14 -30 14 -30 1 0 -9 -8 -20
-19 -25 -20 -11 -142 -10 -135 1 2 4 31 5 64 3 51 -3 62 -1 70 15 8 15 7 18
-2 15 -28 -10 -75 -17 -105 -16 -17 1 -34 -3 -38 -9 -3 -5 -17 -10 -31 -10
-13 0 -32 -4 -42 -9 -9 -5 -41 -19 -69 -32 -29 -12 -53 -26 -53 -30 0 -4 -11
-10 -25 -13 -14 -4 -25 -13 -25 -21 0 -8 -17 -19 -41 -25 -36 -10 -49 -8 -124
22 -46 18 -81 37 -78 42 4 5 1 6 -6 2 -15 -10 -51 2 -48 17 1 6 -20 16 -46 22
-27 5 -46 12 -44 15 3 3 -7 6 -21 6 -15 1 -40 5 -57 8 -16 4 -38 8 -47 9 -10
1 -18 4 -18 8 0 4 -15 6 -32 5 -18 -1 -39 2 -45 7 -9 6 -13 5 -13 -4 0 -9 -3
-10 -8 -3 -9 14 -51 24 -57 14 -8 -13 -45 1 -58 21 -10 16 -13 16 -41 2 -17
-9 -38 -23 -46 -32 -20 -21 -50 -26 -50 -8 0 52 29 107 31 60 0 -11 3 -13 6
-5 2 6 12 12 21 12 12 0 13 3 5 8 -8 5 1 15 24 30 19 13 32 19 28 13 -3 -6 1
-11 10 -11 9 0 13 5 10 10 -3 6 2 10 12 10 23 1 55 25 46 34 -4 4 0 4 10 0 11
-4 17 -1 17 7 0 7 3 9 7 6 3 -4 12 -2 20 4 7 6 13 8 13 5 0 -4 10 0 22 8 12 9
32 16 44 16 11 0 24 3 28 8 8 7 13 9 45 11 11 0 26 7 33 14 7 6 22 13 33 15
11 1 28 3 38 4 9 1 17 6 17 10 0 4 7 5 15 2 8 -4 21 -2 28 3 6 5 51 9 99 8 72
0 88 3 88 15 0 13 1 13 10 0 9 -15 100 -22 100 -7 0 10 -52 56 -63 57 -5 0 -5
-5 -1 -11 4 -7 -1 -7 -16 1 -20 11 -22 10 -17 -3 4 -11 2 -14 -9 -10 -7 3 -14
8 -14 12 0 3 -27 6 -60 6 -33 0 -60 4 -60 8 0 4 -9 3 -19 -3 -11 -5 -27 -7
-37 -3 -13 5 -16 2 -12 -8 4 -10 -2 -15 -19 -17 -13 -1 -22 2 -19 6 3 5 -1 9
-9 9 -8 0 -11 -5 -8 -10 4 -6 0 -8 -10 -4 -11 4 -17 1 -17 -9 0 -8 -5 -12 -10
-9 -6 4 -7 12 -3 18 3 7 -3 4 -14 -6 -16 -14 -22 -15 -26 -5 -4 10 -6 10 -6 0
-1 -9 -9 -8 -28 5 -27 17 -27 17 -14 0 16 -20 10 -29 -19 -34 -18 -3 -25 7
-21 30 2 11 -17 9 -24 -3 -3 -5 -2 -10 4 -10 5 0 8 -7 7 -15 -3 -23 -15 -29
-22 -12 -3 9 -14 14 -26 12 -16 -3 -18 -1 -8 10 9 11 7 12 -10 8 -11 -3 -23
-10 -27 -16 -3 -5 -1 -7 4 -4 6 4 13 0 17 -8 5 -14 -16 -21 -46 -16 -5 0 -8
-4 -8 -10 0 -5 -4 -7 -10 -4 -5 3 -10 -2 -11 -12 0 -16 -1 -16 -8 2 -5 12 -4
23 3 27 16 10 2 20 -18 12 -10 -4 -15 -13 -12 -21 3 -8 -2 -22 -11 -31 -16
-16 -16 -16 -11 5 4 14 1 24 -8 27 -16 6 -30 -17 -20 -33 3 -5 -3 -7 -14 -4
-15 4 -18 9 -10 18 8 9 4 11 -15 7 -14 -2 -28 -9 -32 -15 -4 -6 -1 -7 7 -2 10
6 12 4 7 -8 -3 -9 -1 -18 6 -21 8 -3 8 -5 1 -5 -6 -1 -17 6 -24 14 -7 8 -18
15 -24 15 -6 0 -4 -5 4 -10 13 -8 13 -10 -2 -10 -9 0 -19 -6 -22 -12 -4 -7 -4
-3 -2 9 5 27 -20 20 -27 -8 -3 -10 -11 -19 -17 -19 -9 0 -9 4 -2 13 8 10 6 13
-9 14 -10 1 -19 -3 -19 -9 0 -5 -7 -8 -15 -5 -8 4 -17 2 -19 -2 -3 -5 -17 -8
-32 -8 -14 -1 -31 -6 -37 -12 -8 -8 -8 -11 1 -11 7 0 12 -5 12 -10 0 -7 -6 -7
-19 0 -29 15 -51 12 -51 -6 0 -13 3 -14 14 -5 9 7 17 8 20 3 3 -6 -1 -13 -10
-16 -8 -3 -13 -10 -10 -14 3 -5 -1 -9 -9 -9 -8 0 -15 9 -15 19 0 10 -4 18 -10
18 -5 0 -14 10 -21 22 -10 18 -9 20 7 14 10 -4 21 -1 26 6 6 10 10 10 18 -2 6
-10 10 -11 10 -2 0 6 8 12 18 13 11 1 8 4 -8 9 -22 6 -23 8 -8 15 10 4 15 12
11 18 -3 6 -1 7 6 3 6 -4 9 -11 6 -16 -3 -4 2 -11 11 -14 10 -4 13 -2 8 6 -5
8 -2 9 9 5 14 -5 16 -2 11 21 -4 21 -3 24 5 12 9 -12 11 -11 11 8 0 33 -1 37
-10 35 -12 -3 0 35 15 47 10 8 15 8 21 -1 4 -7 3 -9 -3 -6 -7 5 -11 -10 -10
-43 2 -41 5 -49 20 -46 29 4 41 22 28 43 -10 17 -10 17 -12 -2 -1 -11 -1 -24
0 -28 1 -5 -3 -6 -8 -2 -7 3 -7 15 -1 29 5 13 6 27 2 32 -4 4 0 5 9 1 22 -7
34 46 16 73 -9 16 -9 24 0 40 7 10 10 25 8 32 -3 8 2 22 10 33 16 19 16 19 9
-4 -4 -14 -2 -21 4 -17 5 3 13 22 16 42 6 29 10 33 21 24 11 -9 15 -7 21 14 7
28 24 36 24 11 0 -8 5 -15 11 -15 5 0 7 -5 3 -12 -4 -6 -3 -8 3 -5 6 4 13 25
17 47 5 30 13 43 36 55 26 13 30 13 38 0 7 -13 10 -12 20 10 12 27 27 33 35
13 3 -9 9 -7 20 7 15 19 17 19 33 3 17 -17 19 -17 29 9 11 27 17 29 99 38 31
3 54 1 63 -7 12 -10 17 -9 24 5 6 9 17 17 24 17 18 0 18 -5 5 -31 -13 -23 -22
-21 135 -24 117 -2 230 -10 277 -21 13 -3 29 -6 36 -6 6 -1 12 -6 12 -12 0 -6
4 -5 9 2 6 11 11 10 25 -3 9 -9 16 -12 16 -6 0 7 8 8 23 2 12 -5 41 -15 65
-22 35 -10 42 -17 43 -38 2 -24 2 -25 6 -3 4 20 7 21 21 10 11 -9 14 -9 8 -1
-4 8 6 6 26 -5 18 -9 34 -20 36 -24 2 -4 10 -4 18 -1 8 3 14 0 14 -6 0 -6 9
-11 20 -11 10 0 24 -8 29 -17 6 -10 11 -14 11 -9 0 5 10 -2 23 -15 12 -14 25
-26 30 -27 21 -6 47 -29 47 -42 1 -13 3 -12 13 2 9 11 18 14 28 7 11 -7 10 -9
-5 -9 -19 0 -19 0 0 -17 10 -10 20 -25 22 -33 9 -46 52 -109 52 -76 0 8 -4 18
-10 21 -5 3 -7 19 -4 34 4 16 1 32 -5 35 -8 5 -8 13 0 28 6 12 7 18 1 14 -10
-6 -22 15 -22 41 0 9 6 13 15 9 17 -6 20 9 4 20 -7 4 -16 -1 -21 -11 -8 -14
-12 -15 -19 -4 -6 10 -9 11 -9 2 0 -7 -5 -13 -12 -13 -9 0 -9 3 0 12 16 16 15
28 -3 28 -9 0 -15 9 -15 25 0 19 -4 23 -17 18 -13 -5 -15 -2 -11 15 5 16 2 20
-14 17 -16 -3 -18 -2 -8 10 7 8 10 20 7 27 -4 8 -6 7 -6 -4 -1 -10 -5 -18 -10
-18 -19 0 -41 13 -41 24 0 6 -10 12 -22 13 -11 1 -24 6 -27 11 -3 5 -15 12
-26 17 -11 4 -22 9 -25 10 -3 2 -15 6 -27 10 -13 4 -23 11 -23 16 0 5 -7 6
-15 3 -11 -5 -15 1 -16 22 -1 24 -2 25 -6 7 -2 -13 -5 -23 -6 -23 -1 0 -23 7
-50 15 -26 8 -54 12 -62 9 -8 -4 -15 -2 -15 4 0 11 -164 37 -179 28 -5 -4 -12
-2 -15 3 -3 5 -61 10 -129 11 -67 1 -149 2 -182 3 -79 2 -204 -12 -227 -24
-10 -5 -18 -7 -18 -4 0 3 -17 -2 -37 -10 -21 -9 -39 -16 -40 -16 -14 2 -63
-13 -63 -19 0 -5 -8 -7 -17 -6 -9 2 -28 -8 -41 -22 -14 -13 -27 -20 -31 -14
-10 15 -41 10 -41 -6 0 -9 -2 -13 -5 -10 -11 10 7 58 21 58 8 0 14 5 14 11 0
5 5 7 10 4 6 -4 9 -1 8 5 -2 7 6 17 17 23 10 7 25 18 33 25 7 6 20 12 28 12 8
0 14 5 14 10 0 6 8 10 18 10 10 0 28 7 40 16 12 8 22 13 22 10 0 -3 15 1 34 9
19 8 54 19 78 24 25 6 53 13 63 17 14 6 16 4 10 -7 -8 -12 -6 -12 8 0 9 7 17
10 17 6 0 -4 7 -2 15 5 8 6 19 9 25 5 5 -3 10 -1 10 5 0 6 5 8 12 4 6 -4 54
-6 105 -6 73 2 93 -1 87 -10 -6 -10 -4 -11 7 0 16 15 33 16 23 1 -5 -8 -1 -8
13 0 11 6 22 9 24 7 2 -2 35 -7 73 -10 38 -3 72 -9 75 -13 3 -5 28 -9 55 -10
27 -1 52 -6 55 -10 3 -4 19 -9 36 -11 16 -2 32 -7 35 -10 3 -4 14 -8 26 -9 48
-5 74 -22 75 -50 2 -24 2 -25 6 -5 6 31 23 28 24 -5 l1 -28 8 25 7 25 11 -25
c9 -22 11 -22 12 -5 1 19 2 19 14 3 7 -10 16 -15 19 -12 3 4 10 -9 16 -27 l9
-34 1 30 c1 23 4 26 13 17 7 -7 12 -29 11 -50 -1 -25 0 -30 5 -17 4 11 15 21
24 23 12 2 16 -2 12 -11 -4 -10 3 -13 26 -9 23 3 30 0 30 -12 0 -10 5 -13 16
-9 15 5 15 8 2 17 -8 6 -16 16 -16 21 -1 6 -9 18 -17 28 -8 9 -11 17 -7 17 4
0 2 4 -5 8 -7 4 -9 24 -6 55 6 49 18 63 20 25 1 -13 7 -24 13 -26 7 -3 7 -9
-2 -20 -9 -12 -6 -11 10 2 l22 19 1 -34 c1 -19 1 -37 0 -41 0 -5 5 -8 13 -8 8
0 17 -9 21 -20 7 -22 -2 -43 -15 -35 -14 9 -28 -19 -23 -47 3 -15 8 -26 12
-24 4 3 14 -9 23 -25 12 -20 13 -31 6 -35 -7 -4 -8 -2 -4 4 4 7 3 12 -3 12 -5
0 -9 -9 -8 -19 1 -16 5 -18 19 -10 12 6 18 6 18 0 0 -6 7 -8 15 -5 17 7 21 44
4 44 -5 0 -7 5 -4 10 3 6 1 10 -5 10 -7 0 -10 7 -6 15 3 8 1 15 -4 15 -6 0
-10 5 -10 11 0 5 5 7 10 4 6 -3 10 4 11 17 0 22 1 22 9 3 5 -11 15 -40 21 -65
7 -25 14 -38 16 -29 2 9 23 24 45 33 23 8 39 19 35 22 -4 4 -13 1 -22 -6 -9
-7 -18 -10 -22 -7 -3 4 -12 2 -19 -4 -14 -11 -14 -5 -5 144 1 12 5 16 14 11 8
-6 8 -3 -2 9 -7 9 -11 24 -7 32 3 8 2 15 -3 15 -5 0 -9 12 -9 28 0 15 -2 36
-5 47 -2 11 0 26 6 33 6 8 6 12 -2 12 -6 0 -11 5 -11 11 0 6 -6 17 -14 25 -8
7 -12 23 -9 34 5 20 1 20 -176 20 -143 0 -181 -3 -175 -12 6 -10 4 -10 -7 0
-15 14 -129 17 -129 2 0 -5 7 -7 15 -4 10 4 15 0 15 -12 0 -16 2 -16 10 -4 7
11 11 8 20 -15 6 -15 9 -36 6 -44 -3 -12 -6 -9 -12 8 -6 20 -8 22 -13 8 -5
-14 -10 -15 -31 -4 -14 7 -35 12 -48 11 -12 -1 -25 3 -28 7 -10 16 -24 9 -24
-11 0 -31 -28 -22 -48 15 -6 12 -22 21 -38 23 -15 1 -31 8 -36 15 -5 8 -8 8
-8 0 0 -7 -16 -10 -47 -6 -27 2 -54 5 -60 5 -7 1 -13 5 -13 10 0 5 -4 6 -10 3
-5 -3 -49 -8 -97 -10 -49 -2 -101 -7 -116 -10 -16 -3 -48 -8 -70 -11 -62 -7
-70 -9 -94 -22 -20 -11 -23 -10 -23 5 0 15 -2 15 -15 -3 -8 -10 -15 -14 -15
-9 0 6 -4 4 -8 -2 -4 -7 -17 -14 -27 -16 -11 -2 -40 -13 -64 -26 l-44 -23 6
32 c5 23 3 29 -6 25 -6 -4 -3 0 7 9 10 8 23 13 27 10 5 -3 9 0 9 6 0 6 4 9 9
6 5 -3 12 1 15 10 4 10 14 14 26 11 11 -3 20 0 20 6 0 7 5 5 10 -3 8 -13 10
-13 10 2 0 16 -25 17 -311 18 -237 0 -315 -3 -327 -12 -12 -10 -14 -10 -8 0 5
8 -1 12 -18 12 -14 0 -26 -5 -26 -12z m150 -2 c0 -3 -4 -8 -10 -11 -5 -3 -10
-1 -10 4 0 6 5 11 10 11 6 0 10 -2 10 -4z m25 -37 c-3 -8 -15 -20 -26 -27 -23
-15 -20 -5 10 30 17 20 24 18 16 -3z m1405 -19 c0 9 6 5 15 -10 17 -30 18 -40
5 -40 -5 0 -10 8 -10 18 0 13 -2 14 -9 3 -10 -15 -16 -7 -25 34 l-6 30 15 -25
c9 -16 15 -19 15 -10z m53 -24 c3 4 10 -1 13 -10 5 -14 9 -15 16 -4 7 10 8 8
6 -6 -5 -34 -37 -27 -53 11 -18 43 -19 56 -2 25 7 -12 16 -20 20 -16z m-1087
-4 c1 -7 0 -8 -3 -2 -9 18 -21 11 -16 -10 3 -11 10 -17 16 -13 6 4 7 1 2 -7
-6 -10 -11 -10 -20 3 -7 9 -15 14 -18 10 -4 -3 -7 -2 -7 3 0 28 41 41 46 16z
m-556 -12 c0 -5 -5 -10 -11 -10 -5 0 -7 5 -4 10 3 6 8 10 11 10 2 0 4 -4 4
-10z m1785 2 c6 -4 11 -17 13 -30 3 -21 2 -22 -17 -10 -12 7 -21 21 -21 30 0
19 9 22 25 10z m111 -65 c-1 -14 -9 -23 -21 -25 -16 -3 -17 -1 -5 7 8 6 11 11
6 11 -6 0 -5 5 1 11 9 9 7 17 -7 32 -11 11 -17 24 -13 29 8 14 40 -39 39 -65z
m-177 3 c1 -13 0 -13 -9 0 -5 8 -9 24 -9 35 l0 20 9 -20 c5 -11 9 -27 9 -35z
m-1694 21 c-3 -6 -11 -11 -17 -11 -6 0 -6 6 2 15 14 17 26 13 15 -4z m1963 -9
c2 -9 5 -30 8 -47 l3 -30 -9 30 c-21 71 -23 80 -15 72 5 -4 11 -15 13 -25z
m-213 -6 c16 -6 17 -9 5 -16 -26 -17 -40 -11 -40 18 0 15 4 22 8 16 4 -6 16
-14 27 -18z m-1665 4 c0 -5 -5 -10 -11 -10 -5 0 -7 5 -4 10 3 6 8 10 11 10 2
0 4 -4 4 -10z m-77 -27 c-3 -7 -9 -10 -14 -7 -14 8 -11 21 5 21 8 0 12 -6 9
-14z m-36 -25 c-3 -8 -6 -5 -6 6 -1 11 2 17 5 13 3 -3 4 -12 1 -19z m1813 15
c0 -5 -5 -15 -10 -23 -7 -11 -12 -12 -21 -3 -6 6 -8 16 -5 22 8 12 36 15 36 4z
m-1812 -68 c-3 -3 -9 2 -12 12 -6 14 -5 15 5 6 7 -7 10 -15 7 -18z m193 2
c-10 -9 -11 -8 -5 6 3 10 9 15 12 12 3 -3 0 -11 -7 -18z m191 6 c-6 -2 -10 -8
-7 -13 3 -4 -2 -13 -10 -20 -10 -9 -15 -9 -15 -1 0 6 5 11 11 11 8 0 8 5 -1
15 -10 13 -9 15 11 14 13 0 18 -3 11 -6z m1618 -7 c0 -2 -8 -10 -17 -17 -16
-13 -17 -12 -4 4 13 16 21 21 21 13z m-4 -61 c1 -8 -2 -15 -6 -15 -5 0 -8 9
-7 20 1 21 10 18 13 -5z m-1989 -37 c-3 -8 -6 -5 -6 6 -1 11 2 17 5 13 3 -3 4
-12 1 -19z m393 7 c0 -8 -7 -15 -15 -15 -8 0 -15 -9 -15 -20 0 -11 -4 -20 -10
-20 -19 0 -10 39 10 45 11 3 20 11 20 16 0 5 2 9 5 9 3 0 5 -7 5 -15z m1597
-37 c-3 -8 -6 -5 -6 6 -1 11 2 17 5 13 3 -3 4 -12 1 -19z m-1981 -144 c-3 -8
-2 -12 4 -9 10 6 14 -7 11 -31 -1 -7 6 -15 15 -18 13 -5 14 -9 4 -22 -11 -13
-17 -8 -41 33 -29 49 -29 63 -2 63 10 0 13 -6 9 -16z m338 -105 c-3 -5 -13 -8
-22 -8 -15 1 -15 2 1 6 9 2 15 9 11 14 -3 5 -10 6 -16 3 -7 -4 -8 -2 -4 5 6 9
11 9 22 0 7 -6 11 -15 8 -20z m-191 -32 c3 -8 -1 -14 -8 -14 -7 0 -11 6 -8 14
3 7 6 13 8 13 2 0 5 -6 8 -13z m295 -152 c-3 -3 -9 2 -12 12 -6 14 -5 15 5 6
7 -7 10 -15 7 -18z m-378 -21 c0 -14 -4 -23 -9 -20 -5 4 -7 -4 -4 -15 7 -25
-14 -23 -31 4 -8 12 -7 20 3 29 11 11 12 10 6 -1 -5 -9 -4 -12 3 -7 6 4 9 13
5 21 -3 9 1 15 11 15 11 0 16 -9 16 -26z m1877 -76 c-3 -8 -6 -5 -6 6 -1 11 2
17 5 13 3 -3 4 -12 1 -19z m-1871 -62 c-1 -69 -8 -97 -22 -84 -3 3 0 15 7 26
11 17 10 26 -1 49 -22 44 -23 50 -5 28 17 -20 17 -20 10 5 -4 14 -10 31 -12
38 -3 6 2 12 10 12 12 0 14 -15 13 -74z m1964 -4 c0 -4 -5 -13 -12 -20 -9 -9
-9 -12 0 -12 20 0 14 -48 -7 -55 -11 -3 -22 -12 -25 -20 -4 -13 -1 -12 19 1
21 13 25 14 25 2 0 -8 -5 -19 -12 -26 -9 -9 -8 -12 5 -12 17 0 19 -19 5 -31
-4 -3 -4 -19 1 -36 9 -31 2 -42 -34 -49 -5 -1 -12 -3 -15 -4 -21 -8 -60 -4
-60 7 0 7 3 12 8 11 4 -2 17 4 30 13 l23 17 -33 -3 c-18 -2 -37 -3 -42 -4 -4
-1 -6 -11 -3 -23 5 -21 5 -21 -7 -6 -7 10 -16 15 -19 11 -4 -3 -7 -1 -7 5 0 7
8 12 18 13 15 0 14 2 -3 10 -19 9 -19 9 1 6 13 -3 26 3 33 15 7 12 8 17 2 13
-6 -3 -11 2 -12 12 0 10 -3 13 -6 6 -6 -17 -33 -16 -33 1 0 14 55 30 71 20 5
-3 9 2 9 10 0 12 -5 14 -23 7 -13 -5 -29 -6 -36 -1 -21 12 6 23 51 22 35 -2
38 0 37 26 -1 16 -3 20 -6 10 -2 -10 -9 -18 -15 -18 -5 0 -7 7 -4 16 6 15 -4
16 -96 10 -173 -12 -329 -37 -433 -71 -17 -5 -17 -5 -4 4 33 21 217 60 344 72
72 7 133 17 138 23 5 8 9 8 15 -1 7 -12 63 -13 56 -1 -2 4 6 14 18 22 25 18
38 20 38 8z m50 -17 c-7 -8 -9 -15 -4 -15 4 0 2 -6 -4 -12 -10 -10 -15 -10
-22 2 -7 11 -5 19 7 28 23 17 38 15 23 -3z m-2039 -18 c-10 -9 -11 -8 -5 6 3
10 9 15 12 12 3 -3 0 -11 -7 -18z m799 3 c0 -5 -14 -7 -32 -3 -46 8 -48 13 -5
13 21 0 37 -4 37 -10z m-407 -7 c-29 -2 -77 -2 -105 0 -29 2 -6 3 52 3 58 0
81 -1 53 -3z m224 -10 c-7 -7 -149 -4 -156 3 -2 2 33 4 79 4 46 0 80 -3 77 -7z
m208 -18 c99 -13 281 -62 271 -73 -3 -2 -33 5 -68 17 -74 24 -200 48 -318 60
-55 5 -69 9 -40 9 25 1 94 -5 155 -13z m1065 -5 c0 -5 -7 -10 -16 -10 -8 0
-12 5 -9 10 3 6 10 10 16 10 5 0 9 -4 9 -10z m-1856 -58 c-6 -14 -8 -13 -13 8
-4 14 -2 30 4 36 13 15 20 -19 9 -44z m1748 8 c-3 -11 0 -11 12 -1 10 8 16 9
21 1 3 -5 -1 -13 -10 -16 -14 -6 -13 -8 3 -23 14 -12 17 -23 11 -43 -5 -20 -2
-31 12 -44 10 -9 19 -24 19 -32 0 -9 -7 -7 -21 9 -11 13 -18 19 -15 12 4 -6 1
-15 -5 -19 -8 -4 -7 -9 2 -16 11 -8 11 -9 -1 -5 -8 2 -25 0 -37 -4 -27 -10
-31 8 -11 41 10 16 9 32 -4 82 -9 35 -14 67 -11 71 8 13 38 2 35 -13z m-1774
-41 c-3 -8 -7 -3 -11 10 -4 17 -3 21 5 13 5 -5 8 -16 6 -23z m1145 6 c20 -8
49 -15 65 -15 16 0 46 7 65 15 20 8 39 15 42 15 10 0 -18 -27 -30 -28 -89 -12
-112 -11 -150 7 -48 23 -42 27 8 6z m-1136 -62 c1 -24 0 -25 -6 -8 -7 17 -6
35 2 35 2 0 3 -12 4 -27z m76 -38 c-3 -9 -8 -14 -10 -11 -3 3 -2 9 2 15 9 16
15 13 8 -4z m1893 -40 c-1 -14 -6 -28 -9 -32 -12 -11 -7 -24 6 -17 8 6 8 3 -1
-9 -15 -18 -7 -41 10 -31 8 5 9 1 4 -11 -4 -11 -2 -22 6 -27 10 -6 10 -10 1
-16 -8 -5 -10 -18 -6 -32 3 -14 5 -49 4 -78 -1 -30 3 -60 10 -68 9 -12 6 -14
-20 -14 -17 0 -31 5 -31 12 0 6 -6 3 -14 -8 -8 -10 -18 -16 -22 -11 -4 4 -3 7
3 7 6 0 11 20 11 45 1 25 -3 43 -7 40 -5 -2 -11 1 -14 9 -6 15 19 26 42 18 10
-3 11 -6 1 -12 -10 -6 -10 -12 3 -25 16 -15 17 -15 17 2 0 11 6 25 12 31 10
10 10 15 -2 22 -9 6 -17 5 -21 -1 -4 -7 -9 -4 -12 5 -5 12 -14 15 -31 10 -13
-3 -27 -1 -30 5 -4 6 -3 11 2 11 15 0 31 46 21 61 -6 10 -2 16 14 20 12 3 20
12 18 20 -6 24 -9 84 -4 92 2 4 13 7 23 7 14 0 18 -6 16 -25z m-1959 -37 c-3
-8 -6 -5 -6 6 -1 11 2 17 5 13 3 -3 4 -12 1 -19z m1235 5 c8 -10 29 -52 47
-93 50 -114 61 -125 131 -140 103 -22 308 -14 390 15 46 16 48 13 52 -72 2
-29 8 -53 13 -53 6 0 1 -7 -9 -15 -10 -8 -23 -12 -29 -8 -6 3 -7 1 -3 -5 5 -8
13 -9 25 -2 16 8 18 5 17 -20 -1 -27 -16 -45 -16 -20 0 6 -8 10 -17 10 -12 0
-14 -3 -6 -8 7 -4 11 -17 10 -30 -1 -25 -27 -40 -27 -15 0 13 -2 14 -17 2 -15
-12 -16 -12 -8 1 4 8 -1 6 -11 -5 -13 -12 -19 -30 -17 -50 2 -16 0 -24 -3 -17
-3 6 -12 12 -20 12 -9 0 -13 -4 -9 -9 6 -10 -21 -41 -36 -41 -5 0 -9 5 -9 11
0 7 -10 5 -25 -5 -24 -16 -25 -16 -25 4 0 22 -15 25 -54 10 -21 -8 -26 -7 -26
6 0 10 -6 14 -15 11 -8 -4 -17 -2 -20 3 -4 6 -15 10 -26 10 -16 0 -17 -3 -7
-19 7 -11 15 -18 19 -15 11 6 18 -9 21 -44 2 -31 2 -31 28 -15 l25 16 -19 -21
c-16 -19 -17 -23 -3 -36 8 -8 16 -14 18 -13 2 2 -8 -9 -23 -24 -16 -15 -28
-32 -28 -38 0 -6 -6 -10 -12 -9 -7 2 -14 -7 -16 -20 -2 -13 -10 -26 -18 -29
-8 -3 -14 -11 -14 -19 0 -8 -3 -13 -7 -13 -17 3 -24 -2 -17 -12 4 -7 19 3 40
25 22 23 43 36 60 36 21 0 25 4 19 17 -5 15 -3 15 13 -2 19 -20 19 -20 0 -29
-10 -5 -17 -15 -14 -21 2 -6 -2 -12 -9 -12 -11 0 -11 5 -4 21 10 20 9 20 -5 2
-11 -13 -12 -24 -6 -36 5 -10 6 -21 2 -25 -4 -4 0 -5 8 -3 9 1 15 -1 15 -7 0
-5 -5 -9 -12 -9 -14 2 -13 -38 2 -48 6 -5 5 -8 -3 -8 -7 0 -11 -4 -7 -9 3 -6
-3 -14 -12 -20 -10 -6 -13 -11 -8 -11 6 0 -5 -7 -24 -16 -19 -8 -36 -12 -39
-9 -3 3 0 5 6 5 6 0 9 7 5 16 -6 15 -8 15 -20 -2 -7 -10 -13 -14 -13 -10 0 5
-8 -2 -18 -14 -17 -21 -59 -19 -45 3 3 6 1 7 -6 3 -7 -5 -9 -16 -5 -29 6 -20
5 -21 -11 -7 -17 14 -18 13 -12 -2 5 -13 1 -18 -13 -18 -31 0 -35 1 -32 12 1
5 -2 7 -8 3 -6 -3 -8 -11 -5 -16 4 -5 -4 -5 -19 1 -14 5 -28 5 -30 1 -8 -12
-56 -20 -62 -10 -3 5 -14 4 -25 -1 -10 -6 -19 -8 -19 -5 0 3 -9 1 -20 -5 -16
-8 -20 -8 -18 2 3 14 -15 15 -47 2 -18 -7 -19 -6 -5 11 10 12 10 16 2 11 -7
-4 -19 -2 -27 4 -12 10 -15 9 -15 -4 0 -9 -3 -15 -7 -15 -18 3 -30 -2 -57 -26
-16 -13 -33 -22 -39 -18 -6 3 -7 1 -3 -5 4 -7 2 -12 -3 -12 -6 0 -11 -6 -11
-14 0 -8 -8 -13 -17 -12 -10 2 -18 8 -18 15 0 6 -7 16 -15 21 -10 7 -11 10 -2
10 6 0 12 7 12 15 0 8 5 16 10 16 34 5 45 2 42 -11 -3 -12 -1 -13 10 -2 10 10
7 17 -17 37 -30 23 -30 24 -10 39 19 15 18 15 -13 5 -19 -7 -30 -14 -25 -18 5
-3 12 -13 15 -22 5 -12 0 -16 -18 -16 -22 0 -23 1 -7 12 16 12 16 14 -10 26
-27 12 -35 47 -10 42 7 -2 11 6 10 17 -1 20 -17 29 -17 10 0 -6 -13 -9 -28 -8
-16 1 -29 8 -29 15 0 6 4 10 9 7 4 -3 8 0 8 7 0 7 -10 9 -25 7 -18 -4 -22 -2
-16 6 5 6 8 24 7 39 -2 15 1 27 5 27 5 0 9 -7 9 -15 0 -8 5 -15 11 -15 5 0 7
5 4 10 -11 18 34 5 48 -14 7 -9 19 -16 27 -14 8 2 15 -4 15 -12 0 -19 28 -31
37 -16 6 8 8 7 8 -1 0 -7 7 -13 15 -13 9 0 18 -7 21 -15 4 -9 19 -15 40 -15
19 0 34 -4 34 -9 0 -14 29 -21 36 -9 5 7 2 8 -6 3 -8 -5 -11 -4 -6 3 4 6 13 9
22 5 11 -4 12 -9 4 -18 -7 -9 -7 -15 -1 -19 5 -4 12 3 16 14 6 19 35 23 51 7
10 -9 54 -9 54 1 0 4 14 8 31 9 39 3 106 37 135 68 22 24 43 23 23 -2 -9 -9
-8 -13 0 -13 6 0 11 3 12 8 0 4 2 15 4 25 2 9 -1 15 -6 11 -5 -3 -9 1 -9 8 0
8 -5 6 -11 -4 -5 -10 -15 -18 -20 -18 -6 0 -7 5 -3 12 5 7 3 8 -7 2 -29 -18
-41 -12 -20 10 12 12 18 26 14 30 -4 4 -8 15 -8 23 0 9 -7 18 -15 20 -13 4
-13 3 0 -6 8 -6 11 -11 5 -12 -11 -2 -49 -5 -79 -8 -18 -1 -18 -3 4 -26 13
-14 20 -25 15 -25 -5 0 -4 -5 3 -12 18 -18 14 -32 -13 -44 -19 -9 -27 -9 -36
2 -10 12 -13 12 -24 -3 -8 -11 -18 -14 -31 -9 -11 4 -14 10 -8 14 6 4 10 26 9
50 -1 25 4 47 12 54 11 9 12 13 1 19 -20 13 -31 10 -24 -7 3 -8 1 -24 -5 -35
-7 -14 -7 -24 -1 -32 15 -17 -9 -46 -36 -44 -30 2 -28 15 3 23 26 6 32 18 15
29 -6 4 -8 12 -4 18 3 7 -1 4 -9 -5 -8 -10 -17 -15 -20 -11 -4 3 -7 -2 -7 -13
0 -15 -2 -16 -10 -4 -6 10 0 22 23 44 18 16 26 25 18 21 -10 -6 -12 -4 -5 6
14 22 12 32 -10 57 -23 26 -76 57 -76 45 0 -5 -4 -2 -9 5 -7 11 -9 10 -14 -3
-4 -9 -3 -13 3 -10 14 9 12 -9 -2 -23 -9 -9 -8 -12 4 -12 9 0 18 4 20 10 2 6
14 4 30 -4 15 -8 29 -12 31 -10 2 3 10 -2 16 -10 10 -12 9 -17 -7 -27 -11 -7
-18 -19 -15 -26 3 -9 -3 -16 -15 -19 -14 -4 -18 -12 -15 -27 3 -13 1 -18 -4
-11 -4 6 -22 15 -40 18 -28 7 -31 5 -26 -13 3 -12 9 -19 13 -16 5 3 11 1 15
-5 9 -14 -19 -12 -33 2 -10 10 -14 10 -21 0 -5 -9 -13 -7 -29 8 -12 12 -23 16
-27 10 -4 -7 -13 -6 -26 0 -11 6 -17 15 -14 19 2 5 -5 11 -16 14 -14 4 -18 10
-13 18 5 9 2 10 -10 6 -12 -5 -24 1 -38 15 -11 13 -16 16 -12 8 7 -13 5 -13
-9 -1 -9 7 -17 10 -17 5 0 -4 -5 -3 -11 3 -12 12 -59 -2 -59 -18 0 -4 -12 -6
-27 -3 -18 3 -23 1 -15 -4 10 -7 11 -14 1 -35 -13 -28 -29 -36 -29 -15 0 9 -3
9 -12 0 -16 -16 -28 -15 -28 3 0 8 -3 14 -7 13 -5 0 -16 2 -25 6 -14 6 -15 12
-8 26 14 26 12 33 -5 27 -25 -10 -26 9 -1 36 13 14 22 28 19 31 -3 3 10 9 28
13 34 9 52 33 25 33 -9 0 -16 6 -16 13 0 9 -2 9 -8 -1 -5 -7 -17 -11 -28 -9
-26 4 -77 44 -70 55 2 4 0 14 -6 22 -8 12 -9 12 -4 -2 3 -12 0 -18 -9 -18 -9
0 -15 9 -15 22 0 12 -3 18 -6 15 -10 -9 -46 12 -39 24 4 5 1 9 -5 9 -7 0 -9
-8 -5 -19 3 -11 8 -29 10 -40 2 -12 7 -26 10 -31 3 -6 1 -10 -5 -10 -12 0 -14
4 -30 85 -6 33 -16 76 -21 95 -9 31 -12 60 -18 169 0 13 -4 21 -8 18 -3 -4
-11 0 -18 9 -10 14 -12 14 -24 0 -10 -12 -11 -16 -1 -16 10 0 10 -3 0 -15 -21
-25 -30 -17 -30 29 0 31 -5 49 -17 58 -10 7 -19 20 -19 28 -1 8 -3 22 -4 30
-2 8 0 27 4 42 8 27 8 27 33 -23 19 -37 35 -55 59 -65 70 -30 212 -65 284 -71
41 -3 81 -12 88 -20 10 -10 10 -13 1 -13 -7 0 -9 -3 -5 -7 4 -4 16 3 26 17 17
22 19 23 25 7 4 -9 12 -17 17 -17 6 0 8 7 4 15 -3 8 -1 15 4 15 6 0 10 -5 10
-11 0 -8 5 -7 15 1 13 11 18 11 28 0 10 -10 8 -12 -6 -7 -10 4 -16 3 -12 -3 3
-5 19 -8 35 -6 18 2 30 -1 30 -8 0 -8 2 -8 8 0 4 6 17 10 29 9 12 -1 19 3 16
8 -3 5 0 7 8 5 8 -3 13 -12 11 -19 -2 -8 12 1 32 20 19 19 32 39 29 44 -3 6
-1 7 4 4 11 -7 90 107 132 190 11 23 29 47 38 52 30 17 98 13 115 -6z m-917
-34 c4 -6 13 -8 21 -5 8 3 14 1 14 -4 0 -6 -4 -10 -9 -10 -5 0 -11 -9 -14 -21
-3 -12 -11 -19 -17 -17 -6 2 -10 7 -8 11 2 5 -5 13 -14 18 -10 6 -18 17 -18
24 0 17 36 20 45 4z m-186 -56 c1 -7 -8 -13 -19 -13 -11 0 -20 -4 -20 -10 0
-18 -18 -11 -23 10 -3 10 1 24 9 31 8 6 14 8 14 3 0 -5 6 0 12 11 11 19 11 19
19 0 4 -11 8 -26 8 -32z m1268 41 c-3 -3 -12 -4 -19 -1 -8 3 -5 6 6 6 11 1 17
-2 13 -5z m88 -4 c-3 -5 -12 -7 -20 -3 -8 3 -15 1 -15 -5 0 -6 -10 -8 -22 -4
-21 5 -21 6 -2 13 28 11 66 11 59 -1z m-916 -38 c1 14 5 16 25 8 13 -5 26 -7
28 -4 3 2 5 -3 5 -11 0 -20 -27 -28 -34 -9 -3 10 -8 12 -12 5 -4 -6 -17 -8
-29 -4 -18 4 -20 8 -10 20 10 13 13 13 19 -4 7 -16 8 -16 8 -1z m1247 -17 c1
-8 -2 -15 -6 -15 -5 0 -8 9 -7 20 1 21 10 18 13 -5z m-1789 -7 c-3 -8 -6 -5
-6 6 -1 11 2 17 5 13 3 -3 4 -12 1 -19z m-167 -41 c0 -20 -24 1 -27 23 -3 24
-3 24 11 5 9 -11 16 -24 16 -28z m1852 21 c-6 -6 -15 -8 -19 -4 -4 4 -1 11 7
16 19 12 27 3 12 -12z m8 -31 c0 -5 -9 -7 -20 -4 -11 3 -20 1 -20 -4 0 -5 -10
-9 -22 -9 -23 0 -22 1 2 13 29 15 60 17 60 4z m-1810 -42 c0 -8 -2 -15 -4 -15
-2 0 -6 7 -10 15 -3 8 -1 15 4 15 6 0 10 -7 10 -15z m1817 9 c-3 -3 -12 -4
-19 -1 -8 3 -5 6 6 6 11 1 17 -2 13 -5z m-104 -11 c-13 -2 -35 -2 -50 0 -16 2
-5 4 22 4 28 0 40 -2 28 -4z m-1676 -53 c2 -11 -2 -20 -7 -20 -6 0 -10 12 -10
27 0 29 12 24 17 -7z m235 12 c-7 -2 -12 -8 -12 -13 0 -6 3 -8 8 -5 4 2 8 -14
9 -37 0 -23 2 -48 4 -56 2 -7 -2 -16 -10 -19 -10 -3 -13 2 -9 22 3 15 2 28 -2
31 -4 2 -7 24 -8 49 -2 39 0 45 15 39 11 -4 12 -8 5 -11z m-52 -27 c0 -2 -7
-8 -15 -15 -12 -10 -15 -10 -15 2 0 8 7 15 15 15 8 0 15 -1 15 -2z m670 1 c0
-3 -4 -8 -10 -11 -5 -3 -10 -1 -10 4 0 6 5 11 10 11 6 0 10 -2 10 -4z m-803
-21 c0 -8 -4 -12 -9 -9 -4 3 -8 9 -8 15 0 5 4 9 8 9 5 0 9 -7 9 -15z m136 -40
c-3 -9 -8 -14 -10 -11 -3 3 -2 9 2 15 9 16 15 13 8 -4z m1782 5 c-3 -5 -12
-10 -18 -10 -7 0 -6 4 3 10 19 12 23 12 15 0z m-1845 -34 c0 -2 -7 -9 -15 -16
-12 -10 -15 -10 -15 4 0 9 7 16 15 16 8 0 15 -2 15 -4z m80 -9 c0 -8 -7 -14
-15 -14 -11 0 -12 4 -4 14 6 7 13 13 15 13 2 0 4 -6 4 -13z m1800 -1 c0 -3 -4
-8 -10 -11 -5 -3 -10 -1 -10 4 0 6 5 11 10 11 6 0 10 -2 10 -4z m-1875 -66 c3
-5 -1 -10 -9 -10 -9 0 -16 5 -16 10 0 6 4 10 9 10 6 0 13 -4 16 -10z m1835
-20 c-11 -7 -12 -10 -2 -10 7 0 10 -4 7 -10 -10 -16 -22 -12 -22 8 0 17 17 35
26 26 3 -3 -1 -9 -9 -14z m-46 -18 c-14 -9 -24 -62 -13 -62 17 0 9 -25 -11
-38 -16 -10 -20 -10 -21 0 0 7 -1 32 -3 54 -2 31 1 41 11 37 7 -3 13 0 13 6 0
6 8 11 18 11 10 0 13 -3 6 -8z m86 -37 c0 -8 -4 -15 -10 -15 -5 0 -10 7 -10
15 0 8 5 15 10 15 6 0 10 -7 10 -15z m-37 -8 c3 -7 -3 -18 -13 -25 -15 -9 -19
-7 -23 9 -3 10 -1 17 3 14 5 -3 11 -1 15 5 8 13 12 13 18 -3z m-143 -37 c-8
-5 -10 -10 -5 -10 6 0 10 -11 10 -24 0 -17 -3 -21 -11 -15 -18 15 -14 59 5 59
14 0 14 -2 1 -10z m-44 -27 c-10 -10 -19 5 -10 18 6 11 8 11 12 0 2 -7 1 -15
-2 -18z m-1576 -7 c0 -7 -7 -13 -15 -13 -15 0 -20 18 -9 30 9 9 24 -2 24 -17z
m1695 -16 c-3 -5 -12 -10 -18 -10 -7 0 -6 4 3 10 19 12 23 12 15 0z m-1792
-37 c5 -26 4 -26 -9 -8 -15 21 -19 49 -5 41 5 -3 11 -18 14 -33z m367 6 c0 -4
7 -6 15 -3 8 4 15 1 15 -5 0 -17 -37 -13 -44 5 -3 8 -11 12 -17 8 -8 -4 -9 -3
-5 4 7 12 36 5 36 -9z m1250 -4 c0 -14 -27 -28 -40 -20 -5 3 -7 12 -4 20 4 8
10 12 15 9 5 -3 6 -10 3 -16 -5 -7 -2 -8 5 -4 7 5 10 15 7 23 -3 8 -1 11 4 8
6 -3 10 -12 10 -20z m-1290 -17 c0 -4 -4 -8 -9 -8 -6 0 -12 4 -15 8 -3 5 1 9
9 9 8 0 15 -4 15 -9z m50 -28 c-6 -11 -16 -17 -25 -14 -11 5 -12 9 -2 20 19
22 40 18 27 -6z m1490 9 c0 -18 -30 -41 -46 -35 -8 3 -13 2 -10 -3 8 -13 -25
-24 -37 -12 -13 13 0 31 22 31 10 0 24 7 31 15 14 17 40 20 40 4z m-240 -10
c0 -5 -4 -7 -10 -4 -5 3 -10 -2 -10 -11 0 -10 -3 -15 -6 -11 -9 9 3 37 16 37
5 0 10 -5 10 -11z m310 -54 c0 -19 -4 -35 -9 -35 -10 0 -21 57 -13 65 14 13
22 2 22 -30z m-1526 16 c3 -5 0 -11 -7 -14 -8 -3 -14 1 -14 9 0 16 13 19 21 5z
m1471 -21 c3 -6 3 -19 0 -30 -6 -18 -8 -18 -22 -5 -8 9 -12 22 -9 30 6 17 22
20 31 5z m-41 -33 c2 -15 0 -27 -5 -27 -5 0 -9 6 -10 13 0 10 -2 10 -6 0 -7
-20 -23 -15 -23 7 0 10 8 23 17 29 21 11 21 12 27 -22z m-280 -8 c-2 -4 3 -9
13 -11 15 -3 15 -4 0 -20 -15 -14 -15 -17 -2 -21 11 -4 10 -4 -2 -3 -11 1 -18
10 -18 21 0 11 -3 25 -7 31 -4 6 -1 11 7 11 8 0 12 -4 9 -8z m-964 -54 c10
-12 16 -13 29 -3 13 10 14 10 4 -2 -9 -10 -9 -17 -2 -26 8 -10 2 -21 -21 -44
-18 -17 -34 -29 -37 -26 -3 3 9 18 26 34 34 30 32 49 -3 30 -19 -10 -20 -10
-8 5 20 24 6 40 -21 25 -20 -10 -21 -10 -8 5 17 21 25 21 41 2z m937 -17 c-3
-7 -5 -2 -5 12 0 14 2 19 5 13 2 -7 2 -19 0 -25z m124 15 c13 -16 12 -17 -3
-4 -17 13 -22 21 -14 21 2 0 10 -8 17 -17z m-61 -17 c0 -3 -4 -8 -10 -11 -5
-3 -10 -1 -10 4 0 6 5 11 10 11 6 0 10 -2 10 -4z m-1600 -20 c0 -3 -4 -8 -10
-11 -5 -3 -10 -1 -10 4 0 6 5 11 10 11 6 0 10 -2 10 -4z m1210 -7 c0 -6 7 -9
15 -6 8 4 17 2 20 -2 3 -5 -2 -12 -11 -15 -22 -8 -22 -8 -34 14 -7 14 -7 20 0
20 5 0 10 -5 10 -11z m375 -9 c-3 -5 -11 -10 -16 -10 -6 0 -7 5 -4 10 3 6 11
10 16 10 6 0 7 -4 4 -10z m-1554 -37 c-12 -20 -14 -14 -5 12 4 9 9 14 11 11 3
-2 0 -13 -6 -23z m1439 -58 c-5 -7 -6 -16 -2 -20 4 -5 1 -5 -5 -1 -7 4 -13 3
-13 -2 0 -12 -68 -43 -75 -33 -6 11 38 41 60 41 8 0 15 6 15 13 0 8 7 14 15
14 10 0 12 -4 5 -12z m-1419 -12 c13 -16 12 -17 -3 -4 -10 7 -18 15 -18 17 0
8 8 3 21 -13z m1326 -13 c-26 -21 -53 -27 -42 -10 4 6 10 8 15 5 4 -3 13 2 20
10 7 8 17 15 23 15 5 0 -2 -9 -16 -20z m207 -44 c-3 -8 0 -17 5 -21 16 -9 3
-25 -14 -18 -18 6 -19 25 -3 41 16 16 19 15 12 -2z m-564 -3 c-1 -18 -19 -35
-29 -28 -9 5 -9 10 0 21 12 15 29 19 29 7z m340 -8 c0 -8 -4 -15 -9 -15 -13 0
-22 16 -14 24 11 11 23 6 23 -9z m64 7 c3 -5 -1 -9 -9 -9 -8 0 -15 4 -15 9 0
4 4 8 9 8 6 0 12 -4 15 -8z m-34 -12 c0 -5 -5 -10 -11 -10 -5 0 -7 5 -4 10 3
6 8 10 11 10 2 0 4 -4 4 -10z m435 -10 c-3 -5 -10 -10 -16 -10 -5 0 -9 5 -9
10 0 6 7 10 16 10 8 0 12 -4 9 -10z m-345 -13 c0 -16 -126 -122 -146 -122 -8
0 -14 4 -13 9 0 5 -5 13 -13 18 -10 7 -8 8 5 4 11 -3 24 2 34 14 10 11 21 20
25 20 4 0 28 16 54 35 51 39 54 40 54 22z m70 -5 c0 -7 -9 -16 -20 -19 -11 -3
-20 -9 -20 -13 0 -4 -10 -10 -22 -14 -19 -5 -21 -8 -8 -16 11 -7 12 -10 2 -10
-18 0 -43 -26 -34 -35 4 -4 2 -6 -3 -4 -17 4 -95 -33 -89 -42 3 -5 0 -9 -5 -9
-24 0 -8 27 34 55 24 16 42 32 39 36 -2 4 13 15 34 24 43 20 73 45 67 55 -2 4
2 7 10 7 8 0 15 -7 15 -15z m-261 -52 c-7 -5 -16 -7 -20 -4 -4 2 -10 0 -14 -6
-3 -5 -15 -10 -25 -10 -10 0 -22 -9 -25 -21 -4 -11 -9 -18 -12 -16 -2 3 1 15
7 27 14 26 93 65 99 48 2 -5 -3 -14 -10 -18z m-526 5 c-3 -9 -8 -14 -10 -11
-3 3 -2 9 2 15 9 16 15 13 8 -4z m617 8 c-8 -3 -23 -12 -32 -21 -10 -8 -18
-12 -18 -7 0 12 33 34 50 34 13 -1 13 -1 0 -6z m-380 -17 c0 -3 -4 -8 -10 -11
-5 -3 -10 -1 -10 4 0 6 5 11 10 11 6 0 10 -2 10 -4z m77 -41 c-41 -38 -53 -44
-39 -19 8 14 61 54 72 54 3 0 -12 -16 -33 -35z m-200 0 c-15 -14 -33 -25 -40
-25 -7 0 -4 6 5 14 10 7 14 17 10 21 -4 5 -2 6 3 2 6 -3 17 -2 25 4 27 16 25
9 -3 -16z m-47 11 c0 -3 -4 -8 -10 -11 -5 -3 -10 -1 -10 4 0 6 5 11 10 11 6 0
10 -2 10 -4z m714 -10 c-21 -15 -30 -14 -19 3 3 6 14 11 23 11 13 0 13 -2 -4
-14z m-746 -21 c1 -14 -2 -25 -7 -25 -6 0 -8 36 -2 48 4 7 7 -1 9 -23z m477
-1 c-46 -20 -64 -15 -25 5 19 11 39 16 45 13 5 -3 -4 -12 -20 -18z m310 -4 c3
-5 -1 -10 -9 -10 -9 0 -16 -4 -16 -10 0 -5 -7 -10 -15 -10 -20 0 -19 10 3 26
21 16 29 17 37 4z m-755 -14 c0 -2 -8 -10 -17 -17 -16 -13 -17 -12 -4 4 13 16
21 21 21 13z m448 -12 c-1 -5 -9 -9 -16 -10 -10 -2 -11 1 -1 12 12 14 24 13
17 -2z m392 12 c0 -3 -4 -8 -10 -11 -5 -3 -10 -1 -10 4 0 6 5 11 10 11 6 0 10
-2 10 -4z m-430 -10 c0 -3 -4 -8 -10 -11 -5 -3 -10 -1 -10 4 0 6 5 11 10 11 6
0 10 -2 10 -4z m205 -6 c-3 -5 -18 -9 -33 -9 l-27 1 30 8 c17 4 31 8 33 9 2 0
0 -3 -3 -9z"/>
<path d="M1871 2484 c0 -11 3 -14 6 -6 3 7 2 16 -1 19 -3 4 -6 -2 -5 -13z"/>
<path d="M2220 1459 c0 -5 5 -7 10 -4 6 3 10 8 10 11 0 2 -4 4 -10 4 -5 0 -10
-5 -10 -11z"/>
<path d="M2245 1209 c-4 -6 -5 -12 -2 -15 2 -3 7 2 10 11 7 17 1 20 -8 4z"/>
<path d="M670 770 c0 -5 5 -10 11 -10 5 0 7 5 4 10 -3 6 -8 10 -11 10 -2 0 -4
-4 -4 -10z"/>
<path d="M1157 723 c-3 -5 -1 -17 4 -28 6 -17 7 -16 6 8 -1 28 -3 32 -10 20z"/>
<path d="M805 639 c-4 -6 -4 -13 -1 -16 3 -4 6 -1 6 6 0 7 4 10 9 6 5 -3 12
-1 16 5 3 5 -1 10 -9 10 -8 0 -18 -5 -21 -11z"/>
<path d="M928 603 c-14 -2 -29 -12 -33 -21 -5 -14 -4 -15 6 -4 7 6 30 12 50
12 21 0 41 5 44 10 6 10 -15 11 -67 3z"/>
<path d="M855 561 c-3 -5 -2 -12 3 -15 5 -3 9 1 9 9 0 17 -3 19 -12 6z"/>
<path d="M880 555 c5 -23 -1 -36 -12 -29 -7 4 -8 3 -4 -4 4 -7 11 -12 16 -12
14 0 21 33 10 44 -7 7 -11 7 -10 1z"/>
<path d="M988 523 c7 -3 16 -2 19 1 4 3 -2 6 -13 5 -11 0 -14 -3 -6 -6z"/>
<path d="M1315 520 c-13 -6 -15 -9 -5 -9 8 0 22 4 30 9 18 12 2 12 -25 0z"/>
<path d="M1474 496 c11 -9 24 -16 30 -16 12 0 7 5 -24 19 -24 11 -24 11 -6 -3z"/>
<path d="M1530 485 c0 -9 6 -12 15 -9 8 4 15 7 15 9 0 2 -7 5 -15 9 -9 3 -15
0 -15 -9z"/>
<path d="M1315 479 c-4 -6 -5 -12 -2 -15 2 -3 7 2 10 11 7 17 1 20 -8 4z"/>
<path d="M1483 443 c4 -3 -1 -15 -10 -26 -18 -19 -17 -19 5 -6 23 15 30 39 10
39 -6 0 -8 -3 -5 -7z"/>
<path d="M1700 419 c0 -5 5 -7 10 -4 6 3 10 8 10 11 0 2 -4 4 -10 4 -5 0 -10
-5 -10 -11z"/>
<path d="M1510 410 c0 -5 0 -12 0 -15 0 -12 14 -4 16 10 1 8 -2 15 -7 15 -5 0
-9 -4 -9 -10z"/>
<path d="M1780 363 c0 -16 1 -16 35 1 l28 15 -31 -1 c-20 -1 -32 -6 -32 -15z"/>
<path d="M1738 353 c-10 -2 -18 -11 -18 -18 0 -18 26 -9 34 11 3 8 4 13 3 13
-1 -1 -10 -3 -19 -6z"/>
<path d="M1800 345 c-7 -9 -10 -18 -6 -22 3 -3 6 -1 6 6 0 7 3 10 8 8 4 -3 13
1 20 9 10 11 10 14 -1 14 -8 0 -20 -7 -27 -15z"/>
<path d="M1250 243 c-14 -7 -18 -13 -10 -13 17 0 47 17 40 23 -3 2 -16 -2 -30
-10z"/>
<path d="M1546 2591 c-4 -5 3 -7 14 -4 23 6 26 13 6 13 -8 0 -17 -4 -20 -9z"/>
<path d="M2319 2573 c-17 -20 -18 -23 -3 -10 11 9 24 14 29 10 4 -5 5 -3 2 4
-4 6 -1 14 5 16 7 3 8 6 2 6 -6 1 -21 -11 -35 -26z"/>
<path d="M2243 2554 c0 -7 6 -10 14 -7 7 3 13 8 13 12 0 4 -6 8 -13 8 -8 0
-14 -6 -14 -13z"/>
<path d="M911 2544 c0 -11 3 -14 6 -6 3 7 2 16 -1 19 -3 4 -6 -2 -5 -13z"/>
<path d="M2344 2538 l-19 -23 23 19 c21 18 27 26 19 26 -2 0 -12 -10 -23 -22z"/>
<path d="M2269 2533 c-13 -16 -12 -17 4 -4 9 7 17 15 17 17 0 8 -8 3 -21 -13z"/>
<path d="M2299 2503 c-13 -16 -12 -17 4 -4 9 7 17 15 17 17 0 8 -8 3 -21 -13z"/>
<path d="M2257 2473 c-4 -6 -1 -18 7 -26 8 -8 13 -17 11 -21 -3 -3 -2 -4 2 -1
3 3 11 0 18 -5 8 -7 12 -5 12 5 0 7 -5 13 -11 12 -6 -1 -10 6 -8 17 2 10 -1
15 -6 12 -6 -3 -12 -1 -14 6 -3 9 -6 9 -11 1z"/>
<path d="M2326 2401 c-3 -5 1 -14 8 -20 12 -10 13 -8 9 8 -6 23 -9 25 -17 12z"/>
<path d="M2286 2382 c-3 -4 4 -9 15 -9 23 -2 25 3 4 10 -8 4 -16 3 -19 -1z"/>
<path d="M2131 2284 c0 -11 3 -14 6 -6 3 7 2 16 -1 19 -3 4 -6 -2 -5 -13z"/>
<path d="M983 2283 c-18 -7 -16 -23 2 -23 8 0 15 7 15 15 0 8 -1 15 -2 14 -2
0 -9 -3 -15 -6z"/>
<path d="M1067 2265 c-4 -8 -16 -15 -28 -15 -12 0 -20 -3 -17 -6 10 -9 79 8
75 19 -6 18 -24 19 -30 2z"/>
<path d="M874 2219 c-15 -17 -14 -18 22 -7 49 13 50 14 20 20 -17 3 -31 -1
-42 -13z"/>
<path d="M760 2201 c-7 -15 -7 -21 0 -21 12 0 25 28 17 36 -3 3 -10 -4 -17
-15z"/>
<path d="M826 2203 c-6 -14 -5 -15 5 -6 7 7 10 15 7 18 -3 3 -9 -2 -12 -12z"/>
<path d="M1033 2144 c0 -23 1 -24 9 -10 7 12 7 21 0 28 -6 6 -9 0 -9 -18z"/>
<path d="M932 2118 c1 -20 6 -34 10 -32 5 3 6 17 4 31 -8 40 -17 41 -14 1z"/>
<path d="M2252 2124 c-18 -8 -31 -18 -28 -23 5 -8 86 25 86 35 0 8 -25 2 -58
-12z"/>
<path d="M888 2105 c-3 -14 -1 -25 3 -25 5 0 9 11 9 25 0 14 -2 25 -4 25 -2 0
-6 -11 -8 -25z"/>
<path d="M987 2114 c-3 -5 1 -15 9 -22 16 -14 18 -5 5 17 -5 7 -11 9 -14 5z"/>
<path d="M1761 2104 c0 -11 3 -14 6 -6 3 7 2 16 -1 19 -3 4 -6 -2 -5 -13z"/>
<path d="M796 2095 c-3 -8 -1 -15 4 -15 6 0 10 7 10 15 0 8 -2 15 -4 15 -2 0
-6 -7 -10 -15z"/>
<path d="M2310 2090 c-9 -6 -10 -10 -3 -10 6 0 15 5 18 10 8 12 4 12 -15 0z"/>
<path d="M842 2050 c1 -22 3 -38 6 -36 7 8 8 76 0 76 -4 0 -7 -18 -6 -40z"/>
<path d="M755 2068 c-5 -17 -1 -68 5 -61 5 5 8 73 3 73 -2 0 -6 -6 -8 -12z"/>
<path d="M2270 2066 c0 -8 4 -17 9 -21 6 -3 9 4 8 15 -1 23 -17 28 -17 6z"/>
<path d="M719 2063 c-7 -42 -7 -123 -1 -119 8 5 15 126 7 126 -3 0 -6 -3 -6
-7z"/>
<path d="M790 2061 c0 -6 5 -13 10 -16 6 -3 10 1 10 9 0 9 -4 16 -10 16 -5 0
-10 -4 -10 -9z"/>
<path d="M949 2068 c-7 -25 -7 -48 1 -48 5 0 9 11 8 25 -2 21 -6 32 -9 23z"/>
<path d="M1885 2060 c-3 -5 -1 -10 4 -10 6 0 11 5 11 10 0 6 -2 10 -4 10 -3 0
-8 -4 -11 -10z"/>
<path d="M2212 2050 c-10 -16 -9 -18 6 -14 15 5 16 4 1 -8 -15 -12 -18 -62 -5
-76 3 -3 -2 -11 -12 -19 -9 -8 -11 -12 -4 -8 8 4 12 -4 12 -29 0 -19 -6 -36
-12 -39 -10 -4 -10 -7 0 -18 6 -7 12 -21 12 -32 0 -10 5 -15 11 -12 6 4 8 10
5 13 -7 7 23 42 37 42 5 0 7 -22 5 -49 -3 -31 0 -55 9 -67 12 -17 13 -17 13 0
0 9 5 14 10 11 6 -3 10 1 10 9 0 21 56 51 63 33 3 -7 6 -5 6 5 1 10 19 28 41
40 22 13 40 27 40 31 0 5 -10 1 -22 -7 -12 -9 -31 -16 -41 -16 -10 0 -27 -8
-38 -19 -12 -11 -29 -16 -43 -14 -20 4 -23 10 -20 32 3 14 12 32 21 39 15 11
15 12 1 12 -12 0 -15 9 -13 45 2 26 -1 45 -7 45 -6 0 -8 11 -6 25 4 17 1 25
-9 25 -8 0 -13 -6 -12 -12 1 -7 -4 -25 -11 -41 -10 -21 -11 -30 -2 -39 7 -7
12 -28 12 -47 -1 -35 -1 -35 -17 -16 -13 16 -15 17 -10 3 4 -11 1 -18 -6 -18
-8 0 -12 21 -12 64 -1 36 2 63 6 60 4 -2 9 3 13 11 3 8 1 17 -3 20 -5 3 -7 14
-4 24 7 26 -10 34 -25 11z"/>
<path d="M681 2013 c-1 -26 -6 -53 -10 -62 -5 -9 -4 -25 0 -36 9 -19 9 -19 5
2 -2 12 0 23 4 25 10 4 19 107 10 113 -3 2 -7 -17 -9 -42z"/>
<path d="M890 2042 c0 -11 6 -25 14 -31 11 -9 12 -6 8 14 -5 31 -22 43 -22 17z"/>
<path d="M1066 2047 c3 -10 9 -15 12 -12 3 3 0 11 -7 18 -10 9 -11 8 -5 -6z"/>
<path d="M799 2025 c-5 -50 -4 -73 2 -70 11 7 17 53 8 67 -5 7 -9 9 -10 3z"/>
<path d="M2065 2021 c-3 -5 -2 -12 3 -15 5 -3 9 1 9 9 0 17 -3 19 -12 6z"/>
<path d="M2401 2013 c-5 -10 -13 -34 -19 -53 -5 -19 -13 -44 -17 -55 -4 -11
-3 -15 2 -9 4 5 28 20 53 32 25 13 34 20 21 16 -15 -4 -27 -1 -32 7 -6 10 -9
8 -9 -8 0 -13 -4 -23 -9 -23 -11 0 -2 40 14 60 17 22 26 50 15 50 -5 0 -13 -8
-19 -17z"/>
<path d="M649 2013 c-4 -43 -19 -70 -19 -35 0 23 -16 31 -18 10 0 -7 -3 -36
-7 -63 -5 -46 -4 -51 14 -52 11 -1 24 3 27 9 8 12 16 138 9 138 -3 0 -5 -3 -6
-7z m-11 -92 c1 -16 -2 -32 -8 -36 -6 -4 -10 8 -10 29 0 43 15 48 18 7z"/>
<path d="M750 1981 c0 -6 4 -12 8 -15 5 -3 9 1 9 9 0 8 -4 15 -9 15 -4 0 -8
-4 -8 -9z"/>
<path d="M1346 1973 c-6 -14 -5 -15 5 -6 7 7 10 15 7 18 -3 3 -9 -2 -12 -12z"/>
<path d="M1260 1970 c0 -5 5 -10 10 -10 6 0 10 5 10 10 0 6 -4 10 -10 10 -5 0
-10 -4 -10 -10z"/>
<path d="M1560 1960 c0 -5 5 -10 11 -10 5 0 7 5 4 10 -3 6 -8 10 -11 10 -2 0
-4 -4 -4 -10z"/>
<path d="M2069 1968 c-6 -21 -5 -39 2 -44 5 -3 8 6 7 20 -2 22 -6 33 -9 24z"/>
<path d="M751 1934 c0 -11 3 -14 6 -6 3 7 2 16 -1 19 -3 4 -6 -2 -5 -13z"/>
<path d="M707 1923 c-10 -9 -9 -23 1 -23 5 0 9 7 9 15 0 17 -1 18 -10 8z"/>
<path d="M2100 1910 c0 -19 3 -21 12 -12 9 9 9 15 0 24 -9 9 -12 7 -12 -12z"/>
<path d="M2251 1914 c0 -11 3 -14 6 -6 3 7 2 16 -1 19 -3 4 -6 -2 -5 -13z"/>
<path d="M876 1891 c-3 -5 0 -11 7 -14 8 -3 14 1 14 9 0 16 -13 19 -21 5z"/>
<path d="M2031 1884 c0 -11 3 -14 6 -6 3 7 2 16 -1 19 -3 4 -6 -2 -5 -13z"/>
<path d="M250 1853 c0 -13 5 -23 10 -23 13 0 13 11 0 30 -8 12 -10 11 -10 -7z"/>
<path d="M105 1800 c-3 -10 -2 -27 3 -37 5 -10 10 -56 11 -103 1 -47 5 -88 9
-92 4 -4 4 48 0 115 -3 67 -4 125 -2 129 3 5 1 8 -5 8 -5 0 -12 -9 -16 -20z"/>
<path d="M210 1771 c0 -11 5 -23 10 -26 6 -4 10 5 10 19 0 14 -4 26 -10 26 -5
0 -10 -9 -10 -19z"/>
<path d="M2389 1723 c-13 -16 -12 -17 4 -4 9 7 17 15 17 17 0 8 -8 3 -21 -13z"/>
<path d="M210 1720 c0 -5 5 -10 11 -10 5 0 7 5 4 10 -3 6 -8 10 -11 10 -2 0
-4 -4 -4 -10z"/>
<path d="M2345 1700 c-3 -5 -2 -10 4 -10 5 0 13 5 16 10 3 6 2 10 -4 10 -5 0
-13 -4 -16 -10z"/>
<path d="M2335 1665 c-52 -32 -42 -32 21 0 27 14 42 25 34 25 -8 0 -33 -11
-55 -25z"/>
<path d="M160 1551 c0 -6 4 -13 10 -16 6 -3 7 1 4 9 -7 18 -14 21 -14 7z"/>
<path d="M140 1528 c7 -22 6 -29 -8 -37 -9 -6 -12 -11 -6 -11 7 0 17 -39 24
-95 13 -98 31 -142 23 -57 -4 46 -4 46 11 22 l16 -25 -6 35 c-4 19 -16 44 -28
54 -16 15 -17 18 -3 13 21 -8 22 -1 3 19 -8 8 -13 27 -11 43 2 16 -3 37 -11
47 -13 17 -13 17 -4 -8z"/>
<path d="M2370 1409 c0 -5 5 -7 10 -4 6 3 10 8 10 11 0 2 -4 4 -10 4 -5 0 -10
-5 -10 -11z"/>
<path d="M2374 1350 c-17 -7 -20 -14 -16 -37 6 -27 6 -28 10 -3 2 13 11 30 20
37 20 14 16 15 -14 3z"/>
<path d="M2366 1233 c2 -27 7 -62 9 -80 2 -18 -1 -34 -8 -37 -9 -3 -9 -6 0
-13 6 -4 14 -22 16 -38 3 -17 3 17 0 75 -3 58 -6 113 -5 123 0 9 -3 17 -8 17
-5 0 -7 -21 -4 -47z"/>
<path d="M2393 935 c0 -27 2 -38 4 -22 2 15 2 37 0 50 -2 12 -4 0 -4 -28z"/>
<path d="M250 883 c0 -12 14 -28 26 -30 7 -1 10 6 7 17 -5 19 -33 29 -33 13z"/>
<path d="M2402 790 c0 -19 2 -27 5 -17 2 9 2 25 0 35 -3 9 -5 1 -5 -18z"/>
<path d="M2272 290 c7 -10 14 -18 15 -16 6 6 -9 36 -18 36 -5 0 -4 -9 3 -20z"/>
<path d="M2306 275 c4 -8 8 -15 10 -15 2 0 4 7 4 15 0 8 -4 15 -10 15 -5 0 -7
-7 -4 -15z"/>
<path d="M263 215 c-18 -19 -29 -35 -24 -35 8 0 43 36 55 58 11 19 3 13 -31
-23z"/>
<path d="M2297 193 c-10 -9 -9 -23 2 -23 5 0 11 7 15 15 5 15 -5 20 -17 8z"/>
<path d="M2255 150 c-10 -11 -29 -20 -42 -20 -13 0 -22 -4 -19 -9 9 -14 56
-10 56 5 0 7 8 17 17 23 10 5 15 12 12 15 -3 4 -14 -3 -24 -14z"/>
<path d="M330 118 c-14 -11 -18 -18 -10 -14 8 3 23 9 33 12 9 4 17 10 17 15 0
14 -13 10 -40 -13z"/>
<path d="M2216 102 c-3 -4 4 -9 15 -9 23 -2 25 3 4 10 -8 4 -16 3 -19 -1z"/>
<path d="M2280 73 c-26 -21 -33 -24 -41 -12 -6 10 -9 11 -10 2 -1 -7 -2 -18
-3 -23 0 -6 -8 -15 -16 -20 -8 -5 -11 -10 -7 -10 8 0 117 80 117 86 0 8 -10 3
-40 -23z"/>
<path d="M2146 14 c-17 -12 -17 -14 -4 -14 9 0 20 5 23 11 11 17 2 18 -19 3z"/>
</g>
</svg>
