<?xml version="1.0" encoding="UTF-8" standalone="no"?>
<!-- Created with Inkscape (http://www.inkscape.org/) -->

<svg
   xmlns:dc="http://purl.org/dc/elements/1.1/"
   xmlns:cc="http://creativecommons.org/ns#"
   xmlns:rdf="http://www.w3.org/1999/02/22-rdf-syntax-ns#"
   xmlns:svg="http://www.w3.org/2000/svg"
   xmlns="http://www.w3.org/2000/svg"
   xmlns:sodipodi="http://sodipodi.sourceforge.net/DTD/sodipodi-0.dtd"
   xmlns:inkscape="http://www.inkscape.org/namespaces/inkscape"
   width="100"
   height="100"
   id="svg4195"
   version="1.1"
   inkscape:version="0.48.4 r9939"
   sodipodi:docname="frame1.svg"
   preserveAspectRatio="none">
  <defs
     id="defs4197" />
  <sodipodi:namedview
     id="base"
     pagecolor="#ffffff"
     bordercolor="#666666"
     borderopacity="1.0"
     inkscape:pageopacity="0.0"
     inkscape:pageshadow="2"
     inkscape:zoom="3.959798"
     inkscape:cx="49.595596"
     inkscape:cy="24.403489"
     inkscape:document-units="px"
     inkscape:current-layer="capa1"
     showgrid="false"
     inkscape:window-width="1364"
     inkscape:window-height="718"
     inkscape:window-x="0"
     inkscape:window-y="0"
     inkscape:window-maximized="1" />
  <metadata
     id="metadata4200">
    <rdf:RDF>
      <cc:Work
         rdf:about="">
        <dc:format>image/svg+xml</dc:format>
        <dc:type
           rdf:resource="http://purl.org/dc/dcmitype/StillImage" />
        <dc:title />
      </cc:Work>
    </rdf:RDF>
  </metadata>
  <g
     inkscape:label="Capa 1"
     inkscape:groupmode="layer"
     id="capa1"
     transform="translate(0,-952.36218)">
    <path
       inkscape:connector-curvature="0"
       d="m 89.586177,1041.6868 c -2.657922,0.5528 -5.250407,1.1717 -8.272086,1.356 -1.410758,0.1921 -2.838838,0.3685 -4.424738,0.3879 -0.910353,-0.078 -1.322225,0.3474 -2.30764,0.194 -0.648602,0.1227 -1.787986,-0.2501 -2.115174,0.194 -3.196821,-0.1396 -6.349375,0.4288 -9.041941,0.194 -2.958166,-0.2502 -5.937502,-0.479 -9.234404,-0.388 -5.966373,-0.448 -12.756489,-0.07 -19.04235,-0.194 -5.812401,-0.5412 -11.555516,-1.1503 -17.891418,-1.164 -2.120949,0.1901 -4.347753,0.2717 -6.34745,0.582 -0.357983,-6.6832 -0.671698,-13.4151 -1.3472455,-19.7783 -0.021171,-3.5326 -0.5331242,-6.5706 -0.3830026,-10.276 -0.4542142,-3.0341 0.096232,-7.0791 -0.3868518,-10.0822 -0.1866898,-3.22226 -0.3849273,-6.78605 -0.3849273,-10.27609 0,-3.49587 0.1212521,-7.01502 -0.1905389,-10.27808 -0.1481971,-3.40468 -0.5542953,-6.55134 -0.3868519,-10.27613 0.4253445,-3.06325 -0.1943884,-7.17991 0.5773908,-9.89008 0.9565442,-0.39187 1.6609612,-1.04177 2.6944902,-1.35606 1.453101,-0.10677 2.56939,0.12602 3.847348,0.19401 18.337933,-0.0214 37.257107,0.62079 55.208189,-0.19401 0.309865,0.0543 0.331036,-0.1843 0.57739,-0.194 l 14.236534,0 c 1.333773,0.20564 2.076682,1.0088 3.460496,1.16206 0.944996,5.10218 -0.06544,11.03468 0.192462,16.67617 1.118214,7.89576 0.577392,16.19893 0.577392,24.62431 0,8.3885 0.12056,16.737 0.565151,24.8248 0.259825,4.7142 0.83021,9.4859 -0.180224,13.9577 m 2.117099,-12.4103 c 0.09431,-4.8809 -0.44459,-9.1199 -0.57739,-13.7681 0.252128,-9.1742 -1.299129,-19.09918 0.383003,-27.33834 -0.350284,-0.23085 -0.150121,-1.01267 -0.383003,-1.35993 0.150121,-0.79733 -0.29447,-0.99328 -0.194387,-1.74404 0.10008,-1.32696 -0.340661,-2.11072 -0.19054,-3.49005 -0.107781,-7.27109 0.97964,-15.53352 -1.154782,-21.13428 -1.0547,-0.44619 -1.993923,-0.88075 -3.079418,-1.16399 -3.695301,-0.96805 -8.580028,-0.388 -12.887363,-0.388 -5.575671,0 -11.472756,0.58394 -16.927175,0.58394 -11.738356,0 -23.611436,0.4753 -34.241202,-0.58394 -3.989771,1.07282 -8.897593,-0.42098 -12.5043613,0.58394 -1.3741902,0.7469 -2.4308154,1.81389 -3.654884,2.71211 -0.071212,1.35023 1.0643237,2.13011 0.5773908,3.29605 -0.4022489,0.30651 -0.065437,1.35605 -0.3849272,1.74598 0.1366492,0.84584 -0.3271881,1.09223 -0.1924636,1.94 l 0,11.24613 c 0.898805,5.87817 0.486933,13.0833 0.5773908,19.77622 1.1220629,5.8491 0.1077796,13.8516 0.9603935,19.9723 -0.00385,1.1678 -0.059664,2.3862 0.1943882,3.296 l 0,1.7441 c 0.4137968,0.1648 0.4465156,0.7158 0.3830026,1.3599 -0.2540519,3.4862 0.417646,6.0411 0.3849273,9.3043 0.4522895,2.842 0.063513,6.5318 0.962318,8.9201 2.9408439,-0.015 5.3427899,-0.5608 8.0796219,-0.7742 8.44338,0.3609 16.965668,1.7305 25.776653,1.3562 8.895668,-0.3764 17.95493,0.9175 27.123897,0.5819 3.381586,-0.7275 7.779379,-0.4306 11.34958,-0.9681 0.625507,0.1103 0.894955,-0.1335 1.347245,-0.1958 0.398399,-0.1149 1.262561,0.2405 1.34532,-0.1921 0.60626,0.093 0.681321,-0.3492 1.349171,-0.1941 -0.03272,-0.5489 1.18365,0.1611 1.152857,-0.388 1.114363,0.09 1.730248,-0.3239 2.692566,-0.388 0.812196,-0.2152 1.358792,-0.6984 2.115175,-0.968 0.646677,-4.5416 -0.346435,-8.9027 -0.383004,-13.3802"
       style="fill:#f8f8f8;fill-opacity:1;fill-rule:evenodd;stroke:none"
       id="path4019"
       sodipodi:nodetypes="cccccccccccccsccccccccccsccccccccccssccccccccccccccccccccccccc" />
  </g>
</svg>
