<?xml version="1.0" encoding="UTF-8" standalone="no"?>
<!-- Created with Inkscape (http://www.inkscape.org/) -->

<svg
   xmlns:dc="http://purl.org/dc/elements/1.1/"
   xmlns:cc="http://creativecommons.org/ns#"
   xmlns:rdf="http://www.w3.org/1999/02/22-rdf-syntax-ns#"
   xmlns:svg="http://www.w3.org/2000/svg"
   xmlns="http://www.w3.org/2000/svg"
   xmlns:sodipodi="http://sodipodi.sourceforge.net/DTD/sodipodi-0.dtd"
   xmlns:inkscape="http://www.inkscape.org/namespaces/inkscape"
   width="100"
   height="100"
   id="svg4195"
   version="1.1"
   inkscape:version="0.48.4 r9939"
   sodipodi:docname="frame3.svg"
   preserveAspectRatio="none">
  <defs
     id="defs4197" />
  <sodipodi:namedview
     id="base"
     pagecolor="#ffffff"
     bordercolor="#666666"
     borderopacity="1.0"
     inkscape:pageopacity="0.0"
     inkscape:pageshadow="2"
     inkscape:zoom="2.8"
     inkscape:cx="6.1294539"
     inkscape:cy="33.186402"
     inkscape:document-units="px"
     inkscape:current-layer="capa1"
     showgrid="false"
     inkscape:window-width="1364"
     inkscape:window-height="718"
     inkscape:window-x="0"
     inkscape:window-y="0"
     inkscape:window-maximized="1" />
  <metadata
     id="metadata4200">
    <rdf:RDF>
      <cc:Work
         rdf:about="">
        <dc:format>image/svg+xml</dc:format>
        <dc:type
           rdf:resource="http://purl.org/dc/dcmitype/StillImage" />
        <dc:title />
      </cc:Work>
    </rdf:RDF>
  </metadata>
  <g
     inkscape:label="Capa 1"
     inkscape:groupmode="layer"
     id="capa1"
     transform="translate(0,-952.36218)">
    <path
       inkscape:connector-curvature="0"
       d="m 46.437593,1042.3015 0,1.1983 0.98812,0 c 0.02574,-0.4913 0.0297,-0.9626 -0.19802,-1.1983 z m 23.948528,-0.3994 c -0.689109,0.5771 -0.689109,1.6176 0,2.1948 1.047526,0.1938 1.340595,-0.3735 1.58218,-0.9965 -0.603961,-0.3235 -0.853466,-1.0026 -1.58218,-1.1983 m 8.508914,-0.5992 c -0.120787,0.4773 -0.283167,0.9108 -0.198022,1.5978 l 1.188122,0 c -0.02372,-0.5753 0.106927,-1.3062 -0.198022,-1.5978 z m -66.897063,-0.9966 c -0.0594,0.9247 0.002,1.7276 0.39802,2.1969 0.463366,0.062 0.742573,0.3135 1.384158,0.1977 0.386139,-0.4473 0.174258,-1.5018 0,-1.9971 -0.441584,-0.2856 -0.956436,-0.5013 -1.782178,-0.3975 m 75.009938,0.7969 c 0.550493,1.1264 2.689104,1.3021 3.366345,0.1997 0.116827,-0.8488 -0.142579,-1.3201 -0.198032,-1.9951 -1.461379,-0.4953 -3.518805,-0.1738 -3.168313,1.7954 m -75.009938,-9.78 c -0.87921,-0.1558 -1.263369,0.1877 -1.186139,0.9986 0.213859,0.5811 0.80792,0.7828 1.386138,0.9985 0.437625,-0.5452 0.122772,-1.6036 -0.199999,-1.9971 m -1.186139,-9.3806 c 0.340593,-0.012 0.508909,0.1538 0.594059,0.3974 1.249505,-0.04 1.413862,-1.42 1.186138,-2.3945 -0.473267,-0.1219 -0.90297,-0.2876 -1.582178,-0.1998 -0.237624,0.5592 -0.219802,1.3781 -0.198019,2.1969 m 1.186139,-13.1751 -1.58218,0 c -0.0039,0.9366 -0.10495,1.9672 0.792079,1.995 0.962377,0.042 0.794061,-1.0584 0.790101,-1.995 m 78.376283,1.3959 c 0.106926,-1.1723 -0.100996,-2.0251 -1.188123,-1.9952 -0.914855,0.028 -0.588116,1.6157 -0.394064,2.1969 0.568325,-0.026 1.295059,0.1064 1.582187,-0.2017 M 9.821733,997.58743 c -0.4772281,0.7849 -0.1742576,2.23271 0.790099,2.19681 0.560396,-0.6011 0.718812,-2.56431 -0.790099,-2.19681 m 78.772323,-0.5972 c -0.687132,0.5872 -0.639609,1.77951 -0.200002,2.59431 1.79604,0.57316 1.96039,-2.97381 0.200002,-2.59431 m -78.178264,-5.5881 c 0.447525,-0.5113 0.08118,-1.4079 -0.19802,-1.7994 -2.3821791,-0.5212 -1.1564364,2.7701 0.19802,1.7994 m -0.396039,-9.5822 c 2.039604,0.1916 1.683169,-3.2994 -0.19802,-2.9938 -0.6297034,0.8567 -0.2910898,2.1988 0.19802,2.9938 m 79.958458,-2.9938 c 0.124747,-1.1903 -0.180201,-1.9492 -1.384155,-1.7974 -0.138618,1.2022 0.07921,2.049 1.384155,1.7974 m -79.366379,-5.1906 c 0.980198,-1.0305 0.02574,-2.7341 -1.5821783,-2.3966 -0.4237638,1.1245 0.027731,2.6503 1.5821783,2.3966 m 78.5743,-9.78 c 0.669301,-0.9127 0.342571,-2.4125 -0.394064,-2.9957 l -1.188112,0 c -0.514852,1.38 -0.134658,3.2353 1.582176,2.9957 m -19.000011,-0.8009 c 0.621782,-0.8728 -0.295049,-1.6116 -0.396039,-2.3945 -0.671287,0.054 -1.605943,-0.1538 -1.97822,0.1997 -0.10693,1.6356 0.875249,2.1789 2.374259,2.1948 m -37.40398,-2.3945 c -0.98812,-0.06 -1.287131,0.5671 -1.188119,1.5976 l 1.188119,0 c 0.122772,-0.4572 0.390099,-1.2062 0,-1.5976 m 43.934701,2.197 c 0.394064,-0.2017 0.695052,-0.4993 0.9901,-0.8008 0.0198,-0.8828 -0.233654,-1.492 -0.9901,-1.5958 -0.239595,0.2876 -0.754446,0.3036 -0.988111,0.5992 0.16435,0.5652 -0.281187,0.5172 -0.200002,0.9966 0.32871,0.3355 0.518812,0.8108 1.188113,0.8008 m -20.584164,-0.8008 c 0.39208,-0.4154 0.152475,-1.3242 0,-1.7955 -1.205941,-0.2177 -1.463368,0.5193 -1.38416,1.5977 0.625743,-0.098 0.700991,0.3575 1.38416,0.1978 m 35.627741,80.44707 c -4.926731,2.085 -12.429708,1.5698 -18.40595,2.5922 -5.207923,-0.011 -10.502976,0.08 -15.437632,-0.1977 -1.164357,0.042 -0.170297,-2.093 -1.584159,-1.7973 -1.100991,0.022 -0.289109,1.0684 -0.396039,1.7973 -0.891091,-0.3655 -2.443566,-0.062 -3.364359,-0.3993 -9.908916,0.012 -20.033675,0.2436 -28.699025,-0.9986 -0.986139,-0.1079 0.277227,-0.745 0,-1.398 -0.536635,-0.1239 -0.49307,-0.8348 -1.18614,-0.7989 -1.380198,-0.06 -1.061387,1.5918 -1.784159,2.1969 -3.655448,-0.096 -7.035648,0.088 -10.091094,0.5971 -0.344555,-5.4402 -1.0237638,-10.5449 -0.9900997,-16.3666 -1.7267343,-7.8408 -0.2772289,-18.883 -1.5841606,-27.1492 l 0,-15.96727 c -0.9465347,-6.0234 -1.0613857,-13.8901 -0.394059,-20.3609 0.1405946,-1.1404 -0.213861,-1.7835 -0.1980191,-2.794 0.035642,-0.7609 1.1029693,-0.4833 1.1881185,-1.1983 0.6495056,-0.075 0.8693079,-0.5832 1.3841589,-0.7988 0.318812,0.058 0.340594,-0.1878 0.594061,-0.1977 l 7.520795,0 c 0.893071,0.4293 0.05743,2.6022 1.780199,2.1948 1.560397,0.1997 0.237624,-1.7235 0.7901,-2.1948 6.904955,0.1138 13.689116,1.1123 20.58615,0.5991 0.477227,0.5811 -0.19208,2.3207 0.790098,2.3945 1.558417,0.1738 0.932675,-1.8573 1.78218,-2.3945 14.954463,0.2416 28.564371,-0.8688 43.542601,-0.5991 1.075246,0.4453 1.984151,1.0564 2.968321,1.5956 -0.106936,1.1045 0.265337,1.7276 0.594047,2.3967 -0.386134,1.2042 -0.32673,2.8618 -0.594047,4.1919 -0.417835,8.5239 1.168312,16.8999 0.792069,25.5475 -0.530693,12.16277 -0.01588,24.57697 -0.198022,37.12907 0.697032,3.7806 0.706933,8.3021 0.594066,12.3783 m 1.186142,-51.70217 c 0.09107,-1.3042 0.560394,-2.2308 0.398014,-3.7926 -0.372272,-4.3877 -1.194062,-9.2568 -0.594056,-13.972 0.128718,-4.8751 0.576245,-10.1635 -0.9901,-13.7723 -2.087137,-1.424 -5.255451,-1.7556 -8.904953,-1.5978 -3.194065,-0.3735 -6.998027,-0.1318 -10.491096,-0.2017 -0.253466,0.012 -0.273267,0.2576 -0.59406,0.2017 -15.21585,0.4933 -31.469324,0.5432 -46.906956,0.1997 -5.200003,-0.4274 -10.190104,0.1238 -15.2396117,0.3995 -1.5940611,0.7209 -2.6376249,1.9971 -3.9584184,2.9937 0.1128719,0.4853 0.1702974,1.0265 0.7920793,0.9985 0.2910897,0.2896 0.2910897,1.3062 0,1.5978 -0.5009905,3.0296 -0.7920793,6.3908 -0.7920793,9.78 0,3.487 0.5148514,6.9121 0.5940603,10.1795 -0.00598,7.1917 -0.1326741,14.5073 0.7900992,20.75837 l 0,12.9754 c 0.9940606,6.6525 1.0000009,14.2976 1.5841596,21.3596 0.1960389,2.3964 0.1306919,5.0587 0.7920792,6.9859 3.1485148,0.1158 5.6039628,-0.4713 8.5108948,-0.5991 3.017824,0.084 5.855449,0.3495 8.904955,0.3994 0.275249,0.4574 1.3802,0.074 1.9802,0.1997 0.423763,0.3695 1.449506,0.1358 2.176238,0.1998 1.326734,0.2576 2.857429,0.3135 4.354459,0.4014 8.651489,0.5872 18.748525,-0.2796 27.116846,0.5972 2.869308,0.2656 6.043567,0.2676 8.706936,-0.1997 2.934654,0.3994 5.336638,-0.4894 8.708914,-0.1998 1.215844,-0.2377 2.285149,-0.6211 3.760399,-0.5991 1.510892,-0.011 2.845544,-0.1918 3.958421,-0.5972 0.669301,-0.057 1.13663,-0.3195 1.980201,-0.2017 0.32475,-0.4694 1.413856,-0.1697 1.780189,-0.5991 1.396045,0.659 1.736645,-1.0665 2.970301,-1.1963 -0.4792,-17.551 -1.6396,-34.4129 -1.388115,-52.69877"
       style="fill:#f8f8f8;fill-opacity:1;fill-rule:evenodd;stroke:none"
       id="path1016"
       sodipodi:nodetypes="ccccccccccccccccccccccccccccccccccccccccccccccccccccccccccccccccccccccccccccccccccccccccccccccccccccccccccccccccccccccccccccsccccccccccccccccccc" />
  </g>
</svg>
