<?xml version="1.0" encoding="UTF-8" standalone="no"?>
<!-- Created with Inkscape (http://www.inkscape.org/) -->

<svg
   xmlns:dc="http://purl.org/dc/elements/1.1/"
   xmlns:cc="http://creativecommons.org/ns#"
   xmlns:rdf="http://www.w3.org/1999/02/22-rdf-syntax-ns#"
   xmlns:svg="http://www.w3.org/2000/svg"
   xmlns="http://www.w3.org/2000/svg"
   xmlns:sodipodi="http://sodipodi.sourceforge.net/DTD/sodipodi-0.dtd"
   xmlns:inkscape="http://www.inkscape.org/namespaces/inkscape"
   width="100"
   height="100"
   id="svg4195"
   version="1.1"
   inkscape:version="0.48.4 r9939"
   sodipodi:docname="frame4.svg"
   preserveAspectRatio="none">
  <defs
     id="defs4197" />
  <sodipodi:namedview
     id="base"
     pagecolor="#ffffff"
     bordercolor="#666666"
     borderopacity="1.0"
     inkscape:pageopacity="0.0"
     inkscape:pageshadow="2"
     inkscape:zoom="3.959798"
     inkscape:cx="45.77463"
     inkscape:cy="38.151285"
     inkscape:document-units="px"
     inkscape:current-layer="capa1"
     showgrid="false"
     inkscape:window-width="1364"
     inkscape:window-height="718"
     inkscape:window-x="0"
     inkscape:window-y="0"
     inkscape:window-maximized="1" />
  <metadata
     id="metadata4200">
    <rdf:RDF>
      <cc:Work
         rdf:about="">
        <dc:format>image/svg+xml</dc:format>
        <dc:type
           rdf:resource="http://purl.org/dc/dcmitype/StillImage" />
        <dc:title />
      </cc:Work>
    </rdf:RDF>
  </metadata>
  <g
     inkscape:label="Capa 1"
     inkscape:groupmode="layer"
     id="capa1"
     transform="translate(0,-952.36218)">
    <g
       id="g4025"
       transform="matrix(2.0037907,0,0,-1.9672264,92.24805,1041.8838)">
      <path
         inkscape:connector-curvature="0"
         d="M 0,0 C -0.746,-0.32 -1.686,-0.446 -2.599,-0.6 -1.896,0.296 -0.926,0.926 -0.3,1.899 0.208,1.675 -0.072,0.661 0,0 m -3.099,0 c 0.011,-0.31 -0.122,-0.478 -0.2,-0.699 -3.492,-0.306 -6.899,-0.697 -10.794,-0.6 -0.408,-0.048 -0.014,0.269 0.1,0.3 0.029,0.203 0.27,0.195 0.3,0.399 0.275,0.192 0.524,0.41 0.799,0.6 0.473,0.46 0.992,0.875 1.499,1.3 0.666,0.034 1.489,-0.089 1.999,0.099 -0.035,-0.497 -0.526,-0.54 -0.799,-0.799 -0.262,-0.537 -1.016,-0.583 -0.9,-1.499 0.407,-0.497 0.972,0.106 1.3,0.299 0.423,0.244 0.589,0.745 1.1,0.9 0.115,0.484 0.506,0.693 0.599,1.2 1.01,-0.079 1.824,0.233 2.599,0.1 -0.341,-0.793 -1.101,-1.165 -1.399,-1.999 0.172,-0.442 0.83,-0.079 0.999,0.099 0.41,0.323 0.636,0.83 1.099,1.1 0.084,0.282 0.458,0.275 0.5,0.599 0.209,0.124 0.376,0.291 0.5,0.5 0.502,-0.036 0.906,0.027 1.199,0.201 0.144,0.123 0.19,0.343 0.201,0.599 0.386,-0.043 0.355,-0.109 0.599,0.1 0.147,0.32 0.342,0.59 0.3,1.099 0.715,-0.048 0.693,0.64 1.399,0.6 C 0.18,4.094 -0.206,3.646 -0.1,3.099 -0.441,2.541 -1.117,2.316 -1.3,1.6 -2.045,1.212 -2.433,0.467 -3.099,0 m -12.193,-1.299 c -0.525,0.241 -1.328,0.205 -2.1,0.199 0.145,0.524 0.654,0.68 1,1 0.274,0.459 0.813,0.654 0.999,1.2 l 2.1,0 c -0.43,-1.037 -1.837,-1.095 -1.999,-2.399 m -2.599,0.999 c -0.095,-0.338 -0.341,-0.525 -0.5,-0.8 -0.63,0.17 -1.521,0.079 -2.298,0.101 0.192,0.474 0.516,0.815 0.899,1.1 0.237,0.395 0.673,0.592 0.999,0.899 0.799,10e-4 1.637,-0.037 2.3,0.1 -0.111,-0.357 -0.343,-0.59 -0.7,-0.7 -0.163,-0.304 -0.308,-0.625 -0.7,-0.7 m -4.498,-0.699 c -1.058,0.233 -2.169,-0.188 -3.398,-0.101 0.109,0.258 0.253,0.482 0.5,0.601 0.32,0.046 0.352,0.38 0.699,0.399 0.218,0.349 0.449,0.684 0.8,0.9 1.286,-0.021 2.494,0.038 3.599,0.2 0.328,0.072 0.152,-0.199 0,-0.2 -0.057,-0.144 -0.157,-0.244 -0.3,-0.3 -0.189,-0.179 -0.463,-0.271 -0.6,-0.5 -0.547,-0.22 -0.887,-0.646 -1.3,-0.999 m -3.998,0.8 c -0.222,-0.344 -0.57,-0.564 -0.8,-0.901 -0.424,0.175 -1.125,0.076 -1.699,0.101 0.053,0.914 0.989,0.944 1.2,1.699 l 2.199,0 c -0.123,-0.476 -0.558,-0.641 -0.9,-0.899 M -30.284,-0.8 c -1.053,-0.086 -1.679,0.255 -2.699,0.2 0.076,0.725 0.918,0.682 1,1.4 1.096,0.064 1.978,-0.087 2.998,-0.1 -0.132,-0.801 -0.782,-1.085 -1.299,-1.5 m -3.399,1 c -0.084,-0.316 -0.292,-0.508 -0.5,-0.699 l -2.898,0 c 0.06,0.773 0.776,0.889 0.999,1.499 0.025,0.108 0.199,0.067 0.2,0.199 0.873,-0.093 1.681,-0.251 2.698,-0.199 -0.022,-0.411 -0.247,-0.618 -0.499,-0.8 m -4.398,-0.699 c -0.987,-0.013 -1.856,-0.144 -2.698,-0.301 0.142,1.291 1.193,1.672 1.699,2.6 0.524,-0.276 1.31,-0.289 1.899,-0.5 -0.139,-0.761 -0.834,-0.966 -0.9,-1.799 m -2.998,3.397 c 0.21,0.691 1.101,0.698 1.3,1.4 0.115,0.016 0.177,-0.022 0.199,-0.1 0.231,-0.504 -0.107,-1.017 0,-1.699 C -39.94,1.96 -40.566,1.687 -40.779,1 c -0.563,0.286 0.042,1.288 -0.3,1.898 m -0.2,3.998 c 0.656,0.344 1.154,0.846 1.399,1.6 l 0.3,0 0,-2.699 c -0.078,-0.455 -0.54,-0.526 -0.699,-0.9 -0.337,-0.163 -0.427,-0.572 -0.9,-0.599 -0.013,0.919 -0.339,1.719 -0.1,2.598 m -0.4,3.099 c 0.457,1.175 1.437,1.828 1.799,3.099 -0.957,-0.076 -1.367,-0.698 -1.699,-1.4 -0.452,0.253 -0.118,0.676 -0.199,1.299 l 0,1.6 c 0.426,0.873 1.287,1.311 1.698,2.199 0.117,0.016 0.179,-0.022 0.2,-0.101 -0.026,-0.592 0.009,-1.123 0.2,-1.499 l 0,-4.397 c 0.065,-0.402 -0.13,-1.063 0.1,-1.3 -0.144,-0.289 -0.454,-0.412 -0.799,-0.499 0.004,-0.371 -0.375,-0.358 -0.5,-0.6 -0.106,-0.226 -0.304,-0.363 -0.6,-0.4 0.093,0.826 -0.189,1.276 -0.2,1.999 m -0.399,11.595 c 0.55,0.681 1.52,0.943 1.699,1.998 -0.938,0.072 -0.936,-0.796 -1.699,-0.9 l 0,3.099 c 0.387,0.712 1.331,0.867 1.499,1.799 l 0.2,0 c 0.335,0.102 0.155,-0.311 0.199,-0.499 l 0,-1.999 c 0.146,-1.421 0.216,-2.916 0.201,-4.498 -0.368,-0.3 -0.725,-0.609 -1.2,-0.8 -0.303,-0.13 -0.234,-0.632 -0.8,-0.5 0.077,0.876 -0.125,1.475 -0.099,2.3 m -0.2,7.895 c 0.398,0.868 1.382,1.151 1.699,2.099 0.116,0.017 0.178,-0.021 0.2,-0.1 0.259,-0.288 -0.046,-0.62 0,-1 0.156,-0.609 0.253,-1.279 0.199,-2.098 -0.501,-0.165 -0.851,-0.481 -1.299,-0.699 -0.292,-0.076 -0.193,-0.541 -0.599,-0.5 -0.322,0.659 0.292,1.735 -0.2,2.298 m -0.201,3.598 c 0.149,0.251 0.422,0.379 0.701,0.5 0.325,0.541 0.956,0.775 1.199,1.399 0.116,0.017 0.178,-0.022 0.2,-0.099 l 0,-2.899 c -0.283,-0.15 -0.427,-0.441 -0.8,-0.5 0.001,-0.368 -0.292,-0.442 -0.5,-0.599 -0.166,-0.201 -0.268,-0.465 -0.599,-0.5 0.055,1.022 -0.305,1.628 -0.201,2.698 m 0,3.599 c 0.213,0.254 0.414,0.519 0.8,0.599 0.199,0.501 0.655,0.744 0.999,1.1 l 0,0.3 0.301,0 0,-2.799 c -0.308,-0.027 -0.45,-0.217 -0.7,-0.3 -0.274,-0.192 -0.442,-0.491 -0.699,-0.699 -0.295,-0.065 -0.406,-0.646 -0.701,-0.401 l 0,2.2 z m 2.599,-18.891 c -0.041,-0.292 -0.342,-0.324 -0.499,-0.5 -0.068,-0.231 -0.333,-0.268 -0.4,-0.499 -0.209,-0.124 -0.376,-0.291 -0.5,-0.5 -0.287,-0.012 -0.173,-0.426 -0.499,-0.399 l 0,2.198 c 0.258,0.107 0.371,0.361 0.699,0.4 0.186,0.48 0.529,0.804 0.8,1.199 -0.029,0.162 0.094,0.172 0.099,0.3 0.542,-0.291 0.207,-1.459 0.3,-2.199 m -0.2,23.788 c -0.33,-0.902 -1.666,-0.799 -1.799,-1.899 0.234,-0.291 0.685,0.042 0.8,0.2 0.251,0.115 0.335,0.398 0.7,0.399 0.391,0.476 0.824,0.909 1.299,1.3 l 2.998,0 c -0.612,-0.553 -1.231,-1.1 -1.898,-1.6 -0.899,0.319 -1.709,-0.188 -2.499,-0.299 l 0,-0.8 c -0.889,-0.11 -1.131,-0.867 -1.9,-1.099 0.183,0.925 0.028,1.906 -0.1,2.798 0.79,0.345 1.123,1.145 2.399,1 m 4.398,0 2.099,0 c -0.223,-0.444 -0.648,-0.684 -0.999,-1 -0.106,-0.228 -0.064,-0.602 -0.2,-0.799 -0.937,-0.103 -1.401,0.265 -2.299,0.199 0.334,0.667 1.5,0.5 1.399,1.6 m 2.699,-0.899 c 0.272,0.294 0.61,0.522 0.899,0.799 0.774,-0.157 1.945,-0.343 2.799,-0.1 -0.088,-0.545 -0.778,-0.487 -1.1,-0.8 -0.338,-0.294 -0.765,-0.499 -1.099,-0.799 l -2.399,0 c 0.162,0.438 0.462,0.738 0.9,0.9 m 4.297,0.299 c -0.028,0.162 0.095,0.172 0.101,0.3 l 4.098,0 c -0.59,-0.544 -1.226,-1.041 -1.8,-1.599 -1.131,-0.033 -2.022,0.177 -3.198,0.1 -0.328,-0.073 -0.153,0.199 0,0.199 0.056,0.145 0.156,0.245 0.299,0.3 0.138,0.264 0.421,0.379 0.5,0.7 m 5.098,0.3 c 1.188,0.045 2.568,-0.103 3.598,0.1 0.268,-0.392 -0.582,-0.375 -0.799,-0.6 -0.444,-0.289 -0.747,-0.719 -0.9,-1.299 -1.184,-0.05 -2.015,0.25 -3.199,0.2 -0.466,0.007 0.117,0.228 0.101,0.4 0.176,0.09 0.308,0.224 0.399,0.399 0.327,0.207 0.549,0.518 0.8,0.8 m 4.598,0 c 0.924,-0.078 2.062,0.117 2.698,0 0.088,-0.321 -0.329,-0.136 -0.3,-0.4 -0.307,0.075 -0.191,-0.275 -0.5,-0.199 -0.265,-0.434 -0.765,-0.633 -0.899,-1.2 l -2.698,0 c 0.123,0.476 0.557,0.642 0.899,0.9 0.247,0.319 0.61,0.521 0.8,0.899 m 4.097,0.1 1.799,0 c -0.288,-0.611 -1.249,-0.55 -1.199,-1.499 0.055,-0.352 0.58,-0.16 0.8,-0.1 0.223,0.143 0.412,0.321 0.599,0.499 0.496,0.205 0.663,0.739 1.3,0.8 -0.016,0.116 0.022,0.178 0.1,0.2 0.035,0.131 0.176,0.158 0.2,0.3 l 2.698,0 c -0.187,-0.278 -0.667,-0.266 -0.899,-0.5 -0.246,-0.22 -0.439,-0.494 -0.8,-0.6 -0.314,-0.318 -0.521,-0.745 -0.899,-0.999 l -5.698,0 c -0.328,-0.073 -0.153,0.199 0,0.2 0.036,0.132 0.176,0.157 0.201,0.299 0.227,0.14 0.386,0.346 0.599,0.5 0.434,0.266 0.808,0.592 1.199,0.9 m 6.697,-0.1 c -0.029,0.161 0.094,0.172 0.1,0.3 l 2.699,0 c -0.316,-0.784 -1.225,-0.975 -1.4,-1.899 -0.993,-0.073 -1.888,-0.244 -2.998,-0.2 -0.467,0.007 0.117,0.229 0.1,0.4 0.236,0.031 0.185,0.347 0.5,0.3 0.224,0.308 0.491,0.575 0.799,0.799 -0.004,0.171 0.075,0.259 0.2,0.3 m 2.999,-0.8 c 0.365,0.235 0.661,0.539 0.999,0.8 -0.029,0.161 0.094,0.172 0.1,0.3 l 2.199,0 c 0.048,-0.581 -0.369,-0.697 -0.7,-0.899 -0.145,-0.522 -0.729,-0.604 -0.799,-1.2 -0.679,0.331 -1.656,0.149 -2.499,0.1 -0.242,0.233 0.156,0.268 0.2,0.5 0.232,0.067 0.267,0.332 0.5,0.399 M -39.58,38.98 c -0.004,0.171 0.074,0.259 0.2,0.3 1.373,-0.259 2.891,-0.374 4.298,-0.599 5.582,0.051 10.715,-0.347 16.191,-0.401 2.548,-0.217 5.487,-0.044 8.197,-0.099 1.255,0.111 2.642,0.089 3.897,0.2 l 3.099,0 c 0.296,-0.026 0.493,0.394 0.599,0 0.451,-0.987 0.049,-2.397 -0.099,-3.399 C -3.441,30.31 -3.504,24.108 -3.299,18.99 -3.061,13.765 -2.255,9.106 -2.398,3.498 -2.616,3.282 -3.3,3.533 -3.398,3.198 -3.745,3.146 -3.931,2.932 -4.298,2.898 -5.181,2.982 -5.726,2.728 -6.497,2.699 -7.969,2.571 -9.496,2.5 -10.994,2.399 -14.009,2.216 -17.117,2.125 -20.29,2.1 -26.108,1.614 -33.26,1.582 -38.48,2.599 c 0.193,12.299 -0.427,24.618 -1.1,36.381 m 38.381,1.599 c -0.029,0.162 0.094,0.173 0.099,0.3 0.66,-0.206 0.642,-1.09 0.7,-1.899 -0.871,-0.029 -1.263,-0.536 -1.998,-0.7 0.267,0.366 -0.169,0.719 -0.201,1.1 0.105,0.328 0.429,0.437 0.7,0.599 0.144,0.29 0.48,0.386 0.7,0.6 m 0.5,-5.597 c -0.717,0.118 -0.917,-0.283 -1.5,-0.299 0.287,0.838 -0.223,1.696 -0.1,2.698 0.609,0.125 0.82,0.645 1.4,0.8 -0.016,0.249 0.157,0.309 0.2,0.5 0.108,-0.026 0.067,-0.2 0.199,-0.201 -0.019,-1.213 -0.322,-2.142 -0.199,-3.498 m -1.5,-3.098 0,1.3 c 10e-4,0.431 0.471,0.394 0.599,0.699 0.183,0.251 0.454,0.413 0.701,0.599 l 0,0.3 c 0.399,-0.166 0.113,-1.019 0.2,-1.499 0.101,-0.43 0.258,-0.807 0.199,-1.399 -0.155,-0.145 -0.39,-0.21 -0.6,-0.3 -0.357,-0.209 -0.521,-0.611 -0.899,-0.8 -0.362,0.071 -0.138,0.729 -0.2,1.1 M -0.2,28.485 c -0.249,-0.35 -0.571,-0.628 -0.999,-0.798 -0.079,-0.222 -0.35,-0.251 -0.5,-0.401 -0.091,-0.174 -0.224,-0.385 -0.4,-0.199 -0.094,0.466 -0.207,1.353 0,1.799 -0.059,0.207 0.123,0.656 -0.1,0.699 0.62,0.313 1.254,0.611 1.599,1.199 0.572,-0.481 -0.098,-1.675 0.4,-2.299 M -1.1,14.093 c -0.149,-0.217 -0.5,-0.233 -0.5,-0.6 -0.344,0.111 -0.35,0.671 -0.199,1 l 0,2.299 c 0.64,-0.074 1.01,0.122 1.199,0.499 0.299,-0.101 0.198,-0.602 0.3,-0.899 -0.105,-0.561 -0.118,-1.214 -0.1,-1.899 -0.328,-0.039 -0.441,-0.293 -0.7,-0.4 m -0.899,5.797 c 0.45,0.316 0.996,0.537 1.3,1 0.161,0.028 0.172,-0.095 0.299,-0.1 l 0,-1.899 c -0.25,-0.283 -0.472,-0.594 -0.799,-0.8 -0.091,-0.176 -0.224,-0.31 -0.401,-0.4 -0.029,-0.088 -0.27,-0.437 -0.299,-0.2 -0.221,0.613 -0.042,1.623 -0.1,2.399 M -1.1,9.296 c -0.293,0.114 -0.371,-0.48 -0.5,-0.2 -0.242,0.505 -0.01,1.342 -0.099,1.999 -0.039,0.287 -0.15,0.482 -0.2,0.699 0.135,0.031 0.083,0.251 0.1,0.4 0.278,0.421 0.846,0.553 1.1,0.999 0.161,0.029 0.172,-0.093 0.299,-0.099 l 0,-3.498 C -0.582,9.444 -0.96,9.489 -1.1,9.296 M -1.399,5.797 c -0.135,0.765 -0.147,1.653 -0.3,2.399 0.705,-0.175 0.832,0.659 1.299,0.4 l 0,-2.998 C -0.715,5.646 -0.791,5.455 -1,5.397 -0.957,5.121 -1.372,5.304 -1.399,5.098 c -0.302,0.151 0.083,0.438 0,0.699 m 1.199,19.99 c -0.205,-0.027 -0.199,-0.266 -0.3,-0.399 -0.199,-0.135 -0.476,-0.192 -0.699,-0.3 -0.38,-0.154 -0.421,-0.647 -0.8,-0.8 0.167,-0.56 1.291,-0.476 1.399,0.1 0.537,-0.646 0.091,-1.657 0.2,-2.699 -0.792,0.402 -1.037,-0.544 -1.699,-0.599 -0.225,1.507 -0.04,3.425 -0.1,5.097 0.648,0.251 1.287,0.512 1.599,1.099 l 0.3,0 c 0.204,-0.328 0.054,-1.012 0.1,-1.499 M 0.899,9.096 c -0.225,3.105 -0.086,6.576 -0.5,9.495 0.349,2.816 0.08,6.251 0.3,9.195 -0.429,3.363 -0.293,7.261 -0.199,10.895 0.063,1.329 -0.314,2.217 -0.7,3.098 -1.728,0.904 -4.806,0.457 -7.096,0.799 -0.979,-0.139 -2.237,-0.125 -3.398,-0.199 -1.022,-0.066 -2.051,-0.101 -3.099,-0.101 -6.316,0 -12.936,-0.26 -19.19,0 -2.896,0.24 -5.383,-0.108 -8.296,-0.099 -0.317,-0.317 -0.916,-0.35 -1.1,-0.8 -0.371,-0.261 -0.833,-0.432 -0.999,-0.9 -0.047,-0.313 0.269,-0.263 0.3,-0.5 0.368,0.093 0.182,-0.526 0.099,-0.599 -0.528,-2.769 -0.535,-6.609 -0.099,-9.495 0.038,-2.794 -0.093,-5.757 0.099,-8.396 0.33,-2.504 0.162,-5.503 0.201,-8.296 0.693,-4.636 0.552,-10.108 1.199,-14.792 1.096,-0.297 2.264,0.112 3.299,0.2 4.425,0.06 8.164,-0.565 12.393,-0.7 4.306,-0.058 8.914,0.186 12.793,-0.299 1.13,0.102 2.301,0.165 3.498,0.2 1.283,-0.01 2.226,0.243 3.399,0.099 0.674,0.06 1.074,0.393 1.899,0.3 0.444,-0.078 0.6,0.133 0.999,0.1 0.394,0.007 0.752,0.049 1,0.2 0.678,0.056 1.203,0.263 1.899,0.3 0.112,0.255 0.773,-0.04 0.9,0.2 0.15,0.248 0.342,0.457 0.699,0.5 0.129,3.427 -0.305,6.291 -0.3,9.595"
         style="fill:#f8f8f8;fill-opacity:1;fill-rule:evenodd;stroke:none"
         id="path4027" />
    </g>
  </g>
</svg>
