<?xml version="1.0" encoding="utf-8"?>
<!-- Generator: Adobe Illustrator 16.0.0, SVG Export Plug-In . SVG Version: 6.00 Build 0)  -->
<!DOCTYPE svg PUBLIC "-//W3C//DTD SVG 1.1//EN" "http://www.w3.org/Graphics/SVG/1.1/DTD/svg11.dtd">
<svg version="1.1" id="Layer_1" xmlns="http://www.w3.org/2000/svg" xmlns:xlink="http://www.w3.org/1999/xlink" x="0px" y="0px"
	 width="500px" height="500px" viewBox="0 0 500 500" enable-background="new 0 0 500 500" xml:space="preserve">
<path fill="#D3D3D3" d="M410.373,346.628c-5.82,10.317-18.992,17.866-31.552,17.866c-12.561,0-21.138-11.028-26.651-20.219
	c-5.515-9.189-10.416-41.049-10.416-41.049s47.274-64.33,117.021-211.371h-67.088l-51.157,105.686c0,0,0.612-21.137-4.596-46.563
	c-5.207-25.426-17.461-42.887-35.229-54.834c-17.768-11.947-47.176-14.189-59.123-14.091
	c-39.824,0.306-79.035,17.461-108.749,39.824c-29.714,22.362-49.528,48.401-61.169,66.168
	c-11.641,17.767-31.859,60.446-31.859,109.46c0,49.014,23.293,80.578,46.673,99.362c23.392,18.785,62.603,21.652,76.891,21.75
	c14.299,0.098,28.489-1.838,52.996-8.994c24.507-7.144,61.475-34.922,72.711-45.742c11.225-10.819,33.183-34.615,33.183-34.615
	s1.838,51.672,8.062,67.602c6.226,15.93,21.444,21.64,35.535,21.75c14.092,0.098,27.362-7.658,36.05-17.154
	c8.676-9.497,15.93-25.635,19.299-34.114c3.37-8.467,10.207-35.118,10.207-35.118h-13.785
	C417.627,332.23,416.193,336.312,410.373,346.628z M292.435,297.406c-9.803,16.542-48.401,104.461-117.939,101.397
	s-64.331-68.007-63.412-86.693c0.919-18.687,8.884-76.89,28.489-117.02s55.239-90.675,109.717-90.981
	c14.961-0.085,42.531,5.82,54.785,29.102c12.253,23.281,13.479,41.661,14.704,54.834c1.226,13.172,1.531,52.996,1.531,52.996
	S302.237,280.864,292.435,297.406z"/>
</svg>
