<?xml version="1.0" encoding="UTF-8" standalone="no"?>
<!-- Generator: Adobe Illustrator 16.0.0, SVG Export Plug-In . SVG Version: 6.00 Build 0)  -->

<svg
   xmlns:dc="http://purl.org/dc/elements/1.1/"
   xmlns:cc="http://creativecommons.org/ns#"
   xmlns:rdf="http://www.w3.org/1999/02/22-rdf-syntax-ns#"
   xmlns:svg="http://www.w3.org/2000/svg"
   xmlns="http://www.w3.org/2000/svg"
   xmlns:sodipodi="http://sodipodi.sourceforge.net/DTD/sodipodi-0.dtd"
   xmlns:inkscape="http://www.inkscape.org/namespaces/inkscape"
   version="1.1"
   id="Layer_1"
   x="0px"
   y="0px"
   width="120px"
   height="120px"
   viewBox="0 0 120 120"
   style="enable-background:new 0 0 120 120;"
   xml:space="preserve"
   inkscape:version="0.48.4 r9939"
   sodipodi:docname="pause.svg"><metadata
     id="metadata12"><rdf:RDF><cc:Work
         rdf:about=""><dc:format>image/svg+xml</dc:format><dc:type
           rdf:resource="http://purl.org/dc/dcmitype/StillImage" /></cc:Work></rdf:RDF></metadata><defs
     id="defs10" /><sodipodi:namedview
     pagecolor="#ffffff"
     bordercolor="#666666"
     borderopacity="1"
     objecttolerance="10"
     gridtolerance="10"
     guidetolerance="10"
     inkscape:pageopacity="0"
     inkscape:pageshadow="2"
     inkscape:window-width="1918"
     inkscape:window-height="1030"
     id="namedview8"
     showgrid="false"
     inkscape:zoom="1.9666667"
     inkscape:cx="-72.20339"
     inkscape:cy="62.542373"
     inkscape:window-x="0"
     inkscape:window-y="0"
     inkscape:window-maximized="1"
     inkscape:current-layer="Layer_1" /><path
     inkscape:connector-curvature="0"
     d="m 45.974071,72.25356 c -0.370897,1.80273 0.759045,5.13218 -0.59516,5.9516 -1.449086,1.70785 -1.121317,-1.09544 -1.794107,-1.1817 -0.776296,-0.12075 -2.130501,1.56122 -2.380641,1.1817 0.06003,0.71592 -0.862551,0.36227 0,0 1.138568,-4.21788 3.251818,-7.47832 4.174748,-11.92046 1.354205,0.81943 0.224263,4.14887 0.59516,5.96886 m 0,17.2769 c -2.285761,0.50925 -4.787159,0.79354 -7.745709,0.5955 0.664164,-0.92293 1.94074,-1.24207 1.776855,-2.9758 1.656098,2.20813 6.132739,1.29383 5.373694,-2.38927 1.336954,0.45681 0.232888,3.3467 0.59516,4.76991 m -5.968854,-9.53981 c -0.163885,1.21619 -1.604345,1.17307 -1.776855,2.38926 -0.819424,-0.18976 -0.508905,-1.49221 -0.603786,-2.38926 l 2.380641,0 z m 0.59516,-28.6022 c 1.405959,-2.38064 2.372016,-5.19256 4.174748,-7.1678 l 0,-1.78548 c 1.380082,1.40596 0.224263,5.35644 0.603786,7.74571 l 0,7.75433 c -1.129942,3.44158 -3.665843,5.48583 -4.174748,9.53982 -1.198946,1.00056 -2.777414,1.60434 -2.975801,3.57959 -2.001119,-3.60547 3.018929,-5.31332 2.975801,-8.94466 1.26795,-3.09656 2.906798,-5.8481 2.975802,-10.13498 -3.070682,-0.4913 -2.622156,2.5359 -4.174748,3.57097 -1.155818,1.23344 -0.828049,3.95048 -2.975801,4.18337 -0.103506,-4.09712 2.656657,-5.28744 3.570961,-8.34087 m -1.173069,-7.75433 c 0.871176,-4.68366 2.941299,-8.18562 4.157496,-12.52425 1.078189,-0.069 1.26795,0.72455 2.389267,0.60379 l 0,3.57096 c -0.569284,3.00168 -3.294945,3.86423 -4.174748,6.55539 -1.535341,2.04424 -3.251817,3.92461 -4.174747,6.55539 -2.924048,-1.31971 1.164444,-3.30357 1.802732,-4.76128 m -1.802732,-9.53982 0.603786,0 c -0.517531,-1.90624 0.922929,-1.85449 1.198946,-2.98443 1.552592,0.68176 -0.810798,2.31164 -1.198946,2.98443 0.01725,0.82805 -0.284642,1.3197 -0.603786,1.78548 -0.92293,-0.14629 -0.405399,-1.30245 0,-1.78548 m -3.579587,7.74571 c -1.440461,-0.36227 -0.310519,-3.01893 1.198946,-2.38927 0.431275,1.63885 -1.190321,1.2162 -1.198946,2.38927 M 50.148818,26.34893 c -4.744031,-1.81998 -12.084341,-1.03506 -18.493096,-1.19032 -0.698666,0.27602 -1.336954,0.63001 -1.776855,1.19032 -1.224823,1.94937 -0.32777,6.02923 -0.603786,8.93603 l 0,8.93603 c -2.19088,16.85425 2.553151,34.67456 1.207572,50.6835 6.469133,1.19033 14.948011,0.0863 20.856486,-1.19894 C 51.18388,73.45285 49.329395,45.6442 50.148818,26.34893 m 33.98452,50.67488 c -2.9413,-0.49131 0.41402,-3.57096 -0.60379,-5.96885 l 0.60379,0 c -0.69867,-3.82111 1.81998,-1.31108 0,0 0.71591,0.90567 1.16444,5.13218 0,5.96885 m -0.60379,3.56234 c 0.14663,-0.7418 1.19895,-0.60379 1.19895,0 -0.27602,0.87117 -0.52616,-0.0483 -1.19895,0 m 0.60379,-17.2769 c -0.8108,-0.18976 -0.49166,-1.50084 -0.60379,-2.38927 0.95743,0.59482 1.37146,1.59572 0.60379,2.38927 m -0.60379,-7.76296 c 0.98331,-0.0952 0.98331,3.67446 0,3.58821 -2.5359,0.16423 -0.0345,-2.61353 0,-3.58821 m -3.57959,23.263 c -1.21619,-0.18148 -1.16444,-1.6216 -2.38064,-1.78548 0.31052,-2.26851 1.85449,-3.3122 1.78548,-5.96885 1.83724,2.06149 -1.19894,5.4772 0.59516,7.75433 m -5.35644,10.72151 c 0.655539,-0.92293 1.94074,-1.23345 1.776855,-2.98443 1.155815,0.8453 3.657215,0.33674 2.984425,2.98443 -1.83723,-0.10351 -3.372573,1.40596 -4.76128,0 m -1.785481,0.59551 c 0.0083,-0.56929 0.715917,-0.44853 1.19032,-0.59551 -0.01725,0.58654 -0.741794,0.47406 -1.19032,0.59551 M 70.41877,41.24553 c 0.163885,-4.01948 2.001119,-6.33975 2.389267,-10.13497 l 4.166122,0 c -2.777415,4.58877 -5.39957,9.31555 -7.754335,14.31835 -1.561217,-1.03506 -0.207012,-4.14887 1.198946,-4.18338 m -2.993052,-10.73013 2.389266,0 c -0.370897,1.41458 -0.793547,2.76879 -2.389266,2.9758 l 0,-2.9758 z m 11.92908,3.57958 c 0.94018,-0.85392 0.47441,-3.09655 2.38927,-2.98442 1.06956,-0.0773 1.39733,0.5955 1.19032,1.78548 l 0,3.58821 c -3.90736,1.26795 -4.77853,5.53758 -7.74571,7.73708 0.05175,0.72455 -0.871177,0.37953 0,0 0.853926,-2.32026 1.414584,-4.92516 2.96718,-6.55538 -0.28465,-1.87174 0.86255,-2.32027 1.19894,-3.57097 m 4.77854,16.69037 c -2.53591,3.8211 -4.95967,7.76296 -8.340874,10.73014 0.560658,2.47552 -1.794107,0.12075 0,0 0.750419,-4.20925 3.407074,-6.51227 4.157494,-10.73014 0.87118,-2.25126 -1.63884,-1.14719 -1.19032,-2.9758 0.85393,-1.13857 1.38008,-2.59628 1.78548,-4.17475 1.60435,-0.59482 0.7418,-3.63997 2.98443,-3.57096 l 0,5.36507 c 0.36227,1.60434 -0.75905,4.71815 0.60379,5.35644 m 7.14192,33.97589 0,-11.31667 c -1.10407,-11.60994 -1.10407,-24.33257 -2.37202,-35.77862 -0.31914,-4.25238 0.87981,-10.02285 -1.19894,-12.507 -1.33696,-1.17306 -4.48527,-0.5265 -5.96023,0 -6.546765,0.19874 -13.22291,0.29327 -19.071007,1.19033 -0.655539,3.42432 2.725662,2.82054 1.785481,6.54676 0.146634,3.93323 -0.0345,7.53007 -0.603786,10.73876 1.923489,15.13777 2.130501,35.04545 2.975801,49.47593 2.751539,2.01837 7.693957,1.84586 11.929081,2.38927 1.81136,-0.78492 4.77853,-0.39677 5.96886,-1.79411 2.06149,0.43128 3.16556,1.83724 5.35644,0.59482 1.75098,-1.81998 1.07819,-6.06374 1.19032,-9.53982"
     style="fill:#000000;fill-opacity:1;fill-rule:evenodd;stroke:none"
     id="path602" /></svg>