<?xml version="1.0" encoding="UTF-8" standalone="no"?>
<!-- Generator: Adobe Illustrator 16.0.0, SVG Export Plug-In . SVG Version: 6.00 Build 0)  -->

<svg
   xmlns:dc="http://purl.org/dc/elements/1.1/"
   xmlns:cc="http://creativecommons.org/ns#"
   xmlns:rdf="http://www.w3.org/1999/02/22-rdf-syntax-ns#"
   xmlns:svg="http://www.w3.org/2000/svg"
   xmlns="http://www.w3.org/2000/svg"
   xmlns:sodipodi="http://sodipodi.sourceforge.net/DTD/sodipodi-0.dtd"
   xmlns:inkscape="http://www.inkscape.org/namespaces/inkscape"
   version="1.1"
   id="Layer_1"
   x="0px"
   y="0px"
   width="120px"
   height="120px"
   viewBox="0 0 120 120"
   style="enable-background:new 0 0 120 120;"
   xml:space="preserve"
   inkscape:version="0.48.4 r9939"
   sodipodi:docname="play.svg"><metadata
     id="metadata12"><rdf:RDF><cc:Work
         rdf:about=""><dc:format>image/svg+xml</dc:format><dc:type
           rdf:resource="http://purl.org/dc/dcmitype/StillImage" /></cc:Work></rdf:RDF></metadata><defs
     id="defs10" /><sodipodi:namedview
     pagecolor="#ffffff"
     bordercolor="#666666"
     borderopacity="1"
     objecttolerance="10"
     gridtolerance="10"
     guidetolerance="10"
     inkscape:pageopacity="0"
     inkscape:pageshadow="2"
     inkscape:window-width="1918"
     inkscape:window-height="1030"
     id="namedview8"
     showgrid="false"
     inkscape:zoom="1.9666667"
     inkscape:cx="-6.1016949"
     inkscape:cy="61.271186"
     inkscape:window-x="0"
     inkscape:window-y="0"
     inkscape:window-maximized="1"
     inkscape:current-layer="Layer_1" /><g
     id="g596"
     transform="matrix(9.5056168,0,0,-9.5056168,76.711401,61.729335)"><path
       inkscape:connector-curvature="0"
       d="M 0,0 C -0.101,0.06 -0.219,0.103 -0.207,0.276 -0.519,0.195 -0.362,0.582 -0.69,0.484 -0.611,0.564 -0.612,0.728 -0.622,0.897 -0.44,0.733 -0.185,0.644 -0.069,0.415 0.099,0.376 0.287,0.355 0.277,0.138 0.148,0.129 0.046,0.093 0,0 M -1.313,0.415 C -1.622,0.41 -1.271,0.671 -1.382,0.897 -1.4,1.042 -1.687,0.917 -1.728,1.036 -1.785,1.231 -1.809,1.463 -1.865,1.659 -1.461,1.557 -1.201,1.31 -0.829,1.174 -1.061,0.991 -1.123,0.639 -1.313,0.415 m -0.138,-1.452 c -0.245,0.037 -0.17,-0.244 -0.414,-0.208 0.06,0.516 0.234,0.917 0.345,1.383 0.282,-0.097 -0.083,-0.437 -0.069,-0.691 -0.045,-0.254 0.15,-0.265 0.138,-0.484 m -0.759,0.898 c -0.031,-0.132 -0.15,-0.173 -0.139,-0.344 -0.11,-0.053 0.016,-0.339 -0.207,-0.278 0.041,0.58 0.303,0.942 0.414,1.452 C -2.087,0.654 -2.029,0.619 -1.935,0.622 -1.93,0.271 -2.179,0.175 -2.21,-0.139 m -0.485,-1.727 c -0.18,0.096 0.05,0.357 0.07,0.483 0,0.163 -0.119,0.204 -0.07,0.416 0.232,0.071 0.108,-0.216 0.139,-0.346 0.021,-0.164 0.24,-0.129 0.207,-0.346 -0.162,-0.024 -0.297,-0.071 -0.346,-0.207 m 0.07,3.179 c 0.142,0.134 0.226,0.327 0.346,0.484 0.175,0.003 0.083,-0.053 0.069,-0.138 l 0,-0.346 C -2.413,1.076 -2.63,0.856 -2.764,0.552 -2.919,0.734 -2.585,1.017 -2.625,1.313 M -2.834,2.212 C -2.575,2.285 -2.636,2.04 -2.418,2.073 -2.462,1.933 -2.742,2.028 -2.764,1.865 -2.914,1.854 -2.794,2.112 -2.834,2.212 M -3.316,2.073 C -3.507,2.164 -3.456,2.447 -3.386,2.626 -3.213,2.638 -3.169,2.521 -3.11,2.419 -3.078,2.202 -3.295,2.236 -3.316,2.073 M -3.939,0.968 c -0.154,0.03 -0.028,0.34 -0.069,0.483 0.112,0.02 0.119,-0.065 0.208,-0.07 C -3.783,1.18 -3.958,1.17 -3.939,0.968 m 0,-3.595 c 0.014,0.079 0.07,0.039 0.069,0 -0.013,-0.078 -0.069,-0.037 -0.069,0 m -0.138,1.106 c -0.152,0.009 -0.029,0.293 -0.069,0.415 0.228,-0.04 0.099,-0.261 0.069,-0.415 m -0.069,2.349 0.069,0 c -0.006,0.085 0.1,0.044 0,0 0.005,-0.119 -0.016,-0.214 -0.069,-0.276 -0.172,0.011 -0.02,0.234 0,0.276 M 0.967,0.691 C 0.79,0.844 0.488,0.942 0.277,1.036 c -0.202,0.352 -0.6,0.507 -0.829,0.829 -1.387,0.55 -2.45,1.421 -3.733,2.074 l -0.138,0 C -4.561,3.938 -4.51,3.751 -4.699,3.802 -4.865,3.713 -4.661,3.256 -4.837,3.179 c 0.149,-1.37 0.031,-3.01 0.068,-4.492 0.08,-0.359 0.111,-0.764 0.138,-1.175 0.172,-0.06 -0.018,-0.482 0.138,-0.553 0.011,-0.222 -0.068,-0.529 0.208,-0.484 0.248,-0.175 0.587,0.149 0.692,0.344 0.272,0.12 0.497,0.287 0.691,0.486 0.545,0.238 0.93,0.635 1.451,0.897 0.448,0.337 0.883,0.686 1.382,0.969 0.261,0.13 0.469,0.315 0.692,0.482 0.088,0.004 0.095,0.09 0.208,0.071 0.015,0.074 0.113,0.165 0.136,0.068 0.105,0.104 0.395,0.021 0.346,0.277 C 1.367,0.4 1.132,0.55 0.967,0.691"
       style="fill:#000000;fill-opacity:1;fill-rule:evenodd;stroke:none"
       id="path598" /></g></svg>