<?xml version="1.0" encoding="UTF-8" standalone="no"?>
<!-- Created with Inkscape (http://www.inkscape.org/) -->

<svg
   xmlns:dc="http://purl.org/dc/elements/1.1/"
   xmlns:cc="http://creativecommons.org/ns#"
   xmlns:rdf="http://www.w3.org/1999/02/22-rdf-syntax-ns#"
   xmlns:svg="http://www.w3.org/2000/svg"
   xmlns="http://www.w3.org/2000/svg"
   xmlns:sodipodi="http://sodipodi.sourceforge.net/DTD/sodipodi-0.dtd"
   xmlns:inkscape="http://www.inkscape.org/namespaces/inkscape"
   width="1000"
   height="35"
   id="svg5209"
   version="1.1"
   inkscape:version="0.48.4 r9939"
   sodipodi:docname="tag-lg.svg">
  <defs
     id="defs5211" />
  <sodipodi:namedview
     id="base"
     pagecolor="#ffffff"
     bordercolor="#666666"
     borderopacity="1.0"
     inkscape:pageopacity="0.0"
     inkscape:pageshadow="2"
     inkscape:zoom="1.979899"
     inkscape:cx="810.32222"
     inkscape:cy="34.46971"
     inkscape:document-units="px"
     inkscape:current-layer="g2052"
     showgrid="false"
     inkscape:window-width="1364"
     inkscape:window-height="718"
     inkscape:window-x="0"
     inkscape:window-y="0"
     inkscape:window-maximized="1" />
  <metadata
     id="metadata5214">
    <rdf:RDF>
      <cc:Work
         rdf:about="">
        <dc:format>image/svg+xml</dc:format>
        <dc:type
           rdf:resource="http://purl.org/dc/dcmitype/StillImage" />
        <dc:title />
      </cc:Work>
    </rdf:RDF>
  </metadata>
  <g
     inkscape:label="Capa 1"
     inkscape:groupmode="layer"
     id="capa1"
     transform="translate(0,-1017.3622)">
    <g
       id="g2052"
       transform="matrix(1.8398454,0,0,-1.8398454,12.640947,1040.1473)">
      <path
         inkscape:connector-curvature="0"
         d="M 1.6272606,1.6881327 C 1.5375775,2.0692875 1.7543124,2.141533 1.7518204,2.4354954 2.1890271,2.4691285 1.4404197,2.9001073 1.8763816,2.9337368 1.7854524,3.2725427 2.123011,3.1841035 2.125502,3.4307336 2.9351452,3.5353655 3.3300017,3.2252086 3.7435413,2.9337368 3.6414033,2.5812314 3.9191732,2.6111252 3.8681038,2.3109356 3.8917696,1.1911366 2.2824476,1.0827691 1.6272606,1.6881327 M 3.495668,4.5517774 C 2.0694499,5.0076703 1.0069493,4.0622555 0.38165564,3.3074182 0.46884803,2.4330047 0.17239406,1.9409908 0.25709552,1.0653308 0.45763785,0.89094609 0.57597038,0.63684266 0.63202259,0.31796794 1.0019673,0.10870614 1.370666,-0.10304671 1.7518208,-0.3035886 c 1.5445507,0.11459869 2.5074033,0.81337949 3.112766,1.8671609 l 0,1.121045 C 4.7624473,3.1205775 4.4896595,3.3883841 4.3663457,3.8044156 3.9166811,3.8940986 4.0113483,4.5281112 3.495668,4.5517774 M 539.5259,-5.0087424 C 537.29752,-5.6863517 38.696455,-4.8375886 36.362191,-5.4068317 24.5194,-4.6571526 14.400537,-5.6624251 2.5165455,-5.6763511 0.59241341,-4.0205079 -4.3285632,0.60717782 -5.219828,2.560042 c -0.03238,0.8208544 0.5929088,0.9840279 0.9964828,1.3701662 1.2038179,1.1150941 2.5582855,2.1152496 3.85763854,2.9869598 1.73325326,1.447419 4.15747886,3.212923 5.97210446,4.267286 2.6342564,0.289345 4.7755122,0.160815 7.3594872,0.03897 10.725643,-0.505756 517.721125,0.962181 526.186345,-0.322806 m 1.86715,-12.4498123 C 540.89013,1.6072538 541.58156,12.134501 539.5259,12.270792 534.16711,12.21494 17.573136,12.567677 5.339595,12.259746 1.558671,9.3814447 -6.3782222,4.6923585 -6.5899921,2.9337368 c -0.1619293,-0.7909585 0.26905,-1.2717613 0.4982417,-1.7426002 2.4371288,-2.03169033 4.3463069,-4.0237718 7.9196031,-7.6979864 4.6037545,-0.097154 9.7961353,-0.3134452 14.3537943,-0.3134452 4.609978,0 8.658708,0.7159254 13.084328,0.1678584 4.080421,0.6349425 508.078645,-1.6831059 511.505535,0.3736808 0.7511,1.1783432 0.11463,3.0629423 0.24787,4.7295628"
         style="fill:#555555;fill-opacity:1;fill-rule:evenodd;stroke:none"
         id="path2054"
         sodipodi:nodetypes="cccccccccccccccccccccccscccccccsccc" />
    </g>
  </g>
</svg>
