<?xml version="1.0" encoding="UTF-8" standalone="no"?>
<!-- Created with Inkscape (http://www.inkscape.org/) -->

<svg
   xmlns:dc="http://purl.org/dc/elements/1.1/"
   xmlns:cc="http://creativecommons.org/ns#"
   xmlns:rdf="http://www.w3.org/1999/02/22-rdf-syntax-ns#"
   xmlns:svg="http://www.w3.org/2000/svg"
   xmlns="http://www.w3.org/2000/svg"
   xmlns:sodipodi="http://sodipodi.sourceforge.net/DTD/sodipodi-0.dtd"
   xmlns:inkscape="http://www.inkscape.org/namespaces/inkscape"
   width="1000"
   height="28"
   id="svg5209"
   version="1.1"
   inkscape:version="0.48.4 r9939"
   sodipodi:docname="tag.svg">
  <defs
     id="defs5211" />
  <sodipodi:namedview
     id="base"
     pagecolor="#ffffff"
     bordercolor="#666666"
     borderopacity="1.0"
     inkscape:pageopacity="0.0"
     inkscape:pageshadow="2"
     inkscape:zoom="3.959798"
     inkscape:cx="1002.532"
     inkscape:cy="10.111968"
     inkscape:document-units="px"
     inkscape:current-layer="g2052"
     showgrid="false"
     inkscape:window-width="1364"
     inkscape:window-height="718"
     inkscape:window-x="0"
     inkscape:window-y="0"
     inkscape:window-maximized="1" />
  <metadata
     id="metadata5214">
    <rdf:RDF>
      <cc:Work
         rdf:about="">
        <dc:format>image/svg+xml</dc:format>
        <dc:type
           rdf:resource="http://purl.org/dc/dcmitype/StillImage" />
        <dc:title />
      </cc:Work>
    </rdf:RDF>
  </metadata>
  <g
     inkscape:label="Capa 1"
     inkscape:groupmode="layer"
     id="capa1"
     transform="translate(0,-1024.3622)">
    <g
       id="g2052"
       transform="matrix(1.8398454,0,0,-1.8398454,12.640947,1040.1473)">
      <path
         inkscape:connector-curvature="0"
         d="M 0,0 C -0.072,0.306 0.102,0.364 0.1,0.6 0.451,0.627 -0.15,0.973 0.2,1 0.127,1.272 0.398,1.201 0.4,1.399 1.05,1.483 1.367,1.234 1.699,1 1.617,0.717 1.84,0.741 1.799,0.5 1.818,-0.399 0.526,-0.486 0,0 M 1.5,2.299 C 0.355,2.665 -0.498,1.906 -1,1.3 -0.93,0.598 -1.168,0.203 -1.1,-0.5 c 0.161,-0.14 0.256,-0.344 0.301,-0.6 0.297,-0.168 0.593,-0.338 0.899,-0.499 1.24,0.092 2.013,0.653 2.499,1.499 l 0,0.9 C 2.517,1.15 2.298,1.365 2.199,1.699 1.838,1.771 1.914,2.28 1.5,2.299 M 539.36025,-5.3764049 C 537.57125,-5.9204049 29.76,-5.239 27.886,-5.696 18.378337,-5.0941411 10.137801,-5.6284765 0.59705784,-5.6396446 -0.94767926,-4.3102955 -4.7814707,-0.86780468 -5.497,0.7 c -0.026,0.659 0.476,0.79 0.8,1.1 0.9664515,0.8952233 2.0538492,1.6981719 3.097,2.398 1.39149567,1.1620215 3.1818789,2.3456471 4.6387025,3.1921157 C 5.0756229,7.4275997 6.9505146,7.558177 9.1028994,7.6551596 17.714527,8.0431839 532.26419,8.427622 539.06025,7.396 m 1.499,-9.995 c -0.10377,2.53406856 0.45133,10.9855785 -1.199,11.095 C 535.05809,8.4511686 12.801719,8.734341 2.9803471,8.4871735 -0.055065,6.1763676 -6.4269844,2.4118618 -6.597,1 c -0.13,-0.635 0.216,-1.021 0.4,-1.399 1.9565846,-1.6310878 3.5282761,-3.3472571 6.397,-6.297 3.696,-0.078 7.436,0.099 11.095,0.099 3.701,0 7.341,0.341 10.894,-0.099 3.275847,0.509745 515.42007,-1.3512375 518.17125,0.3 0.603,0.946 0.092,2.459 0.199,3.797"
         style="fill:#555555;fill-opacity:1;fill-rule:evenodd;stroke:none"
         id="path2054"
         sodipodi:nodetypes="cccccccccccccccccccccccscccccccsccc" />
    </g>
  </g>
</svg>
