<?xml version="1.0" encoding="UTF-8" standalone="no"?>
<svg
   xmlns:dc="http://purl.org/dc/elements/1.1/"
   xmlns:cc="http://creativecommons.org/ns#"
   xmlns:rdf="http://www.w3.org/1999/02/22-rdf-syntax-ns#"
   xmlns:svg="http://www.w3.org/2000/svg"
   xmlns="http://www.w3.org/2000/svg"
   xmlns:sodipodi="http://sodipodi.sourceforge.net/DTD/sodipodi-0.dtd"
   xmlns:inkscape="http://www.inkscape.org/namespaces/inkscape"
   width="40"
   height="40"
   x="0px"
   y="0px"
   preserveAspectRatio="none"
   viewBox="0 0 40 40.000005"
   id="svg2"
   version="1.1"
   inkscape:version="0.48.4 r9939"
   sodipodi:docname="arrow-left.svg">
  <metadata
     id="metadata12">
    <rdf:RDF>
      <cc:Work
         rdf:about="">
        <dc:format>image/svg+xml</dc:format>
        <dc:type
           rdf:resource="http://purl.org/dc/dcmitype/StillImage" />
      </cc:Work>
    </rdf:RDF>
  </metadata>
  <defs
     id="defs10" />
  <sodipodi:namedview
     pagecolor="#ffffff"
     bordercolor="#666666"
     borderopacity="1"
     objecttolerance="10"
     gridtolerance="10"
     guidetolerance="10"
     inkscape:pageopacity="0"
     inkscape:pageshadow="2"
     inkscape:window-width="1364"
     inkscape:window-height="718"
     id="namedview8"
     showgrid="false"
     inkscape:zoom="8.34386"
     inkscape:cx="16.295467"
     inkscape:cy="18.045828"
     inkscape:window-x="0"
     inkscape:window-y="0"
     inkscape:window-maximized="1"
     inkscape:current-layer="svg2" />
  <path
     style="fill:none;stroke:#F8F8F8;stroke-width:2.4537816;stroke-dasharray:none"
     d="m 36.136,29.337678 c -1.261352,2.113199 -2.769433,4.091965 -4.522,5.720326 -4.128185,2.946216 -7.269592,3.610033 -12.104151,3.915001 C 12.24812,38.406195 6.1432515,34.261477 3.0637088,28.292698 0.7728082,22.746034 0.8328191,18.785691 1.8201177,14.571311 3.2510869,10.404543 6.1452608,6.9256242 9.2650152,4.3251066 11.159811,3.098959 13.019891,2.5717728 14.931208,1.9011359 18.396606,0.83555247 22.122327,1.299567 25.360514,1.5118689 c 4.533687,0.8427944 6.473456,2.8556742 9.109297,6.0922514 2.662618,3.8244287 5.186227,8.9362087 4.224189,14.4885917 -0.403973,2.839183 -1.31139,5.156469 -2.558,7.244966 z"
     id="path4"
     inkscape:connector-curvature="0"
     sodipodi:nodetypes="scccccccccs" />
  <path
     style="fill:none;stroke:#F8F8F8;stroke-width:2.4537816;stroke-dasharray:none"
     d="m 24.148666,29.448268 c -1.495512,-1.356101 -2.880361,-3.081576 -4.161131,-4.344823 -1.853968,-1.583964 -2.768538,-3.113366 -4.136201,-4.888266 0.715488,-1.150415 1.593274,-2.336645 2.333226,-3.531009 1.428998,-2.330292 3.361666,-4.552655 5.25489,-6.132433"
     id="path6" />
</svg>
